<svg width="24" height="24" viewBox="0 0 24 24" fill="none" xmlns="http://www.w3.org/2000/svg">
<style>
path { fill: #1D1F23; }
@media (prefers-color-scheme: dark) {
path { fill: #DBDBDC; }
}
</style>
<path d="M11.8759 5.27122C11.9899 5.38506 12.1734 5.38854 12.2917 5.2791L16.05 1.80005H21.6L14.4635 8.50861C14.1619 8.7921 13.9909 9.18762 13.9909 9.60153V22.2L11.0734 18.7506C10.3863 17.9382 10.0093 16.9087 10.0093 15.8446V9.60154C10.0093 9.18762 9.83823 8.7921 9.53664 8.50861L2.39999 1.80005H8.39999L11.8759 5.27122Z"/>
<path d="M5.61232 9.60582C6.0796 10.0321 6.34584 10.6355 6.34584 11.268V22.1366L3.47694 18.7747C2.78184 17.9602 2.39999 16.9244 2.39999 15.8536V6.67505L5.61232 9.60582Z"/>
<path d="M21.6 22.125L18.7173 18.8216C18.002 18.0018 17.6079 16.9508 17.6079 15.8628V11.2353C17.6079 10.6219 17.8583 10.0351 18.3012 9.6107L21.6 6.45005V22.125Z"/>
</svg>
