<svg width="160" height="160" viewBox="0 0 160 160" fill="none" xmlns="http://www.w3.org/2000/svg">
<path d="M79.1725 35.1412C79.9325 35.9001 81.1562 35.9233 81.9444 35.1937L107 12H144L96.4232 56.7237C94.4127 58.6137 93.2725 61.2505 93.2725 64.0099V148L73.8228 125.004C69.242 119.588 66.7285 112.724 66.7285 105.631V64.0099C66.7285 61.2505 65.5883 58.6137 63.5777 56.7237L16 12H56L79.1725 35.1412Z" fill="white"/>
<path d="M37.4155 64.0385C40.5307 66.8806 42.3057 70.9027 42.3057 75.1196V147.577L23.1796 125.164C18.5457 119.734 16 112.829 16 105.691V44.5L37.4155 64.0385Z" fill="white"/>
<path d="M144 147.5L124.782 125.477C120.013 120.012 117.386 113.005 117.386 105.752V74.9019C117.386 70.8124 119.055 66.9002 122.008 64.071L144 43V147.5Z" fill="white"/>
</svg>
