<svg width="568" height="92" viewBox="0 0 568 92" fill="none" xmlns="http://www.w3.org/2000/svg">
<path d="M191.44 15.8832V71.1446H184.153V27.0156L165.415 59.5317H161.332L142.594 27.0156V71.1446H135.227V15.8832H144.516L163.414 48.7197L182.391 15.8832H191.44Z" fill="white"/>
<path d="M207.235 22.1301C205.901 22.1301 204.779 21.703 203.872 20.8487C203.018 19.941 202.591 18.8465 202.591 17.5651C202.591 16.2303 203.018 15.1357 203.872 14.2814C204.779 13.4271 205.901 13 207.235 13C208.516 13 209.584 13.4271 210.438 14.2814C211.346 15.1357 211.799 16.2303 211.799 17.5651C211.799 18.8465 211.346 19.941 210.438 20.8487C209.584 21.703 208.516 22.1301 207.235 22.1301ZM203.792 30.2992H210.678V71.1446H203.792V30.2992Z" fill="white"/>
<path d="M234.496 54.7264L229.211 60.3326V71.1446H222.325V13.4805H229.211V51.0423L248.749 30.2992H257.718L239.381 49.6007L258.278 71.1446H249.15L234.496 54.7264Z" fill="white"/>
<path d="M301.776 50.7219C301.776 51.2024 301.749 51.7097 301.696 52.2436C301.696 52.7775 301.669 53.2848 301.616 53.7653H266.463C267.157 57.3426 268.838 60.2525 271.508 62.495C274.23 64.6841 277.593 65.7786 281.597 65.7786C284.64 65.7786 287.362 65.1379 289.765 63.8565C292.167 62.5751 294.035 61 295.37 59.1313L300.094 63.2158C298.066 65.9388 295.423 68.1012 292.167 69.703C288.964 71.3048 285.36 72.1057 281.357 72.1057C278.154 72.1057 275.191 71.5717 272.468 70.5039C269.746 69.3826 267.37 67.861 265.342 65.9388C263.367 64.0167 261.819 61.7475 260.697 59.1313C259.576 56.4616 259.016 53.6051 259.016 50.5617C259.016 47.5184 259.55 44.7152 260.617 42.1524C261.738 39.5362 263.26 37.2937 265.182 35.4249C267.103 33.5028 269.372 32.0078 271.988 30.9399C274.604 29.8721 277.433 29.3382 280.476 29.3382C283.519 29.3382 286.321 29.8721 288.884 30.9399C291.5 32.0078 293.768 33.5028 295.69 35.4249C297.612 37.347 299.107 39.6162 300.174 42.2325C301.242 44.8487 301.776 47.6785 301.776 50.7219ZM280.396 35.6652C278.634 35.6652 276.953 35.9588 275.351 36.5462C273.803 37.1335 272.415 37.9611 271.187 39.0289C269.959 40.0434 268.918 41.2714 268.064 42.713C267.264 44.1546 266.703 45.7564 266.383 47.5184H294.489C293.848 43.9944 292.247 41.1379 289.685 38.9488C287.122 36.7597 284.026 35.6652 280.396 35.6652Z" fill="white"/>
<path d="M377.799 15.8832L355.218 50.7219V71.1446H347.851V50.7219L325.27 15.8832H333.677L351.614 43.4338L369.551 15.8832H377.799Z" fill="white"/>
<path d="M394.652 72.1057C391.556 72.1057 388.674 71.5717 386.004 70.5039C383.335 69.3826 381.013 67.8877 379.038 66.0189C377.116 64.0968 375.595 61.8276 374.474 59.2113C373.406 56.5951 372.872 53.7653 372.872 50.7219C372.872 47.6785 373.406 44.8487 374.474 42.2325C375.595 39.6162 377.116 37.3737 379.038 35.505C381.013 33.5829 383.335 32.0879 386.004 31.02C388.674 29.8988 391.556 29.3382 394.652 29.3382C397.749 29.3382 400.605 29.8988 403.22 31.02C405.89 32.0879 408.185 33.5829 410.107 35.505C412.082 37.3737 413.603 39.6162 414.671 42.2325C415.792 44.8487 416.353 47.6785 416.353 50.7219C416.353 53.7653 415.792 56.5951 414.671 59.2113C413.603 61.8276 412.082 64.0968 410.107 66.0189C408.185 67.8877 405.89 69.3826 403.22 70.5039C400.605 71.5717 397.749 72.1057 394.652 72.1057ZM394.652 65.4583C396.734 65.4583 398.656 65.0845 400.418 64.337C402.233 63.5895 403.781 62.5751 405.062 61.2937C406.343 59.9588 407.358 58.3838 408.105 56.5684C408.852 54.7531 409.226 52.8042 409.226 50.7219C409.226 48.6396 408.852 46.6908 408.105 44.8754C407.358 43.0601 406.343 41.5117 405.062 40.2303C403.781 38.8954 402.233 37.8543 400.418 37.1068C398.656 36.3593 396.734 35.9855 394.652 35.9855C392.571 35.9855 390.622 36.3593 388.807 37.1068C387.045 37.8543 385.497 38.8954 384.163 40.2303C382.881 41.5117 381.867 43.0601 381.12 44.8754C380.372 46.6908 379.999 48.6396 379.999 50.7219C379.999 52.8042 380.372 54.7531 381.12 56.5684C381.867 58.3838 382.881 59.9588 384.163 61.2937C385.497 62.5751 387.045 63.5895 388.807 64.337C390.622 65.0845 392.571 65.4583 394.652 65.4583Z" fill="white"/>
<path d="M443.262 72.1057C440.486 72.1057 437.95 71.7052 435.654 70.9043C433.412 70.0501 431.464 68.8754 429.809 67.3804C428.208 65.8854 426.953 64.0968 426.046 62.0145C425.191 59.8788 424.764 57.5295 424.764 54.9666V30.2992H431.651V54.0056C431.651 57.4761 432.692 60.2525 434.774 62.3348C436.909 64.4171 439.738 65.4583 443.262 65.4583C446.785 65.4583 449.587 64.4171 451.669 62.3348C453.805 60.2525 454.872 57.4761 454.872 54.0056V30.2992H461.759V54.9666C461.759 57.5295 461.305 59.8788 460.398 62.0145C459.543 64.0968 458.289 65.8854 456.634 67.3804C455.033 68.8754 453.084 70.0501 450.789 70.9043C448.546 71.7052 446.038 72.1057 443.262 72.1057Z" fill="white"/>
<path d="M494.413 29.3382C496.922 29.3382 499.191 29.7386 501.219 30.5395C503.248 31.3404 504.983 32.4616 506.424 33.9032C507.866 35.3448 508.987 37.0801 509.787 39.109C510.588 41.1379 510.988 43.4071 510.988 45.9166V71.1446H504.102V48.079C504.102 44.3949 503.034 41.4583 500.899 39.2692C498.764 37.0801 495.854 35.9855 492.171 35.9855C488.381 35.9855 485.338 37.1068 483.042 39.3493C480.8 41.5918 479.679 44.5551 479.679 48.2392V71.1446H472.793V30.2992H479.679V36.5462C481.281 34.1969 483.336 32.4082 485.845 31.1802C488.354 29.9522 491.21 29.3382 494.413 29.3382Z" fill="white"/>
<path d="M547.84 72.1858C551.683 72.1858 554.86 73.1468 557.369 75.069C559.878 77.0445 561.346 79.7408 561.773 83.158L554.646 85C554.539 83.1313 553.765 81.6363 552.324 80.515C550.883 79.4472 548.987 78.9132 546.639 78.9132H531.585C528.168 78.9132 525.419 78.0056 523.337 76.1902C521.255 74.4283 520.214 72.1057 520.214 69.2225C520.214 67.3003 520.668 65.5117 521.575 63.8565C522.483 62.2013 523.711 60.9199 525.259 60.0122C523.55 58.4105 522.189 56.515 521.175 54.3259C520.161 52.0834 519.653 49.6541 519.653 47.0378C519.653 44.5284 520.107 42.2058 521.015 40.0701C521.976 37.881 523.283 36.0122 524.938 34.4638C526.647 32.8621 528.622 31.6073 530.864 30.6997C533.159 29.792 535.642 29.3382 538.311 29.3382C540.179 29.3382 541.941 29.5784 543.596 30.059C545.304 30.4861 546.879 31.1268 548.32 31.9811C548.747 29.792 549.762 28.0834 551.363 26.8554C553.018 25.574 555.1 24.9333 557.609 24.9333H560.732V31.3404H558.009C556.514 31.3404 555.313 31.7408 554.406 32.5417C553.498 33.3426 553.018 34.4372 552.965 35.8254C554.246 37.3737 555.233 39.0823 555.927 40.9511C556.621 42.8198 556.968 44.8487 556.968 47.0378C556.968 49.5473 556.488 51.8966 555.527 54.0857C554.566 56.2214 553.258 58.0901 551.603 59.6919C549.948 61.2937 547.973 62.5484 545.678 63.4561C543.436 64.3637 540.98 64.8176 538.311 64.8176C535.108 64.8176 532.225 64.1769 529.663 62.8954C528.862 63.4294 528.221 64.0968 527.741 64.8977C527.314 65.6986 527.1 66.5528 527.1 67.4605C527.1 68.9021 527.634 70.0501 528.702 70.9043C529.77 71.7586 531.158 72.1858 532.866 72.1858H547.84ZM538.311 35.9054C536.656 35.9054 535.108 36.1991 533.667 36.7864C532.279 37.3204 531.077 38.0945 530.063 39.109C529.049 40.1235 528.248 41.2981 527.661 42.6329C527.074 43.9677 526.78 45.436 526.78 47.0378C526.78 48.6396 527.074 50.1346 527.661 51.5228C528.248 52.8576 529.049 54.0323 530.063 55.0467C531.131 56.0612 532.359 56.8621 533.747 57.4494C535.135 57.9833 536.656 58.2503 538.311 58.2503C539.966 58.2503 541.487 57.9833 542.875 57.4494C544.263 56.8621 545.464 56.0612 546.478 55.0467C547.546 54.0323 548.374 52.8576 548.961 51.5228C549.548 50.1346 549.842 48.6396 549.842 47.0378C549.842 45.436 549.548 43.9677 548.961 42.6329C548.374 41.2981 547.546 40.1235 546.478 39.109C545.464 38.0945 544.263 37.3204 542.875 36.7864C541.487 36.1991 539.966 35.9054 538.311 35.9054Z" fill="white"/>
<path d="M41.2666 24.25L54.5 12H73L47.6362 35.8428V80L34.3643 64.3081V35.8428L9 12H29L41.2666 24.25Z" fill="white"/>
<path d="M22.1528 40.25V79.7886L9 64.3755V28.25L22.1528 40.25Z" fill="white"/>
<path d="M73 79.75L59.6929 64.5005V40.25L73 27.5V79.75Z" fill="white"/>
</svg>
