<svg width="44" height="52" viewBox="0 0 44 52" fill="none" xmlns="http://www.w3.org/2000/svg">
<path d="M14.8292 19.3621V32.1815C14.8292 33.4062 13.7916 34.399 12.5118 34.399H6.04741C5.96966 34.399 5.89535 34.3683 5.84203 34.3142L2.88618 31.4457V2.91173C2.88618 2.61126 3.13367 2.36768 3.43897 2.36768H11.3707C11.5312 2.36768 11.6838 2.43633 11.7888 2.55581L19.9426 11.8335C20.163 12.0843 20.5583 12.0843 20.7787 11.8335L28.9325 2.55581C29.0375 2.43633 29.1901 2.36768 29.3506 2.36768H37.8351L41.1131 6.2711V38.6305C41.1131 44.8185 35.8709 49.835 29.4043 49.835H6.56465C6.42932 49.835 6.30007 49.7812 6.20779 49.6864L2.88617 46.561V38.7038C2.88617 38.4033 3.13366 38.1597 3.43896 38.1597H25.361C27.4248 38.1597 29.0979 36.5131 29.0979 34.4819L29.0979 21.152M19.7971 24.1761C19.7226 24.132 19.6523 24.0784 19.588 24.0155L17.9129 22.3775L14.8292 19.3621L12.2402 16.8305C12.0659 16.66 11.769 16.7816 11.769 17.0235V30.6297C11.769 31.0804 11.3978 31.4457 10.9399 31.4457H2.88618M17.9129 22.3775L19.7971 24.1761M2.88617 46.561H28.493C33.6525 46.561 37.8351 42.4445 37.8351 37.3665L37.8351 2.36768M29.0979 21.152L23.608 26.2815C23.1711 26.7043 22.4593 26.7098 22.0154 26.2937L19.7971 24.1761M29.0979 21.152L29.0979 17.0158C29.0979 16.775 28.8034 16.653 28.6283 16.8213L21.1398 24.0219C20.7725 24.375 20.2183 24.426 19.7971 24.1761" stroke="white" stroke-opacity="0.8" stroke-width="0.8" stroke-miterlimit="2.61313"/>
</svg>
