<svg width="1152" height="543" viewBox="0 0 1152 543" fill="none" xmlns="http://www.w3.org/2000/svg">
<mask id="path-1-inside-1_2496_706" fill="white">
<path d="M46 455H471V467H46V455Z"/>
</mask>
<path d="M46 467H44.5V468.5H46V467ZM471 467V465.5H46V467V468.5H471V467ZM46 467H47.5V455H46H44.5V467H46Z" fill="#393B3F" mask="url(#path-1-inside-1_2496_706)"/>
<g clip-path="url(#clip0_2496_706)">
<path d="M203.242 493.224C200.346 493.224 199.178 491.576 199.642 489.192L201.13 481.56H202.57L201.082 489.192C200.698 491.16 201.498 491.944 203.402 491.944C205.386 491.944 206.602 491.048 206.97 489.192L208.458 481.56H209.898L208.41 489.192C207.962 491.496 206.426 493.224 203.242 493.224ZM213.41 493H211.97L214.194 481.56H215.922L219.81 490.952H219.874L221.698 481.56H223.138L220.914 493H219.186L215.298 483.608H215.234L213.41 493ZM229.618 493H225.314L227.538 481.56H231.458C234.242 481.56 235.842 482.872 235.842 485.912C235.842 489.8 233.218 493 229.618 493ZM227.01 491.72H229.826C232.498 491.72 234.386 489.112 234.386 485.944C234.386 484.088 233.746 482.84 231.202 482.84H228.722L227.01 491.72ZM246.551 493H238.439L240.663 481.56H248.583L248.327 482.84H241.847L241.159 486.44H246.871L246.615 487.72H240.903L240.135 491.72H246.807L246.551 493ZM251.692 493H250.252L252.476 481.56H256.908C259.18 481.56 260.332 482.536 260.332 484.216C260.332 485.912 259.212 487.352 257.612 487.704V487.752C260.06 488.248 258.268 492.712 258.844 492.904L258.828 493H257.276C256.876 492.52 258.764 488.376 255.868 488.376H252.588L251.692 493ZM252.844 487.096H255.932C257.708 487.096 258.86 485.944 258.86 484.408C258.86 483.352 258.252 482.84 256.524 482.84H253.66L252.844 487.096ZM267.075 493.224C264.227 493.224 262.339 491.704 262.531 489.208H263.939C263.923 491 265.091 491.944 267.107 491.944C268.819 491.944 270.083 491.336 270.083 489.768C270.083 488.616 269.331 488.28 267.139 487.544C264.947 486.808 263.891 486.152 263.891 484.536C263.891 482.392 265.811 481.336 268.163 481.336C270.675 481.336 272.259 482.456 272.035 484.904H270.627C270.707 483.368 269.923 482.616 268.035 482.616C266.643 482.616 265.331 483.016 265.331 484.376C265.331 485.48 266.019 485.768 267.923 486.424C270.179 487.208 271.539 487.72 271.539 489.672C271.539 491.992 269.699 493.224 267.075 493.224ZM278.305 493H276.865L278.833 482.84H275.025L275.281 481.56H284.337L284.081 482.84H280.273L278.305 493ZM284.434 493H282.914L289.362 481.56H290.978L293.01 493H291.49L291.042 490.136H286.002L284.434 493ZM289.922 482.888L286.722 488.856H290.818L289.954 482.888H289.922ZM297.77 493H296.33L298.554 481.56H300.282L304.17 490.952H304.234L306.058 481.56H307.498L305.274 493H303.546L299.658 483.608H299.594L297.77 493ZM313.977 493H309.673L311.897 481.56H315.817C318.601 481.56 320.201 482.872 320.201 485.912C320.201 489.8 317.577 493 313.977 493ZM311.369 491.72H314.185C316.857 491.72 318.745 489.112 318.745 485.944C318.745 484.088 318.105 482.84 315.561 482.84H313.081L311.369 491.72Z" fill="#393B3F"/>
</g>
<mask id="path-4-inside-2_2496_706" fill="white">
<path d="M471 455H910V467H471V455Z"/>
</mask>
<path d="M910 467V468.5H911.5V467H910ZM471 467H469.5V468.5H471V467ZM910 455H908.5V467H910H911.5V455H910ZM910 467V465.5H471V467V468.5H910V467ZM471 467H472.5V455H471H469.5V467H471Z" fill="#393B3F" mask="url(#path-4-inside-2_2496_706)"/>
<g clip-path="url(#clip1_2496_706)">
<path d="M659.301 493H651.189L653.413 481.56H661.333L661.077 482.84H654.597L653.909 486.44H659.621L659.365 487.72H653.653L652.885 491.72H659.557L659.301 493ZM663.514 493H661.77L666.81 487.112L664.266 481.56H665.866L667.786 486.104H667.802L671.53 481.56H673.162L668.362 487.128L671.098 493H669.498L667.402 488.184H667.386L663.514 493ZM675.738 493H674.298L676.522 481.56H680.922C682.81 481.56 684.218 482.2 684.218 484.264C684.218 486.52 682.49 488.216 679.866 488.216H676.666L675.738 493ZM676.922 486.936H680.106C681.754 486.936 682.762 485.816 682.762 484.36C682.762 483.288 682.298 482.84 680.762 482.84H677.706L676.922 486.936ZM693.567 493H686.127L688.351 481.56H689.791L687.823 491.72H693.823L693.567 493ZM701.057 493.224C698.145 493.224 696.417 491.336 696.417 488.584C696.417 484.696 699.361 481.336 703.217 481.336C706.129 481.336 707.857 483.224 707.857 485.976C707.857 489.864 704.913 493.224 701.057 493.224ZM701.169 491.944C704.289 491.944 706.401 489.128 706.401 485.976C706.401 484.088 705.457 482.616 703.105 482.616C699.985 482.616 697.873 485.432 697.873 488.584C697.873 490.472 698.817 491.944 701.169 491.944ZM711.879 493H710.439L712.663 481.56H717.095C719.367 481.56 720.519 482.536 720.519 484.216C720.519 485.912 719.399 487.352 717.799 487.704V487.752C720.247 488.248 718.455 492.712 719.031 492.904L719.015 493H717.463C717.063 492.52 718.951 488.376 716.055 488.376H712.775L711.879 493ZM713.031 487.096H716.119C717.895 487.096 719.047 485.944 719.047 484.408C719.047 483.352 718.439 482.84 716.711 482.84H713.847L713.031 487.096ZM730.91 493H722.798L725.022 481.56H732.942L732.686 482.84H726.206L725.518 486.44H731.23L730.974 487.72H725.262L724.494 491.72H731.166L730.91 493Z" fill="#393B3F"/>
</g>
<mask id="path-7-inside-3_2496_706" fill="white">
<path d="M910 455H1107V467H910V455Z"/>
</mask>
<path d="M1107 467V468.5H1108.5V467H1107ZM1107 455H1105.5V467H1107H1108.5V455H1107ZM1107 467V465.5H910V467V468.5H1107V467Z" fill="#393B3F" mask="url(#path-7-inside-3_2496_706)"/>
<g clip-path="url(#clip2_2496_706)">
<path d="M971.341 493H969.773L967.901 481.56H969.469L970.797 491.528H970.813L976.029 481.56H977.565L971.341 493ZM978.15 493H976.63L983.078 481.56H984.694L986.726 493H985.206L984.758 490.136H979.718L978.15 493ZM983.638 482.888L980.438 488.856H984.534L983.67 482.888H983.638ZM997.486 493H990.046L992.27 481.56H993.71L991.742 491.72H997.742L997.486 493ZM1002.35 493H1000.91L1003.13 481.56H1004.57L1002.35 493ZM1011.05 493H1006.75L1008.97 481.56H1012.89C1015.68 481.56 1017.28 482.872 1017.28 485.912C1017.28 489.8 1014.65 493 1011.05 493ZM1008.45 491.72H1011.26C1013.93 491.72 1015.82 489.112 1015.82 485.944C1015.82 484.088 1015.18 482.84 1012.64 482.84H1010.16L1008.45 491.72ZM1020.06 493H1018.54L1024.98 481.56H1026.6L1028.63 493H1027.11L1026.66 490.136H1021.62L1020.06 493ZM1025.54 482.888L1022.34 488.856H1026.44L1025.58 482.888H1025.54ZM1034.68 493H1033.24L1035.21 482.84H1031.4L1031.65 481.56H1040.71L1040.45 482.84H1036.65L1034.68 493ZM1050.02 493H1041.91L1044.13 481.56H1052.05L1051.79 482.84H1045.31L1044.63 486.44H1050.34L1050.08 487.72H1044.37L1043.6 491.72H1050.27L1050.02 493Z" fill="#393B3F"/>
</g>
<path d="M1009.12 127V127.875H1010.88V127H1010H1009.12ZM1010 67H1010.88C1010.88 66.5168 1010.48 66.125 1010 66.125V67ZM363 67V66.125C362.517 66.125 362.125 66.5168 362.125 67H363ZM363 112L368.052 103.25H357.948L363 112ZM1010 127H1010.88V67H1010H1009.12V127H1010ZM1010 67V66.125H363V67V67.875H1010V67ZM363 67H362.125V104.125H363H363.875V67H363Z" fill="#393B3F"/>
<path d="M920 215C920 166.399 959.399 127 1008 127V127C1056.6 127 1096 166.399 1096 215V215C1096 263.601 1056.6 303 1008 303V303C959.399 303 920 263.601 920 215V215Z" fill="#27292E"/>
<path d="M963.157 221H961.989V209.56H969.637V210.584H963.157V214.632H968.501V215.656H963.157V221ZM981.004 221H973.068V209.56H980.828V210.584H974.236V214.52H980.124V215.544H974.236V219.976H981.004V221ZM992.644 221H984.708V209.56H992.468V210.584H985.876V214.52H991.764V215.544H985.876V219.976H992.644V221ZM1000.44 221H996.349V209.56H1000.49C1003.69 209.56 1005.47 211.768 1005.47 215.304C1005.47 218.84 1003.64 221 1000.44 221ZM997.517 219.976H1000.44C1003.31 219.976 1004.25 217.832 1004.25 215.304C1004.25 212.76 1003.36 210.584 1000.48 210.584H997.517V219.976ZM1014.2 221H1009.33V209.56H1013.89C1016.15 209.56 1017.51 210.648 1017.51 212.44C1017.51 213.8 1016.73 214.504 1015.7 214.856V214.888C1016.98 215.128 1017.97 216.072 1017.97 217.72C1017.97 219.88 1016.47 221 1014.2 221ZM1010.5 214.472H1014.12C1015.7 214.472 1016.29 213.688 1016.29 212.552C1016.29 211.384 1015.59 210.584 1014.12 210.584H1010.5V214.472ZM1010.5 219.976H1014.25C1016.05 219.976 1016.76 219.048 1016.76 217.72C1016.76 216.376 1015.89 215.496 1014.53 215.496H1010.5V219.976ZM1021.59 221H1020.39L1024.66 209.56H1025.97L1030.27 221H1029.03L1027.87 217.832H1022.74L1021.59 221ZM1025.3 210.664L1023.12 216.792H1027.51L1025.33 210.664H1025.3ZM1037.9 221.208C1034.79 221.208 1032.65 218.76 1032.65 215.288C1032.65 211.832 1034.78 209.352 1037.91 209.352C1040.58 209.352 1042.33 211.064 1042.62 213.208H1041.4C1041.18 211.928 1040.23 210.376 1037.9 210.376C1035.13 210.376 1033.86 212.728 1033.86 215.288C1033.86 217.848 1035.14 220.184 1037.9 220.184C1040.31 220.184 1041.32 218.52 1041.45 216.936H1042.66C1042.39 219.432 1040.62 221.208 1037.9 221.208ZM1055.42 221H1054.06L1049.74 215.096L1047.55 217.384V221H1046.38V209.56H1047.55V216.024L1053.72 209.56H1055.05L1050.49 214.312L1055.42 221Z" fill="white"/>
<path d="M990.833 346H984.407V335.99H985.429V345.104H990.833V346ZM993.676 346.182C992.248 346.182 991.338 345.384 991.338 344.194C991.338 342.654 992.43 342.164 994.278 341.842C995.454 341.632 996.21 341.548 996.21 340.694C996.21 339.966 995.734 339.476 994.586 339.476C993.2 339.476 992.71 339.966 992.64 341.016H991.674C991.744 339.756 992.542 338.678 994.614 338.678C995.93 338.678 997.092 339.238 997.092 340.946V344.516C997.092 345.09 997.176 345.356 997.498 345.356C997.554 345.356 997.61 345.356 997.694 345.342V346C997.54 346.028 997.386 346.056 997.218 346.056C996.616 346.056 996.266 345.818 996.21 344.922H996.182C995.692 345.734 994.838 346.182 993.676 346.182ZM993.788 345.384C995.244 345.384 996.21 344.614 996.21 343.326V341.996C996 342.29 995.244 342.458 994.39 342.598C993.004 342.85 992.29 343.2 992.29 344.11C992.29 344.936 992.752 345.384 993.788 345.384ZM1003.64 343.368V338.86H1004.55V346H1003.64V344.992H1003.61C1003.21 345.58 1002.44 346.168 1001.16 346.168C999.888 346.168 998.824 345.454 998.824 343.872V338.86H999.734V343.676C999.734 344.586 1000.15 345.37 1001.39 345.37C1002.74 345.37 1003.64 344.418 1003.64 343.368ZM1009.62 338.692C1010.9 338.692 1011.96 339.406 1011.96 340.988V346H1011.05V341.184C1011.05 340.274 1010.63 339.49 1009.4 339.49C1008.04 339.49 1007.15 340.442 1007.15 341.492V346H1006.24V338.86H1007.15V339.882H1007.17C1007.58 339.294 1008.35 338.692 1009.62 338.692ZM1016.61 346.182C1014.57 346.182 1013.2 344.67 1013.2 342.43C1013.2 340.204 1014.57 338.692 1016.61 338.692C1018.35 338.692 1019.53 339.854 1019.68 341.366H1018.73C1018.67 340.568 1018.1 339.49 1016.61 339.49C1014.86 339.49 1014.15 340.974 1014.15 342.43C1014.15 343.9 1014.86 345.398 1016.61 345.398C1018.11 345.398 1018.67 344.32 1018.73 343.452H1019.68C1019.58 344.992 1018.35 346.182 1016.61 346.182ZM1024.29 338.692C1025.57 338.692 1026.63 339.406 1026.63 340.988V346H1025.72V341.184C1025.72 340.274 1025.3 339.49 1024.07 339.49C1022.71 339.49 1021.82 340.442 1021.82 341.492V346H1020.91V335.99H1021.82V339.882H1021.84C1022.25 339.294 1023.02 338.692 1024.29 338.692ZM1028.11 347.694V347.092C1028.55 346.924 1028.69 346.672 1028.68 346H1028.11V344.824H1029.28V346C1029.28 346.798 1029.06 347.4 1028.11 347.694ZM957.587 366.182C955.543 366.182 954.171 364.67 954.171 362.43C954.171 360.204 955.543 358.692 957.587 358.692C959.323 358.692 960.499 359.854 960.653 361.366H959.701C959.645 360.568 959.071 359.49 957.587 359.49C955.837 359.49 955.123 360.974 955.123 362.43C955.123 363.9 955.837 365.398 957.587 365.398C959.085 365.398 959.645 364.32 959.701 363.452H960.653C960.555 364.992 959.323 366.182 957.587 366.182ZM963.837 366.182C962.409 366.182 961.499 365.384 961.499 364.194C961.499 362.654 962.591 362.164 964.439 361.842C965.615 361.632 966.371 361.548 966.371 360.694C966.371 359.966 965.895 359.476 964.747 359.476C963.361 359.476 962.871 359.966 962.801 361.016H961.835C961.905 359.756 962.703 358.678 964.775 358.678C966.091 358.678 967.253 359.238 967.253 360.946V364.516C967.253 365.09 967.337 365.356 967.659 365.356C967.715 365.356 967.771 365.356 967.855 365.342V366C967.701 366.028 967.547 366.056 967.379 366.056C966.777 366.056 966.427 365.818 966.371 364.922H966.343C965.853 365.734 964.999 366.182 963.837 366.182ZM963.949 365.384C965.405 365.384 966.371 364.614 966.371 363.326V361.996C966.161 362.29 965.405 362.458 964.551 362.598C963.165 362.85 962.451 363.2 962.451 364.11C962.451 364.936 962.913 365.384 963.949 365.384ZM972.415 358.678C974.165 358.678 975.565 360.078 975.565 362.43C975.565 364.768 974.165 366.168 972.415 366.168C971.169 366.168 970.427 365.552 970.007 364.796H969.979V368.478H969.069V358.86H969.979V360.008H970.007C970.427 359.322 971.169 358.678 972.415 358.678ZM972.317 365.37C973.801 365.37 974.613 364.026 974.613 362.43C974.613 360.82 973.801 359.476 972.317 359.476C970.945 359.476 969.979 360.624 969.979 362.43C969.979 364.222 970.945 365.37 972.317 365.37ZM979.482 358.86V359.658H978.04V364.166C978.04 365.048 978.236 365.258 978.936 365.258C979.16 365.258 979.272 365.244 979.482 365.23V366C979.202 366.042 979.034 366.056 978.81 366.056C977.774 366.056 977.13 365.706 977.13 364.152V359.658H976.08V358.86H977.13V356.48H978.04V358.86H979.482ZM985.422 363.368V358.86H986.332V366H985.422V364.992H985.394C984.988 365.58 984.218 366.168 982.944 366.168C981.67 366.168 980.606 365.454 980.606 363.872V358.86H981.516V363.676C981.516 364.586 981.936 365.37 983.168 365.37C984.526 365.37 985.422 364.418 985.422 363.368ZM990.986 358.692C991.238 358.692 991.434 358.706 991.602 358.734V359.63C991.462 359.602 991.308 359.588 991.168 359.588C989.88 359.588 988.928 360.624 988.928 362.01V366H988.018V358.86H988.928V360.316H988.956C989.32 359.378 989.978 358.692 990.986 358.692ZM998.418 362.108C998.418 362.304 998.418 362.5 998.404 362.612H992.748C992.762 364.054 993.532 365.412 995.212 365.412C996.682 365.412 997.256 364.404 997.396 363.816H998.32C997.97 365.118 996.99 366.196 995.198 366.196C993.014 366.196 991.796 364.6 991.796 362.43C991.796 360.148 993.14 358.678 995.198 358.678C997.256 358.678 998.418 360.12 998.418 362.108ZM992.748 361.814H997.452C997.452 360.54 996.626 359.462 995.156 359.462C993.77 359.462 992.818 360.484 992.748 361.814ZM1004.95 356.704C1004.27 356.704 1004.1 356.914 1004.1 357.796V358.86H1005.51V359.658H1004.1V366H1003.19V359.658H1002.18V358.86H1003.19V357.81C1003.19 356.256 1003.81 355.906 1004.83 355.906C1005.02 355.906 1005.19 355.92 1005.51 355.962V356.732C1005.26 356.718 1005.15 356.704 1004.95 356.704ZM1012.49 362.108C1012.49 362.304 1012.49 362.5 1012.47 362.612H1006.82C1006.83 364.054 1007.6 365.412 1009.28 365.412C1010.75 365.412 1011.32 364.404 1011.46 363.816H1012.39C1012.04 365.118 1011.06 366.196 1009.27 366.196C1007.08 366.196 1005.86 364.6 1005.86 362.43C1005.86 360.148 1007.21 358.678 1009.27 358.678C1011.32 358.678 1012.49 360.12 1012.49 362.108ZM1006.82 361.814H1011.52C1011.52 360.54 1010.69 359.462 1009.22 359.462C1007.84 359.462 1006.89 360.484 1006.82 361.814ZM1020.01 362.108C1020.01 362.304 1020.01 362.5 1019.99 362.612H1014.34C1014.35 364.054 1015.12 365.412 1016.8 365.412C1018.27 365.412 1018.84 364.404 1018.98 363.816H1019.91C1019.56 365.118 1018.58 366.196 1016.79 366.196C1014.6 366.196 1013.38 364.6 1013.38 362.43C1013.38 360.148 1014.73 358.678 1016.79 358.678C1018.84 358.678 1020.01 360.12 1020.01 362.108ZM1014.34 361.814H1019.04C1019.04 360.54 1018.21 359.462 1016.74 359.462C1015.36 359.462 1014.41 360.484 1014.34 361.814ZM1026.48 360.064V355.99H1027.39V366H1026.48V364.838H1026.45C1026.04 365.538 1025.29 366.182 1024.04 366.182C1022.3 366.182 1020.9 364.782 1020.9 362.43C1020.9 360.092 1022.3 358.692 1024.04 358.692C1025.29 358.692 1026.03 359.308 1026.45 360.064H1026.48ZM1024.15 365.384C1025.52 365.384 1026.48 364.236 1026.48 362.43C1026.48 360.638 1025.52 359.49 1024.15 359.49C1022.67 359.49 1021.86 360.834 1021.86 362.43C1021.86 364.04 1022.67 365.384 1024.15 365.384ZM1032.42 358.678C1034.17 358.678 1035.57 360.078 1035.57 362.43C1035.57 364.768 1034.17 366.168 1032.42 366.168C1031.17 366.168 1030.43 365.552 1030.01 364.782H1029.98V366H1029.07V355.99H1029.98V360.008H1030.01C1030.43 359.322 1031.17 358.678 1032.42 358.678ZM1032.32 365.37C1033.81 365.37 1034.62 364.026 1034.62 362.43C1034.62 360.82 1033.81 359.462 1032.32 359.462C1030.95 359.462 1029.98 360.624 1029.98 362.43C1029.98 364.222 1030.95 365.37 1032.32 365.37ZM1038.83 366.182C1037.4 366.182 1036.49 365.384 1036.49 364.194C1036.49 362.654 1037.58 362.164 1039.43 361.842C1040.61 361.632 1041.36 361.548 1041.36 360.694C1041.36 359.966 1040.89 359.476 1039.74 359.476C1038.35 359.476 1037.86 359.966 1037.79 361.016H1036.83C1036.9 359.756 1037.69 358.678 1039.77 358.678C1041.08 358.678 1042.24 359.238 1042.24 360.946V364.516C1042.24 365.09 1042.33 365.356 1042.65 365.356C1042.71 365.356 1042.76 365.356 1042.85 365.342V366C1042.69 366.028 1042.54 366.056 1042.37 366.056C1041.77 366.056 1041.42 365.818 1041.36 364.922H1041.33C1040.84 365.734 1039.99 366.182 1038.83 366.182ZM1038.94 365.384C1040.4 365.384 1041.36 364.614 1041.36 363.326V361.996C1041.15 362.29 1040.4 362.458 1039.54 362.598C1038.16 362.85 1037.44 363.2 1037.44 364.11C1037.44 364.936 1037.9 365.384 1038.94 365.384ZM1047.01 366.182C1044.97 366.182 1043.6 364.67 1043.6 362.43C1043.6 360.204 1044.97 358.692 1047.01 358.692C1048.75 358.692 1049.93 359.854 1050.08 361.366H1049.13C1049.07 360.568 1048.5 359.49 1047.01 359.49C1045.26 359.49 1044.55 360.974 1044.55 362.43C1044.55 363.9 1045.26 365.398 1047.01 365.398C1048.51 365.398 1049.07 364.32 1049.13 363.452H1050.08C1049.98 364.992 1048.75 366.182 1047.01 366.182ZM1057.23 366H1056.15L1053.45 362.052L1052.21 363.2V366H1051.3V355.99H1052.21V362.22L1055.76 358.86H1056.88L1054.06 361.478L1057.23 366ZM1057.73 367.694V367.092C1058.18 366.924 1058.32 366.672 1058.3 366H1057.73V364.824H1058.9V366C1058.9 366.798 1058.68 367.4 1057.73 367.694ZM975.284 386H974.206L971.504 382.052L970.272 383.2V386H969.362V375.99H970.272V382.22L973.814 378.86H974.934L972.12 381.478L975.284 386ZM981.827 382.108C981.827 382.304 981.827 382.5 981.813 382.612H976.157C976.171 384.054 976.941 385.412 978.621 385.412C980.091 385.412 980.665 384.404 980.805 383.816H981.729C981.379 385.118 980.399 386.196 978.607 386.196C976.423 386.196 975.205 384.6 975.205 382.43C975.205 380.148 976.549 378.678 978.607 378.678C980.665 378.678 981.827 380.12 981.827 382.108ZM976.157 381.814H980.861C980.861 380.54 980.035 379.462 978.565 379.462C977.179 379.462 976.227 380.484 976.157 381.814ZM989.347 382.108C989.347 382.304 989.347 382.5 989.333 382.612H983.677C983.691 384.054 984.461 385.412 986.141 385.412C987.611 385.412 988.185 384.404 988.325 383.816H989.249C988.899 385.118 987.919 386.196 986.127 386.196C983.943 386.196 982.725 384.6 982.725 382.43C982.725 380.148 984.069 378.678 986.127 378.678C988.185 378.678 989.347 380.12 989.347 382.108ZM983.677 381.814H988.381C988.381 380.54 987.555 379.462 986.085 379.462C984.699 379.462 983.747 380.484 983.677 381.814ZM993.968 378.678C995.718 378.678 997.118 380.078 997.118 382.43C997.118 384.768 995.718 386.168 993.968 386.168C992.722 386.168 991.98 385.552 991.56 384.796H991.532V388.478H990.622V378.86H991.532V380.008H991.56C991.98 379.322 992.722 378.678 993.968 378.678ZM993.87 385.37C995.354 385.37 996.166 384.026 996.166 382.43C996.166 380.82 995.354 379.476 993.87 379.476C992.498 379.476 991.532 380.624 991.532 382.43C991.532 384.222 992.498 385.37 993.87 385.37ZM1002.51 377.432H1001.34V376.256H1002.51V377.432ZM1002.39 386H1001.48V378.86H1002.39V386ZM1006.81 378.86V379.658H1005.36V384.166C1005.36 385.048 1005.56 385.258 1006.26 385.258C1006.48 385.258 1006.6 385.244 1006.81 385.23V386C1006.53 386.042 1006.36 386.056 1006.13 386.056C1005.1 386.056 1004.45 385.706 1004.45 384.152V379.658H1003.4V378.86H1004.45V376.48H1005.36V378.86H1006.81ZM1014.07 382.108C1014.07 382.304 1014.07 382.5 1014.05 382.612H1008.4C1008.41 384.054 1009.18 385.412 1010.86 385.412C1012.33 385.412 1012.9 384.404 1013.04 383.816H1013.97C1013.62 385.118 1012.64 386.196 1010.85 386.196C1008.66 386.196 1007.44 384.6 1007.44 382.43C1007.44 380.148 1008.79 378.678 1010.85 378.678C1012.9 378.678 1014.07 380.12 1014.07 382.108ZM1008.4 381.814H1013.1C1013.1 380.54 1012.27 379.462 1010.8 379.462C1009.42 379.462 1008.47 380.484 1008.4 381.814ZM1018.31 378.692C1018.56 378.692 1018.76 378.706 1018.92 378.734V379.63C1018.78 379.602 1018.63 379.588 1018.49 379.588C1017.2 379.588 1016.25 380.624 1016.25 382.01V386H1015.34V378.86H1016.25V380.316H1016.28C1016.64 379.378 1017.3 378.692 1018.31 378.692ZM1021.55 386.182C1020.12 386.182 1019.21 385.384 1019.21 384.194C1019.21 382.654 1020.31 382.164 1022.15 381.842C1023.33 381.632 1024.09 381.548 1024.09 380.694C1024.09 379.966 1023.61 379.476 1022.46 379.476C1021.08 379.476 1020.59 379.966 1020.52 381.016H1019.55C1019.62 379.756 1020.42 378.678 1022.49 378.678C1023.81 378.678 1024.97 379.238 1024.97 380.946V384.516C1024.97 385.09 1025.05 385.356 1025.37 385.356C1025.43 385.356 1025.49 385.356 1025.57 385.342V386C1025.42 386.028 1025.26 386.056 1025.09 386.056C1024.49 386.056 1024.14 385.818 1024.09 384.922H1024.06C1023.57 385.734 1022.71 386.182 1021.55 386.182ZM1021.66 385.384C1023.12 385.384 1024.09 384.614 1024.09 383.326V381.996C1023.88 382.29 1023.12 382.458 1022.27 382.598C1020.88 382.85 1020.17 383.2 1020.17 384.11C1020.17 384.936 1020.63 385.384 1021.66 385.384ZM1029.41 378.86V379.658H1027.96V384.166C1027.96 385.048 1028.16 385.258 1028.86 385.258C1029.08 385.258 1029.2 385.244 1029.41 385.23V386C1029.13 386.042 1028.96 386.056 1028.73 386.056C1027.7 386.056 1027.05 385.706 1027.05 384.152V379.658H1026V378.86H1027.05V376.48H1027.96V378.86H1029.41ZM1031.62 377.432H1030.45V376.256H1031.62V377.432ZM1031.5 386H1030.59V378.86H1031.5V386ZM1036.56 378.692C1037.83 378.692 1038.9 379.406 1038.9 380.988V386H1037.99V381.184C1037.99 380.274 1037.57 379.49 1036.33 379.49C1034.98 379.49 1034.08 380.442 1034.08 381.492V386H1033.17V378.86H1034.08V379.882H1034.11C1034.51 379.294 1035.28 378.692 1036.56 378.692ZM1045.75 379.98V378.86H1046.66V385.552C1046.66 387.582 1045.4 388.562 1043.44 388.562C1041.5 388.562 1040.48 387.624 1040.37 386.378H1041.32C1041.46 387.148 1042.06 387.764 1043.45 387.764C1044.89 387.764 1045.75 387.134 1045.75 385.678V384.348H1045.72C1045.3 385.09 1044.51 385.664 1043.31 385.664C1041.6 385.664 1040.17 384.544 1040.17 382.164C1040.17 379.812 1041.6 378.692 1043.31 378.692C1044.51 378.692 1045.3 379.266 1045.72 379.98H1045.75ZM1043.44 384.866C1044.75 384.866 1045.75 383.998 1045.75 382.164C1045.75 380.358 1044.75 379.49 1043.44 379.49C1041.97 379.49 1041.13 380.554 1041.13 382.164C1041.13 383.802 1041.97 384.866 1043.44 384.866Z" fill="#6F7074"/>
<path d="M880 214.125H879.125V215.875H880V215V214.125ZM912 215L903.25 209.948V220.052L912 215ZM880 215V215.875H904.125V215V214.125H880V215Z" fill="#393B3F"/>
<path d="M704 215C704 166.399 743.399 127 792 127V127C840.601 127 880 166.399 880 215V215C880 263.601 840.601 303 792 303V303C743.399 303 704 263.601 704 215V215Z" fill="#27292E"/>
<path d="M763.82 221H759.724V209.56H763.868C767.068 209.56 768.844 211.768 768.844 215.304C768.844 218.84 767.02 221 763.82 221ZM760.892 219.976H763.82C766.684 219.976 767.628 217.832 767.628 215.304C767.628 212.76 766.732 210.584 763.852 210.584H760.892V219.976ZM780.644 221H772.708V209.56H780.468V210.584H773.876V214.52H779.764V215.544H773.876V219.976H780.644V221ZM788.461 221.208C785.709 221.208 783.725 219.784 783.565 217.208H784.781C784.941 218.984 786.029 220.184 788.413 220.184C790.525 220.184 791.245 219.176 791.245 217.912C791.261 216.216 790.077 215.928 787.725 215.4C785.853 214.968 784.045 214.392 784.045 212.296C784.045 210.472 785.501 209.352 787.853 209.352C790.333 209.352 791.901 210.616 792.077 212.856H790.861C790.669 211.272 789.789 210.376 787.853 210.376C786.173 210.376 785.261 211.064 785.261 212.248C785.261 213.784 786.621 214.104 788.301 214.472C790.653 214.984 792.461 215.56 792.461 217.88C792.461 219.736 791.181 221.208 788.461 221.208ZM797.376 221H796.208V209.56H797.376V221ZM806.41 221.208C803.05 221.208 801.242 218.696 801.242 215.288C801.242 211.896 803.306 209.352 806.554 209.352C809.29 209.352 810.858 210.792 811.258 212.952H810.058C809.722 211.288 808.394 210.376 806.554 210.376C803.69 210.376 802.458 212.904 802.458 215.288C802.458 217.688 803.45 220.184 806.41 220.184C808.634 220.184 810.282 218.568 810.282 216.168H806.49V215.128H811.45V221H810.65L810.298 218.968H810.266C809.546 220.312 808.362 221.208 806.41 221.208ZM816.626 221H815.458V209.56H816.882L823.074 219.352H823.106V209.56H824.274V221H822.85L816.658 211.208H816.626V221Z" fill="white"/>
<path d="M749.138 346H748.13V336.886H744.728V335.99H752.554V336.886H749.138V346ZM756.707 343.368V338.86H757.617V346H756.707V344.992H756.679C756.273 345.58 755.503 346.168 754.229 346.168C752.955 346.168 751.891 345.454 751.891 343.872V338.86H752.801V343.676C752.801 344.586 753.221 345.37 754.453 345.37C755.811 345.37 756.707 344.418 756.707 343.368ZM762.271 338.692C762.523 338.692 762.719 338.706 762.887 338.734V339.63C762.747 339.602 762.593 339.588 762.453 339.588C761.165 339.588 760.213 340.624 760.213 342.01V346H759.303V338.86H760.213V340.316H760.241C760.605 339.378 761.263 338.692 762.271 338.692ZM767.244 338.692C768.518 338.692 769.582 339.406 769.582 340.988V346H768.672V341.184C768.672 340.274 768.252 339.49 767.02 339.49C765.662 339.49 764.766 340.442 764.766 341.492V346H763.856V338.86H764.766V339.882H764.794C765.2 339.294 765.97 338.692 767.244 338.692ZM777.62 338.678C779.37 338.678 780.77 340.078 780.77 342.43C780.77 344.768 779.37 346.168 777.62 346.168C776.374 346.168 775.632 345.552 775.212 344.796H775.184V348.478H774.274V338.86H775.184V340.008H775.212C775.632 339.322 776.374 338.678 777.62 338.678ZM777.522 345.37C779.006 345.37 779.818 344.026 779.818 342.43C779.818 340.82 779.006 339.476 777.522 339.476C776.15 339.476 775.184 340.624 775.184 342.43C775.184 344.222 776.15 345.37 777.522 345.37ZM785.035 338.692C785.287 338.692 785.483 338.706 785.651 338.734V339.63C785.511 339.602 785.357 339.588 785.217 339.588C783.929 339.588 782.977 340.624 782.977 342.01V346H782.067V338.86H782.977V340.316H783.005C783.369 339.378 784.027 338.692 785.035 338.692ZM789.261 346.196C787.119 346.196 785.831 344.656 785.831 342.444C785.831 340.218 787.119 338.678 789.261 338.678C791.403 338.678 792.691 340.218 792.691 342.444C792.691 344.656 791.403 346.196 789.261 346.196ZM789.261 345.398C790.927 345.398 791.739 344.082 791.739 342.444C791.739 340.792 790.927 339.476 789.261 339.476C787.595 339.476 786.783 340.792 786.783 342.444C786.783 344.082 787.595 345.398 789.261 345.398ZM797.321 338.678C799.071 338.678 800.471 340.078 800.471 342.43C800.471 344.768 799.071 346.168 797.321 346.168C796.075 346.168 795.333 345.552 794.913 344.796H794.885V348.478H793.975V338.86H794.885V340.008H794.913C795.333 339.322 796.075 338.678 797.321 338.678ZM797.223 345.37C798.707 345.37 799.519 344.026 799.519 342.43C799.519 340.82 798.707 339.476 797.223 339.476C795.851 339.476 794.885 340.624 794.885 342.43C794.885 344.222 795.851 345.37 797.223 345.37ZM804.806 346.196C802.664 346.196 801.376 344.656 801.376 342.444C801.376 340.218 802.664 338.678 804.806 338.678C806.948 338.678 808.236 340.218 808.236 342.444C808.236 344.656 806.948 346.196 804.806 346.196ZM804.806 345.398C806.472 345.398 807.284 344.082 807.284 342.444C807.284 340.792 806.472 339.476 804.806 339.476C803.14 339.476 802.328 340.792 802.328 342.444C802.328 344.082 803.14 345.398 804.806 345.398ZM812.152 346.182C810.15 346.182 809.058 345.09 809.016 343.662H809.968C810.024 344.642 810.668 345.384 812.166 345.384C813.524 345.384 813.986 344.754 813.986 344.054C813.986 343.004 812.922 342.892 811.928 342.654C810.612 342.318 809.282 341.996 809.282 340.61C809.282 339.448 810.206 338.692 811.816 338.692C813.678 338.692 814.546 339.686 814.672 340.862H813.72C813.594 340.232 813.216 339.49 811.83 339.49C810.808 339.49 810.234 339.882 810.234 340.554C810.234 341.45 811.2 341.576 812.278 341.842C813.622 342.164 814.952 342.542 814.952 344.026C814.952 345.328 813.916 346.182 812.152 346.182ZM817.159 337.432H815.983V336.256H817.159V337.432ZM817.033 346H816.123V338.86H817.033V346ZM821.451 338.86V339.658H820.009V344.166C820.009 345.048 820.205 345.258 820.905 345.258C821.129 345.258 821.241 345.244 821.451 345.23V346C821.171 346.042 821.003 346.056 820.779 346.056C819.743 346.056 819.099 345.706 819.099 344.152V339.658H818.049V338.86H819.099V336.48H820.009V338.86H821.451ZM823.667 337.432H822.491V336.256H823.667V337.432ZM823.541 346H822.631V338.86H823.541V346ZM828.253 346.196C826.111 346.196 824.823 344.656 824.823 342.444C824.823 340.218 826.111 338.678 828.253 338.678C830.395 338.678 831.683 340.218 831.683 342.444C831.683 344.656 830.395 346.196 828.253 346.196ZM828.253 345.398C829.919 345.398 830.731 344.082 830.731 342.444C830.731 340.792 829.919 339.476 828.253 339.476C826.587 339.476 825.775 340.792 825.775 342.444C825.775 344.082 826.587 345.398 828.253 345.398ZM836.355 338.692C837.629 338.692 838.693 339.406 838.693 340.988V346H837.783V341.184C837.783 340.274 837.363 339.49 836.131 339.49C834.773 339.49 833.877 340.442 833.877 341.492V346H832.967V338.86H833.877V339.882H833.905C834.311 339.294 835.081 338.692 836.355 338.692ZM735.237 357.432H734.061V356.256H735.237V357.432ZM735.111 366H734.201V358.86H735.111V366ZM740.173 358.692C741.447 358.692 742.511 359.406 742.511 360.988V366H741.601V361.184C741.601 360.274 741.181 359.49 739.949 359.49C738.591 359.49 737.695 360.442 737.695 361.492V366H736.785V358.86H737.695V359.882H737.723C738.129 359.294 738.899 358.692 740.173 358.692ZM746.816 358.86V359.658H745.374V364.166C745.374 365.048 745.57 365.258 746.27 365.258C746.494 365.258 746.606 365.244 746.816 365.23V366C746.536 366.042 746.368 366.056 746.144 366.056C745.108 366.056 744.464 365.706 744.464 364.152V359.658H743.414V358.86H744.464V356.48H745.374V358.86H746.816ZM750.87 366.196C748.728 366.196 747.44 364.656 747.44 362.444C747.44 360.218 748.728 358.678 750.87 358.678C753.012 358.678 754.3 360.218 754.3 362.444C754.3 364.656 753.012 366.196 750.87 366.196ZM750.87 365.398C752.536 365.398 753.348 364.082 753.348 362.444C753.348 360.792 752.536 359.476 750.87 359.476C749.204 359.476 748.392 360.792 748.392 362.444C748.392 364.082 749.204 365.398 750.87 365.398ZM761.279 366.182C759.277 366.182 758.185 365.09 758.143 363.662H759.095C759.151 364.642 759.795 365.384 761.293 365.384C762.651 365.384 763.113 364.754 763.113 364.054C763.113 363.004 762.049 362.892 761.055 362.654C759.739 362.318 758.409 361.996 758.409 360.61C758.409 359.448 759.333 358.692 760.943 358.692C762.805 358.692 763.673 359.686 763.799 360.862H762.847C762.721 360.232 762.343 359.49 760.957 359.49C759.935 359.49 759.361 359.882 759.361 360.554C759.361 361.45 760.327 361.576 761.405 361.842C762.749 362.164 764.079 362.542 764.079 364.026C764.079 365.328 763.043 366.182 761.279 366.182ZM768.274 366.182C766.23 366.182 764.858 364.67 764.858 362.43C764.858 360.204 766.23 358.692 768.274 358.692C770.01 358.692 771.186 359.854 771.34 361.366H770.388C770.332 360.568 769.758 359.49 768.274 359.49C766.524 359.49 765.81 360.974 765.81 362.43C765.81 363.9 766.524 365.398 768.274 365.398C769.772 365.398 770.332 364.32 770.388 363.452H771.34C771.242 364.992 770.01 366.182 768.274 366.182ZM774.525 366.182C773.097 366.182 772.187 365.384 772.187 364.194C772.187 362.654 773.279 362.164 775.127 361.842C776.303 361.632 777.059 361.548 777.059 360.694C777.059 359.966 776.583 359.476 775.435 359.476C774.049 359.476 773.559 359.966 773.489 361.016H772.523C772.593 359.756 773.391 358.678 775.463 358.678C776.779 358.678 777.941 359.238 777.941 360.946V364.516C777.941 365.09 778.025 365.356 778.347 365.356C778.403 365.356 778.459 365.356 778.543 365.342V366C778.389 366.028 778.235 366.056 778.067 366.056C777.465 366.056 777.115 365.818 777.059 364.922H777.031C776.541 365.734 775.687 366.182 774.525 366.182ZM774.637 365.384C776.093 365.384 777.059 364.614 777.059 363.326V361.996C776.849 362.29 776.093 362.458 775.239 362.598C773.853 362.85 773.139 363.2 773.139 364.11C773.139 364.936 773.601 365.384 774.637 365.384ZM780.666 366H779.756V355.99H780.666V366ZM784.3 366.182C782.872 366.182 781.962 365.384 781.962 364.194C781.962 362.654 783.054 362.164 784.902 361.842C786.078 361.632 786.834 361.548 786.834 360.694C786.834 359.966 786.358 359.476 785.21 359.476C783.824 359.476 783.334 359.966 783.264 361.016H782.298C782.368 359.756 783.166 358.678 785.238 358.678C786.554 358.678 787.716 359.238 787.716 360.946V364.516C787.716 365.09 787.8 365.356 788.122 365.356C788.178 365.356 788.234 365.356 788.318 365.342V366C788.164 366.028 788.01 366.056 787.842 366.056C787.24 366.056 786.89 365.818 786.834 364.922H786.806C786.316 365.734 785.462 366.182 784.3 366.182ZM784.412 365.384C785.868 365.384 786.834 364.614 786.834 363.326V361.996C786.624 362.29 785.868 362.458 785.014 362.598C783.628 362.85 782.914 363.2 782.914 364.11C782.914 364.936 783.376 365.384 784.412 365.384ZM792.877 358.678C794.627 358.678 796.027 360.078 796.027 362.43C796.027 364.768 794.627 366.168 792.877 366.168C791.631 366.168 790.889 365.552 790.469 364.782H790.441V366H789.531V355.99H790.441V360.008H790.469C790.889 359.322 791.631 358.678 792.877 358.678ZM792.779 365.37C794.263 365.37 795.075 364.026 795.075 362.43C795.075 360.82 794.263 359.462 792.779 359.462C791.407 359.462 790.441 360.624 790.441 362.43C790.441 364.222 791.407 365.37 792.779 365.37ZM798.234 366H797.324V355.99H798.234V366ZM806.152 362.108C806.152 362.304 806.152 362.5 806.138 362.612H800.482C800.496 364.054 801.266 365.412 802.946 365.412C804.416 365.412 804.99 364.404 805.13 363.816H806.054C805.704 365.118 804.724 366.196 802.932 366.196C800.748 366.196 799.53 364.6 799.53 362.43C799.53 360.148 800.874 358.678 802.932 358.678C804.99 358.678 806.152 360.12 806.152 362.108ZM800.482 361.814H805.186C805.186 360.54 804.36 359.462 802.89 359.462C801.504 359.462 800.552 360.484 800.482 361.814ZM807.041 367.694V367.092C807.489 366.924 807.629 366.672 807.615 366H807.041V364.824H808.217V366C808.217 366.798 807.993 367.4 807.041 367.694ZM817.192 363.368V358.86H818.102V366H817.192V364.992H817.164C816.758 365.58 815.988 366.168 814.714 366.168C813.44 366.168 812.376 365.454 812.376 363.872V358.86H813.286V363.676C813.286 364.586 813.706 365.37 814.938 365.37C816.296 365.37 817.192 364.418 817.192 363.368ZM822.419 366.182C820.417 366.182 819.325 365.09 819.283 363.662H820.235C820.291 364.642 820.935 365.384 822.433 365.384C823.791 365.384 824.253 364.754 824.253 364.054C824.253 363.004 823.189 362.892 822.195 362.654C820.879 362.318 819.549 361.996 819.549 360.61C819.549 359.448 820.473 358.692 822.083 358.692C823.945 358.692 824.813 359.686 824.939 360.862H823.987C823.861 360.232 823.483 359.49 822.097 359.49C821.075 359.49 820.501 359.882 820.501 360.554C820.501 361.45 821.467 361.576 822.545 361.842C823.889 362.164 825.219 362.542 825.219 364.026C825.219 365.328 824.183 366.182 822.419 366.182ZM828.351 366.182C826.923 366.182 826.013 365.384 826.013 364.194C826.013 362.654 827.105 362.164 828.953 361.842C830.129 361.632 830.885 361.548 830.885 360.694C830.885 359.966 830.409 359.476 829.261 359.476C827.875 359.476 827.385 359.966 827.315 361.016H826.349C826.419 359.756 827.217 358.678 829.289 358.678C830.605 358.678 831.767 359.238 831.767 360.946V364.516C831.767 365.09 831.851 365.356 832.173 365.356C832.229 365.356 832.285 365.356 832.369 365.342V366C832.215 366.028 832.061 366.056 831.893 366.056C831.291 366.056 830.941 365.818 830.885 364.922H830.857C830.367 365.734 829.513 366.182 828.351 366.182ZM828.463 365.384C829.919 365.384 830.885 364.614 830.885 363.326V361.996C830.675 362.29 829.919 362.458 829.065 362.598C827.679 362.85 826.965 363.2 826.965 364.11C826.965 364.936 827.427 365.384 828.463 365.384ZM836.928 358.678C838.678 358.678 840.078 360.078 840.078 362.43C840.078 364.768 838.678 366.168 836.928 366.168C835.682 366.168 834.94 365.552 834.52 364.782H834.492V366H833.582V355.99H834.492V360.008H834.52C834.94 359.322 835.682 358.678 836.928 358.678ZM836.83 365.37C838.314 365.37 839.126 364.026 839.126 362.43C839.126 360.82 838.314 359.462 836.83 359.462C835.458 359.462 834.492 360.624 834.492 362.43C834.492 364.222 835.458 365.37 836.83 365.37ZM842.285 366H841.375V355.99H842.285V366ZM850.203 362.108C850.203 362.304 850.203 362.5 850.189 362.612H844.533C844.547 364.054 845.317 365.412 846.997 365.412C848.467 365.412 849.041 364.404 849.181 363.816H850.105C849.755 365.118 848.775 366.196 846.983 366.196C844.799 366.196 843.581 364.6 843.581 362.43C843.581 360.148 844.925 358.678 846.983 358.678C849.041 358.678 850.203 360.12 850.203 362.108ZM844.533 361.814H849.237C849.237 360.54 848.411 359.462 846.941 359.462C845.555 359.462 844.603 360.484 844.533 361.814ZM753.501 383.368V378.86H754.411V386H753.501V384.992H753.473C753.067 385.58 752.297 386.168 751.023 386.168C749.749 386.168 748.685 385.454 748.685 383.872V378.86H749.595V383.676C749.595 384.586 750.015 385.37 751.247 385.37C752.605 385.37 753.501 384.418 753.501 383.368ZM758.729 386.182C756.727 386.182 755.635 385.09 755.593 383.662H756.545C756.601 384.642 757.245 385.384 758.743 385.384C760.101 385.384 760.563 384.754 760.563 384.054C760.563 383.004 759.499 382.892 758.505 382.654C757.189 382.318 755.859 381.996 755.859 380.61C755.859 379.448 756.783 378.692 758.393 378.692C760.255 378.692 761.123 379.686 761.249 380.862H760.297C760.171 380.232 759.793 379.49 758.407 379.49C757.385 379.49 756.811 379.882 756.811 380.554C756.811 381.45 757.777 381.576 758.855 381.842C760.199 382.164 761.529 382.542 761.529 384.026C761.529 385.328 760.493 386.182 758.729 386.182ZM768.944 382.108C768.944 382.304 768.944 382.5 768.93 382.612H763.274C763.288 384.054 764.058 385.412 765.738 385.412C767.208 385.412 767.782 384.404 767.922 383.816H768.846C768.496 385.118 767.516 386.196 765.724 386.196C763.54 386.196 762.322 384.6 762.322 382.43C762.322 380.148 763.666 378.678 765.724 378.678C767.782 378.678 768.944 380.12 768.944 382.108ZM763.274 381.814H767.978C767.978 380.54 767.152 379.462 765.682 379.462C764.296 379.462 763.344 380.484 763.274 381.814ZM773.188 378.692C773.44 378.692 773.636 378.706 773.804 378.734V379.63C773.664 379.602 773.51 379.588 773.37 379.588C772.082 379.588 771.13 380.624 771.13 382.01V386H770.22V378.86H771.13V380.316H771.158C771.522 379.378 772.18 378.692 773.188 378.692ZM779.865 386H778.857L776.589 378.86H777.597L779.375 384.964H779.403L781.069 378.86H782.091L783.757 384.964H783.785L785.577 378.86H786.557L784.275 386H783.253L781.573 379.966H781.545L779.865 386ZM790.443 386.196C788.301 386.196 787.013 384.656 787.013 382.444C787.013 380.218 788.301 378.678 790.443 378.678C792.585 378.678 793.873 380.218 793.873 382.444C793.873 384.656 792.585 386.196 790.443 386.196ZM790.443 385.398C792.109 385.398 792.921 384.082 792.921 382.444C792.921 380.792 792.109 379.476 790.443 379.476C788.777 379.476 787.965 380.792 787.965 382.444C787.965 384.082 788.777 385.398 790.443 385.398ZM798.125 378.692C798.377 378.692 798.573 378.706 798.741 378.734V379.63C798.601 379.602 798.447 379.588 798.307 379.588C797.019 379.588 796.067 380.624 796.067 382.01V386H795.157V378.86H796.067V380.316H796.095C796.459 379.378 797.117 378.692 798.125 378.692ZM805.632 386H804.554L801.852 382.052L800.62 383.2V386H799.71V375.99H800.62V382.22L804.162 378.86H805.282L802.468 381.478L805.632 386ZM806.72 378.86V377.81C806.72 376.256 807.336 375.906 808.358 375.906C808.554 375.906 808.722 375.92 809.044 375.962V376.732C808.792 376.718 808.68 376.704 808.484 376.704C807.798 376.704 807.63 376.914 807.63 377.796V378.86H809.044V379.658H807.63V386H806.72V379.658H805.712V378.86H806.72ZM810.01 386V375.99H810.92V386H810.01ZM815.641 386.196C813.499 386.196 812.211 384.656 812.211 382.444C812.211 380.218 813.499 378.678 815.641 378.678C817.783 378.678 819.071 380.218 819.071 382.444C819.071 384.656 817.783 386.196 815.641 386.196ZM815.641 385.398C817.307 385.398 818.119 384.082 818.119 382.444C818.119 380.792 817.307 379.476 815.641 379.476C813.975 379.476 813.163 380.792 813.163 382.444C813.163 384.082 813.975 385.398 815.641 385.398ZM822.809 386H821.801L819.533 378.86H820.541L822.319 384.964H822.347L824.013 378.86H825.035L826.701 384.964H826.729L828.521 378.86H829.501L827.219 386H826.197L824.517 379.966H824.489L822.809 386ZM832.967 386.182C830.965 386.182 829.873 385.09 829.831 383.662H830.783C830.839 384.642 831.483 385.384 832.981 385.384C834.339 385.384 834.801 384.754 834.801 384.054C834.801 383.004 833.737 382.892 832.743 382.654C831.427 382.318 830.097 381.996 830.097 380.61C830.097 379.448 831.021 378.692 832.631 378.692C834.493 378.692 835.361 379.686 835.487 380.862H834.535C834.409 380.232 834.031 379.49 832.645 379.49C831.623 379.49 831.049 379.882 831.049 380.554C831.049 381.45 832.015 381.576 833.093 381.842C834.437 382.164 835.767 382.542 835.767 384.026C835.767 385.328 834.731 386.182 832.967 386.182Z" fill="#6F7074"/>
<path d="M664 214.125H663.125V215.875H664V215V214.125ZM696 215L687.25 209.948V220.052L696 215ZM664 215V215.875H688.125V215V214.125H664V215Z" fill="#393B3F"/>
<path d="M488 215C488 166.399 527.399 127 576 127V127C624.601 127 664 166.399 664 215V215C664 263.601 624.601 303 576 303V303C527.399 303 488 263.601 488 215V215Z" fill="#27292E"/>
<path d="M514.072 221H512.904V209.56H520.552V210.584H514.072V214.632H519.416V215.656H514.072V221ZM528.503 221.208C525.191 221.208 522.999 218.712 522.999 215.272C522.999 211.832 525.191 209.352 528.503 209.352C531.799 209.352 533.991 211.832 533.991 215.272C533.991 218.712 531.799 221.208 528.503 221.208ZM528.503 220.184C531.319 220.184 532.775 217.976 532.775 215.272C532.775 212.568 531.319 210.376 528.503 210.376C525.671 210.376 524.215 212.568 524.215 215.272C524.215 217.976 525.671 220.184 528.503 220.184ZM542.065 221.208C539.073 221.208 537.761 219.576 537.761 217.144V209.56H538.929V217.144C538.929 219.192 539.953 220.184 542.065 220.184C544.177 220.184 545.201 219.192 545.201 217.144V209.56H546.369V217.144C546.369 219.576 545.057 221.208 542.065 221.208ZM551.884 221H550.716V209.56H552.14L558.332 219.352H558.364V209.56H559.532V221H558.108L551.916 211.208H551.884V221ZM568.062 221H563.966V209.56H568.11C571.31 209.56 573.086 211.768 573.086 215.304C573.086 218.84 571.262 221 568.062 221ZM565.134 219.976H568.062C570.926 219.976 571.87 217.832 571.87 215.304C571.87 212.76 570.974 210.584 568.094 210.584H565.134V219.976ZM576.688 221H575.488L579.76 209.56H581.072L585.376 221H584.128L582.976 217.832H577.84L576.688 221ZM580.4 210.664L578.224 216.792H582.608L580.432 210.664H580.4ZM591.218 221H590.066V210.584H586.178V209.56H595.122V210.584H591.218V221ZM599.728 221H598.56V209.56H599.728V221ZM609.082 221.208C605.77 221.208 603.578 218.712 603.578 215.272C603.578 211.832 605.77 209.352 609.082 209.352C612.378 209.352 614.57 211.832 614.57 215.272C614.57 218.712 612.378 221.208 609.082 221.208ZM609.082 220.184C611.898 220.184 613.354 217.976 613.354 215.272C613.354 212.568 611.898 210.376 609.082 210.376C606.25 210.376 604.794 212.568 604.794 215.272C604.794 217.976 606.25 220.184 609.082 220.184ZM619.587 221H618.419V209.56H619.843L626.035 219.352H626.067V209.56H627.235V221H625.811L619.619 211.208H619.587V221ZM635.781 221.208C633.029 221.208 631.045 219.784 630.885 217.208H632.101C632.261 218.984 633.349 220.184 635.733 220.184C637.845 220.184 638.565 219.176 638.565 217.912C638.581 216.216 637.397 215.928 635.045 215.4C633.173 214.968 631.365 214.392 631.365 212.296C631.365 210.472 632.821 209.352 635.173 209.352C637.653 209.352 639.221 210.616 639.397 212.856H638.181C637.989 211.272 637.109 210.376 635.173 210.376C633.493 210.376 632.581 211.064 632.581 212.248C632.581 213.784 633.941 214.104 635.621 214.472C637.973 214.984 639.781 215.56 639.781 217.88C639.781 219.736 638.501 221.208 635.781 221.208Z" fill="white"/>
<path d="M524.734 346.182C521.794 346.182 520.212 343.984 520.212 341.002C520.212 338.034 522.018 335.808 524.86 335.808C527.254 335.808 528.626 337.068 528.976 338.958H527.926C527.632 337.502 526.47 336.704 524.86 336.704C522.354 336.704 521.276 338.916 521.276 341.002C521.276 343.102 522.144 345.286 524.734 345.286C526.68 345.286 528.122 343.872 528.122 341.772H524.804V340.862H529.144V346H528.444L528.136 344.222H528.108C527.478 345.398 526.442 346.182 524.734 346.182ZM533.645 338.692C533.897 338.692 534.093 338.706 534.261 338.734V339.63C534.121 339.602 533.967 339.588 533.827 339.588C532.539 339.588 531.587 340.624 531.587 342.01V346H530.677V338.86H531.587V340.316H531.615C531.979 339.378 532.637 338.692 533.645 338.692ZM537.871 346.196C535.729 346.196 534.441 344.656 534.441 342.444C534.441 340.218 535.729 338.678 537.871 338.678C540.013 338.678 541.301 340.218 541.301 342.444C541.301 344.656 540.013 346.196 537.871 346.196ZM537.871 345.398C539.537 345.398 540.349 344.082 540.349 342.444C540.349 340.792 539.537 339.476 537.871 339.476C536.205 339.476 535.393 340.792 535.393 342.444C535.393 344.082 536.205 345.398 537.871 345.398ZM547.345 343.368V338.86H548.255V346H547.345V344.992H547.317C546.911 345.58 546.141 346.168 544.867 346.168C543.593 346.168 542.529 345.454 542.529 343.872V338.86H543.439V343.676C543.439 344.586 543.859 345.37 545.091 345.37C546.449 345.37 547.345 344.418 547.345 343.368ZM553.329 338.692C554.603 338.692 555.667 339.406 555.667 340.988V346H554.757V341.184C554.757 340.274 554.337 339.49 553.105 339.49C551.747 339.49 550.851 340.442 550.851 341.492V346H549.941V338.86H550.851V339.882H550.879C551.285 339.294 552.055 338.692 553.329 338.692ZM562.49 340.064V335.99H563.4V346H562.49V344.838H562.462C562.056 345.538 561.3 346.182 560.054 346.182C558.318 346.182 556.918 344.782 556.918 342.43C556.918 340.092 558.318 338.692 560.054 338.692C561.3 338.692 562.042 339.308 562.462 340.064H562.49ZM560.166 345.384C561.538 345.384 562.49 344.236 562.49 342.43C562.49 340.638 561.538 339.49 560.166 339.49C558.682 339.49 557.87 340.834 557.87 342.43C557.87 344.04 558.682 345.384 560.166 345.384ZM573.346 340.064V335.99H574.256V346H573.346V344.838H573.318C572.912 345.538 572.156 346.182 570.91 346.182C569.174 346.182 567.774 344.782 567.774 342.43C567.774 340.092 569.174 338.692 570.91 338.692C572.156 338.692 572.898 339.308 573.318 340.064H573.346ZM571.022 345.384C572.394 345.384 573.346 344.236 573.346 342.43C573.346 340.638 572.394 339.49 571.022 339.49C569.538 339.49 568.726 340.834 568.726 342.43C568.726 344.04 569.538 345.384 571.022 345.384ZM582.188 342.108C582.188 342.304 582.188 342.5 582.174 342.612H576.518C576.532 344.054 577.302 345.412 578.982 345.412C580.452 345.412 581.026 344.404 581.166 343.816H582.09C581.74 345.118 580.76 346.196 578.968 346.196C576.784 346.196 575.566 344.6 575.566 342.43C575.566 340.148 576.91 338.678 578.968 338.678C581.026 338.678 582.188 340.12 582.188 342.108ZM576.518 341.814H581.222C581.222 340.54 580.396 339.462 578.926 339.462C577.54 339.462 576.588 340.484 576.518 341.814ZM586.096 346.182C584.094 346.182 583.002 345.09 582.96 343.662H583.912C583.968 344.642 584.612 345.384 586.11 345.384C587.468 345.384 587.93 344.754 587.93 344.054C587.93 343.004 586.866 342.892 585.872 342.654C584.556 342.318 583.226 341.996 583.226 340.61C583.226 339.448 584.15 338.692 585.76 338.692C587.622 338.692 588.49 339.686 588.616 340.862H587.664C587.538 340.232 587.16 339.49 585.774 339.49C584.752 339.49 584.178 339.882 584.178 340.554C584.178 341.45 585.144 341.576 586.222 341.842C587.566 342.164 588.896 342.542 588.896 344.026C588.896 345.328 587.86 346.182 586.096 346.182ZM591.104 337.432H589.928V336.256H591.104V337.432ZM590.978 346H590.068V338.86H590.978V346ZM597.874 339.98V338.86H598.784V345.552C598.784 347.582 597.524 348.562 595.564 348.562C593.632 348.562 592.61 347.624 592.498 346.378H593.45C593.59 347.148 594.192 347.764 595.578 347.764C597.02 347.764 597.874 347.134 597.874 345.678V344.348H597.846C597.426 345.09 596.642 345.664 595.438 345.664C593.73 345.664 592.302 344.544 592.302 342.164C592.302 339.812 593.73 338.692 595.438 338.692C596.642 338.692 597.426 339.266 597.846 339.98H597.874ZM595.564 344.866C596.88 344.866 597.874 343.998 597.874 342.164C597.874 340.358 596.88 339.49 595.564 339.49C594.094 339.49 593.254 340.554 593.254 342.164C593.254 343.802 594.094 344.866 595.564 344.866ZM603.832 338.692C605.106 338.692 606.17 339.406 606.17 340.988V346H605.26V341.184C605.26 340.274 604.84 339.49 603.608 339.49C602.25 339.49 601.354 340.442 601.354 341.492V346H600.444V338.86H601.354V339.882H601.382C601.788 339.294 602.558 338.692 603.832 338.692ZM612.822 346.182C611.394 346.182 610.484 345.384 610.484 344.194C610.484 342.654 611.576 342.164 613.424 341.842C614.6 341.632 615.356 341.548 615.356 340.694C615.356 339.966 614.88 339.476 613.732 339.476C612.346 339.476 611.856 339.966 611.786 341.016H610.82C610.89 339.756 611.688 338.678 613.76 338.678C615.076 338.678 616.238 339.238 616.238 340.946V344.516C616.238 345.09 616.322 345.356 616.644 345.356C616.7 345.356 616.756 345.356 616.84 345.342V346C616.686 346.028 616.532 346.056 616.364 346.056C615.762 346.056 615.412 345.818 615.356 344.922H615.328C614.838 345.734 613.984 346.182 612.822 346.182ZM612.934 345.384C614.39 345.384 615.356 344.614 615.356 343.326V341.996C615.146 342.29 614.39 342.458 613.536 342.598C612.15 342.85 611.436 343.2 611.436 344.11C611.436 344.936 611.898 345.384 612.934 345.384ZM621.442 338.692C622.716 338.692 623.78 339.406 623.78 340.988V346H622.87V341.184C622.87 340.274 622.45 339.49 621.218 339.49C619.86 339.49 618.964 340.442 618.964 341.492V346H618.054V338.86H618.964V339.882H618.992C619.398 339.294 620.168 338.692 621.442 338.692ZM630.603 340.064V335.99H631.513V346H630.603V344.838H630.575C630.169 345.538 629.413 346.182 628.167 346.182C626.431 346.182 625.031 344.782 625.031 342.43C625.031 340.092 626.431 338.692 628.167 338.692C629.413 338.692 630.155 339.308 630.575 340.064H630.603ZM628.279 345.384C629.651 345.384 630.603 344.236 630.603 342.43C630.603 340.638 629.651 339.49 628.279 339.49C626.795 339.49 625.983 340.834 625.983 342.43C625.983 344.04 626.795 345.384 628.279 345.384ZM527.241 362.108C527.241 362.304 527.241 362.5 527.227 362.612H521.571C521.585 364.054 522.355 365.412 524.035 365.412C525.505 365.412 526.079 364.404 526.219 363.816H527.143C526.793 365.118 525.813 366.196 524.021 366.196C521.837 366.196 520.619 364.6 520.619 362.43C520.619 360.148 521.963 358.678 524.021 358.678C526.079 358.678 527.241 360.12 527.241 362.108ZM521.571 361.814H526.275C526.275 360.54 525.449 359.462 523.979 359.462C522.593 359.462 521.641 360.484 521.571 361.814ZM531.905 358.692C533.179 358.692 534.243 359.406 534.243 360.988V366H533.333V361.184C533.333 360.274 532.913 359.49 531.681 359.49C530.323 359.49 529.427 360.442 529.427 361.492V366H528.517V358.86H529.427V359.882H529.455C529.861 359.294 530.631 358.692 531.905 358.692ZM541.094 359.98V358.86H542.004V365.552C542.004 367.582 540.744 368.562 538.784 368.562C536.852 368.562 535.83 367.624 535.718 366.378H536.67C536.81 367.148 537.412 367.764 538.798 367.764C540.24 367.764 541.094 367.134 541.094 365.678V364.348H541.066C540.646 365.09 539.862 365.664 538.658 365.664C536.95 365.664 535.522 364.544 535.522 362.164C535.522 359.812 536.95 358.692 538.658 358.692C539.862 358.692 540.646 359.266 541.066 359.98H541.094ZM538.784 364.866C540.1 364.866 541.094 363.998 541.094 362.164C541.094 360.358 540.1 359.49 538.784 359.49C537.314 359.49 536.474 360.554 536.474 362.164C536.474 363.802 537.314 364.866 538.784 364.866ZM544.701 357.432H543.525V356.256H544.701V357.432ZM544.575 366H543.665V358.86H544.575V366ZM549.637 358.692C550.911 358.692 551.975 359.406 551.975 360.988V366H551.065V361.184C551.065 360.274 550.645 359.49 549.413 359.49C548.055 359.49 547.159 360.442 547.159 361.492V366H546.249V358.86H547.159V359.882H547.187C547.593 359.294 548.363 358.692 549.637 358.692ZM559.849 362.108C559.849 362.304 559.849 362.5 559.835 362.612H554.179C554.193 364.054 554.963 365.412 556.643 365.412C558.113 365.412 558.687 364.404 558.827 363.816H559.751C559.401 365.118 558.421 366.196 556.629 366.196C554.445 366.196 553.227 364.6 553.227 362.43C553.227 360.148 554.571 358.678 556.629 358.678C558.687 358.678 559.849 360.12 559.849 362.108ZM554.179 361.814H558.883C558.883 360.54 558.057 359.462 556.587 359.462C555.201 359.462 554.249 360.484 554.179 361.814ZM567.368 362.108C567.368 362.304 567.368 362.5 567.354 362.612H561.698C561.712 364.054 562.482 365.412 564.162 365.412C565.632 365.412 566.206 364.404 566.346 363.816H567.27C566.92 365.118 565.94 366.196 564.148 366.196C561.964 366.196 560.746 364.6 560.746 362.43C560.746 360.148 562.09 358.678 564.148 358.678C566.206 358.678 567.368 360.12 567.368 362.108ZM561.698 361.814H566.402C566.402 360.54 565.576 359.462 564.106 359.462C562.72 359.462 561.768 360.484 561.698 361.814ZM571.612 358.692C571.864 358.692 572.06 358.706 572.228 358.734V359.63C572.088 359.602 571.934 359.588 571.794 359.588C570.506 359.588 569.554 360.624 569.554 362.01V366H568.644V358.86H569.554V360.316H569.582C569.946 359.378 570.604 358.692 571.612 358.692ZM574.232 357.432H573.056V356.256H574.232V357.432ZM574.106 366H573.196V358.86H574.106V366ZM579.168 358.692C580.442 358.692 581.506 359.406 581.506 360.988V366H580.596V361.184C580.596 360.274 580.176 359.49 578.944 359.49C577.586 359.49 576.69 360.442 576.69 361.492V366H575.78V358.86H576.69V359.882H576.718C577.124 359.294 577.894 358.692 579.168 358.692ZM588.358 359.98V358.86H589.268V365.552C589.268 367.582 588.008 368.562 586.048 368.562C584.116 368.562 583.094 367.624 582.982 366.378H583.934C584.074 367.148 584.676 367.764 586.062 367.764C587.504 367.764 588.358 367.134 588.358 365.678V364.348H588.33C587.91 365.09 587.126 365.664 585.922 365.664C584.214 365.664 582.786 364.544 582.786 362.164C582.786 359.812 584.214 358.692 585.922 358.692C587.126 358.692 587.91 359.266 588.33 359.98H588.358ZM586.048 364.866C587.364 364.866 588.358 363.998 588.358 362.164C588.358 360.358 587.364 359.49 586.048 359.49C584.578 359.49 583.738 360.554 583.738 362.164C583.738 363.802 584.578 364.866 586.048 364.866ZM595.027 357.432H593.851V356.256H595.027V357.432ZM594.901 366H593.991V358.86H594.901V366ZM599.963 358.692C601.237 358.692 602.301 359.406 602.301 360.988V366H601.391V361.184C601.391 360.274 600.971 359.49 599.739 359.49C598.381 359.49 597.485 360.442 597.485 361.492V366H596.575V358.86H597.485V359.882H597.513C597.919 359.294 598.689 358.692 599.963 358.692ZM610.031 366.196C607.889 366.196 606.601 364.656 606.601 362.444C606.601 360.218 607.889 358.678 610.031 358.678C612.173 358.678 613.461 360.218 613.461 362.444C613.461 364.656 612.173 366.196 610.031 366.196ZM610.031 365.398C611.697 365.398 612.509 364.082 612.509 362.444C612.509 360.792 611.697 359.476 610.031 359.476C608.365 359.476 607.553 360.792 607.553 362.444C607.553 364.082 608.365 365.398 610.031 365.398ZM618.133 358.692C619.407 358.692 620.471 359.406 620.471 360.988V366H619.561V361.184C619.561 360.274 619.141 359.49 617.909 359.49C616.551 359.49 615.655 360.442 615.655 361.492V366H614.745V358.86H615.655V359.882H615.683C616.089 359.294 616.859 358.692 618.133 358.692ZM628.345 362.108C628.345 362.304 628.345 362.5 628.331 362.612H622.675C622.689 364.054 623.459 365.412 625.139 365.412C626.609 365.412 627.183 364.404 627.323 363.816H628.247C627.897 365.118 626.917 366.196 625.125 366.196C622.941 366.196 621.723 364.6 621.723 362.43C621.723 360.148 623.067 358.678 625.125 358.678C627.183 358.678 628.345 360.12 628.345 362.108ZM622.675 361.814H627.379C627.379 360.54 626.553 359.462 625.083 359.462C623.697 359.462 622.745 360.484 622.675 361.814ZM537 386.182C534.998 386.182 533.906 385.09 533.864 383.662H534.816C534.872 384.642 535.516 385.384 537.014 385.384C538.372 385.384 538.834 384.754 538.834 384.054C538.834 383.004 537.77 382.892 536.776 382.654C535.46 382.318 534.13 381.996 534.13 380.61C534.13 379.448 535.054 378.692 536.664 378.692C538.526 378.692 539.394 379.686 539.52 380.862H538.568C538.442 380.232 538.064 379.49 536.678 379.49C535.656 379.49 535.082 379.882 535.082 380.554C535.082 381.45 536.048 381.576 537.126 381.842C538.47 382.164 539.8 382.542 539.8 384.026C539.8 385.328 538.764 386.182 537 386.182ZM544.01 386.196C541.868 386.196 540.58 384.656 540.58 382.444C540.58 380.218 541.868 378.678 544.01 378.678C546.152 378.678 547.44 380.218 547.44 382.444C547.44 384.656 546.152 386.196 544.01 386.196ZM544.01 385.398C545.676 385.398 546.488 384.082 546.488 382.444C546.488 380.792 545.676 379.476 544.01 379.476C542.344 379.476 541.532 380.792 541.532 382.444C541.532 384.082 542.344 385.398 544.01 385.398ZM553.484 383.368V378.86H554.394V386H553.484V384.992H553.456C553.05 385.58 552.28 386.168 551.006 386.168C549.732 386.168 548.668 385.454 548.668 383.872V378.86H549.578V383.676C549.578 384.586 549.998 385.37 551.23 385.37C552.588 385.37 553.484 384.418 553.484 383.368ZM559.047 378.692C559.299 378.692 559.495 378.706 559.663 378.734V379.63C559.523 379.602 559.369 379.588 559.229 379.588C557.941 379.588 556.989 380.624 556.989 382.01V386H556.079V378.86H556.989V380.316H557.017C557.381 379.378 558.039 378.692 559.047 378.692ZM563.26 386.182C561.216 386.182 559.844 384.67 559.844 382.43C559.844 380.204 561.216 378.692 563.26 378.692C564.996 378.692 566.172 379.854 566.326 381.366H565.374C565.318 380.568 564.744 379.49 563.26 379.49C561.51 379.49 560.796 380.974 560.796 382.43C560.796 383.9 561.51 385.398 563.26 385.398C564.758 385.398 565.318 384.32 565.374 383.452H566.326C566.228 384.992 564.996 386.182 563.26 386.182ZM573.794 382.108C573.794 382.304 573.794 382.5 573.78 382.612H568.124C568.138 384.054 568.908 385.412 570.588 385.412C572.058 385.412 572.632 384.404 572.772 383.816H573.696C573.346 385.118 572.366 386.196 570.574 386.196C568.39 386.196 567.172 384.6 567.172 382.43C567.172 380.148 568.516 378.678 570.574 378.678C572.632 378.678 573.794 380.12 573.794 382.108ZM568.124 381.814H572.828C572.828 380.54 572.002 379.462 570.532 379.462C569.146 379.462 568.194 380.484 568.124 381.814ZM581.17 386.196C579.028 386.196 577.74 384.656 577.74 382.444C577.74 380.218 579.028 378.678 581.17 378.678C583.312 378.678 584.6 380.218 584.6 382.444C584.6 384.656 583.312 386.196 581.17 386.196ZM581.17 385.398C582.836 385.398 583.648 384.082 583.648 382.444C583.648 380.792 582.836 379.476 581.17 379.476C579.504 379.476 578.692 380.792 578.692 382.444C578.692 384.082 579.504 385.398 581.17 385.398ZM587.918 376.704C587.232 376.704 587.064 376.914 587.064 377.796V378.86H588.478V379.658H587.064V386H586.154V379.658H585.146V378.86H586.154V377.81C586.154 376.256 586.77 375.906 587.792 375.906C587.988 375.906 588.156 375.92 588.478 375.962V376.732C588.226 376.718 588.114 376.704 587.918 376.704ZM594.944 378.86V379.658H593.502V384.166C593.502 385.048 593.698 385.258 594.398 385.258C594.622 385.258 594.734 385.244 594.944 385.23V386C594.664 386.042 594.496 386.056 594.272 386.056C593.236 386.056 592.592 385.706 592.592 384.152V379.658H591.542V378.86H592.592V376.48H593.502V378.86H594.944ZM599.092 378.692C599.344 378.692 599.54 378.706 599.708 378.734V379.63C599.568 379.602 599.414 379.588 599.274 379.588C597.986 379.588 597.034 380.624 597.034 382.01V386H596.124V378.86H597.034V380.316H597.062C597.426 379.378 598.084 378.692 599.092 378.692ZM605.437 383.368V378.86H606.347V386H605.437V384.992H605.409C605.003 385.58 604.233 386.168 602.959 386.168C601.685 386.168 600.621 385.454 600.621 383.872V378.86H601.531V383.676C601.531 384.586 601.951 385.37 603.183 385.37C604.541 385.37 605.437 384.418 605.437 383.368ZM610.776 378.86V379.658H609.334V384.166C609.334 385.048 609.53 385.258 610.23 385.258C610.454 385.258 610.566 385.244 610.776 385.23V386C610.496 386.042 610.328 386.056 610.104 386.056C609.068 386.056 608.424 385.706 608.424 384.152V379.658H607.374V378.86H608.424V376.48H609.334V378.86H610.776ZM615.344 378.692C616.618 378.692 617.682 379.406 617.682 380.988V386H616.772V381.184C616.772 380.274 616.352 379.49 615.12 379.49C613.762 379.49 612.866 380.442 612.866 381.492V386H611.956V375.99H612.866V379.882H612.894C613.3 379.294 614.07 378.692 615.344 378.692Z" fill="#6F7074"/>
<path d="M448 214.125H447.125V215.875H448V215V214.125ZM480 215L471.25 209.948V220.052L480 215ZM448 215V215.875H472.125V215V214.125H448V215Z" fill="#393B3F"/>
<path d="M272 215C272 166.399 311.399 127 360 127V127C408.601 127 448 166.399 448 215V215C448 263.601 408.601 303 360 303V303C311.399 303 272 263.601 272 215V215Z" fill="#27292E"/>
<path d="M300.361 221H299.193V209.56H303.593C305.705 209.56 307.289 210.456 307.289 212.856C307.289 215.256 305.705 216.168 303.593 216.168H300.361V221ZM300.361 215.144H303.705C305.257 215.144 306.073 214.424 306.073 212.856C306.073 211.304 305.257 210.584 303.705 210.584H300.361V215.144ZM312.048 221H310.88V209.56H315.36C317.792 209.56 319.12 210.696 319.12 212.792C319.12 214.312 318.24 215.352 316.992 215.672V215.704C319.616 216.232 318.704 220.712 319.328 220.904V221H318.08C317.552 220.52 318.592 216.248 315.536 216.248H312.048V221ZM312.048 215.224H315.072C316.896 215.224 317.952 214.408 317.952 212.808C317.952 211.352 317.12 210.584 315.152 210.584H312.048V215.224ZM328.042 221.208C324.73 221.208 322.538 218.712 322.538 215.272C322.538 211.832 324.73 209.352 328.042 209.352C331.338 209.352 333.53 211.832 333.53 215.272C333.53 218.712 331.338 221.208 328.042 221.208ZM328.042 220.184C330.858 220.184 332.314 217.976 332.314 215.272C332.314 212.568 330.858 210.376 328.042 210.376C325.21 210.376 323.754 212.568 323.754 215.272C323.754 217.976 325.21 220.184 328.042 220.184ZM338.548 221H337.38V209.56H341.78C343.892 209.56 345.476 210.456 345.476 212.856C345.476 215.256 343.892 216.168 341.78 216.168H338.548V221ZM338.548 215.144H341.892C343.444 215.144 344.26 214.424 344.26 212.856C344.26 211.304 343.444 210.584 341.892 210.584H338.548V215.144ZM353.933 221.208C350.621 221.208 348.429 218.712 348.429 215.272C348.429 211.832 350.621 209.352 353.933 209.352C357.229 209.352 359.421 211.832 359.421 215.272C359.421 218.712 357.229 221.208 353.933 221.208ZM353.933 220.184C356.749 220.184 358.205 217.976 358.205 215.272C358.205 212.568 356.749 210.376 353.933 210.376C351.101 210.376 349.645 212.568 349.645 215.272C349.645 217.976 351.101 220.184 353.933 220.184ZM367.383 221.208C364.631 221.208 362.647 219.784 362.487 217.208H363.703C363.863 218.984 364.951 220.184 367.335 220.184C369.447 220.184 370.167 219.176 370.167 217.912C370.183 216.216 368.999 215.928 366.647 215.4C364.775 214.968 362.967 214.392 362.967 212.296C362.967 210.472 364.423 209.352 366.775 209.352C369.255 209.352 370.823 210.616 370.999 212.856H369.783C369.591 211.272 368.711 210.376 366.775 210.376C365.095 210.376 364.183 211.064 364.183 212.248C364.183 213.784 365.543 214.104 367.223 214.472C369.575 214.984 371.383 215.56 371.383 217.88C371.383 219.736 370.103 221.208 367.383 221.208ZM376.298 221H375.13V209.56H376.298V221ZM384.788 221H383.636V210.584H379.748V209.56H388.692V210.584H384.788V221ZM393.298 221H392.13V209.56H393.298V221ZM402.652 221.208C399.34 221.208 397.148 218.712 397.148 215.272C397.148 211.832 399.34 209.352 402.652 209.352C405.948 209.352 408.14 211.832 408.14 215.272C408.14 218.712 405.948 221.208 402.652 221.208ZM402.652 220.184C405.468 220.184 406.924 217.976 406.924 215.272C406.924 212.568 405.468 210.376 402.652 210.376C399.82 210.376 398.364 212.568 398.364 215.272C398.364 217.976 399.82 220.184 402.652 220.184ZM413.157 221H411.989V209.56H413.413L419.605 219.352H419.637V209.56H420.805V221H419.381L413.189 211.208H413.157V221Z" fill="white"/>
<path d="M310.282 346H306.698V335.99H310.324C313.124 335.99 314.678 337.922 314.678 341.016C314.678 344.11 313.082 346 310.282 346ZM307.72 345.104H310.282C312.788 345.104 313.614 343.228 313.614 341.016C313.614 338.79 312.83 336.886 310.31 336.886H307.72V345.104ZM322.329 342.108C322.329 342.304 322.329 342.5 322.315 342.612H316.659C316.673 344.054 317.443 345.412 319.123 345.412C320.593 345.412 321.167 344.404 321.307 343.816H322.231C321.881 345.118 320.901 346.196 319.109 346.196C316.925 346.196 315.707 344.6 315.707 342.43C315.707 340.148 317.051 338.678 319.109 338.678C321.167 338.678 322.329 340.12 322.329 342.108ZM316.659 341.814H321.363C321.363 340.54 320.537 339.462 319.067 339.462C317.681 339.462 316.729 340.484 316.659 341.814ZM326.381 346H325.345L322.727 338.86H323.735L325.877 345.076H325.891L328.019 338.86H328.999L326.381 346ZM336.015 342.108C336.015 342.304 336.015 342.5 336.001 342.612H330.345C330.359 344.054 331.129 345.412 332.809 345.412C334.279 345.412 334.853 344.404 334.993 343.816H335.917C335.567 345.118 334.587 346.196 332.795 346.196C330.611 346.196 329.393 344.6 329.393 342.43C329.393 340.148 330.737 338.678 332.795 338.678C334.853 338.678 336.015 340.12 336.015 342.108ZM330.345 341.814H335.049C335.049 340.54 334.223 339.462 332.753 339.462C331.367 339.462 330.415 340.484 330.345 341.814ZM338.2 346H337.29V335.99H338.2V346ZM342.912 346.196C340.77 346.196 339.482 344.656 339.482 342.444C339.482 340.218 340.77 338.678 342.912 338.678C345.054 338.678 346.342 340.218 346.342 342.444C346.342 344.656 345.054 346.196 342.912 346.196ZM342.912 345.398C344.578 345.398 345.39 344.082 345.39 342.444C345.39 340.792 344.578 339.476 342.912 339.476C341.246 339.476 340.434 340.792 340.434 342.444C340.434 344.082 341.246 345.398 342.912 345.398ZM350.972 338.678C352.722 338.678 354.122 340.078 354.122 342.43C354.122 344.768 352.722 346.168 350.972 346.168C349.726 346.168 348.984 345.552 348.564 344.796H348.536V348.478H347.626V338.86H348.536V340.008H348.564C348.984 339.322 349.726 338.678 350.972 338.678ZM350.874 345.37C352.358 345.37 353.17 344.026 353.17 342.43C353.17 340.82 352.358 339.476 350.874 339.476C349.502 339.476 348.536 340.624 348.536 342.43C348.536 344.222 349.502 345.37 350.874 345.37ZM360.442 346.182C359.014 346.182 358.104 345.384 358.104 344.194C358.104 342.654 359.196 342.164 361.044 341.842C362.22 341.632 362.976 341.548 362.976 340.694C362.976 339.966 362.5 339.476 361.352 339.476C359.966 339.476 359.476 339.966 359.406 341.016H358.44C358.51 339.756 359.308 338.678 361.38 338.678C362.696 338.678 363.858 339.238 363.858 340.946V344.516C363.858 345.09 363.942 345.356 364.264 345.356C364.32 345.356 364.376 345.356 364.46 345.342V346C364.306 346.028 364.152 346.056 363.984 346.056C363.382 346.056 363.032 345.818 362.976 344.922H362.948C362.458 345.734 361.604 346.182 360.442 346.182ZM360.554 345.384C362.01 345.384 362.976 344.614 362.976 343.326V341.996C362.766 342.29 362.01 342.458 361.156 342.598C359.77 342.85 359.056 343.2 359.056 344.11C359.056 344.936 359.518 345.384 360.554 345.384ZM372.082 338.678C373.832 338.678 375.232 340.078 375.232 342.43C375.232 344.768 373.832 346.168 372.082 346.168C370.836 346.168 370.094 345.552 369.674 344.796H369.646V348.478H368.736V338.86H369.646V340.008H369.674C370.094 339.322 370.836 338.678 372.082 338.678ZM371.984 345.37C373.468 345.37 374.28 344.026 374.28 342.43C374.28 340.82 373.468 339.476 371.984 339.476C370.612 339.476 369.646 340.624 369.646 342.43C369.646 344.222 370.612 345.37 371.984 345.37ZM379.566 346.196C377.424 346.196 376.136 344.656 376.136 342.444C376.136 340.218 377.424 338.678 379.566 338.678C381.708 338.678 382.996 340.218 382.996 342.444C382.996 344.656 381.708 346.196 379.566 346.196ZM379.566 345.398C381.232 345.398 382.044 344.082 382.044 342.444C382.044 340.792 381.232 339.476 379.566 339.476C377.9 339.476 377.088 340.792 377.088 342.444C377.088 344.082 377.9 345.398 379.566 345.398ZM385.316 337.432H384.14V336.256H385.316V337.432ZM385.19 346H384.28V338.86H385.19V346ZM390.252 338.692C391.526 338.692 392.59 339.406 392.59 340.988V346H391.68V341.184C391.68 340.274 391.26 339.49 390.028 339.49C388.67 339.49 387.774 340.442 387.774 341.492V346H386.864V338.86H387.774V339.882H387.802C388.208 339.294 388.978 338.692 390.252 338.692ZM396.896 338.86V339.658H395.454V344.166C395.454 345.048 395.65 345.258 396.35 345.258C396.574 345.258 396.686 345.244 396.896 345.23V346C396.616 346.042 396.448 346.056 396.224 346.056C395.188 346.056 394.544 345.706 394.544 344.152V339.658H393.494V338.86H394.544V336.48H395.454V338.86H396.896ZM404.176 346.196C402.034 346.196 400.746 344.656 400.746 342.444C400.746 340.218 402.034 338.678 404.176 338.678C406.318 338.678 407.606 340.218 407.606 342.444C407.606 344.656 406.318 346.196 404.176 346.196ZM404.176 345.398C405.842 345.398 406.654 344.082 406.654 342.444C406.654 340.792 405.842 339.476 404.176 339.476C402.51 339.476 401.698 340.792 401.698 342.444C401.698 344.082 402.51 345.398 404.176 345.398ZM410.924 336.704C410.238 336.704 410.07 336.914 410.07 337.796V338.86H411.484V339.658H410.07V346H409.16V339.658H408.152V338.86H409.16V337.81C409.16 336.256 409.776 335.906 410.798 335.906C410.994 335.906 411.162 335.92 411.484 335.962V336.732C411.232 336.718 411.12 336.704 410.924 336.704ZM299.775 366H298.739L296.121 358.86H297.129L299.271 365.076H299.285L301.413 358.86H302.393L299.775 366ZM304.406 357.432H303.23V356.256H304.406V357.432ZM304.28 366H303.37V358.86H304.28V366ZM312.198 362.108C312.198 362.304 312.198 362.5 312.184 362.612H306.528C306.542 364.054 307.312 365.412 308.992 365.412C310.462 365.412 311.036 364.404 311.176 363.816H312.1C311.75 365.118 310.77 366.196 308.978 366.196C306.794 366.196 305.576 364.6 305.576 362.43C305.576 360.148 306.92 358.678 308.978 358.678C311.036 358.678 312.198 360.12 312.198 362.108ZM306.528 361.814H311.232C311.232 360.54 310.406 359.462 308.936 359.462C307.55 359.462 306.598 360.484 306.528 361.814ZM315.955 366H314.947L312.679 358.86H313.687L315.465 364.964H315.493L317.159 358.86H318.181L319.847 364.964H319.875L321.667 358.86H322.647L320.365 366H319.343L317.663 359.966H317.635L315.955 366ZM328.66 356.704C327.974 356.704 327.806 356.914 327.806 357.796V358.86H329.22V359.658H327.806V366H326.896V359.658H325.888V358.86H326.896V357.81C326.896 356.256 327.512 355.906 328.534 355.906C328.73 355.906 328.898 355.92 329.22 355.962V356.732C328.968 356.718 328.856 356.704 328.66 356.704ZM333.094 358.692C333.346 358.692 333.542 358.706 333.71 358.734V359.63C333.57 359.602 333.416 359.588 333.276 359.588C331.988 359.588 331.036 360.624 331.036 362.01V366H330.126V358.86H331.036V360.316H331.064C331.428 359.378 332.086 358.692 333.094 358.692ZM337.32 366.196C335.178 366.196 333.89 364.656 333.89 362.444C333.89 360.218 335.178 358.678 337.32 358.678C339.462 358.678 340.75 360.218 340.75 362.444C340.75 364.656 339.462 366.196 337.32 366.196ZM337.32 365.398C338.986 365.398 339.798 364.082 339.798 362.444C339.798 360.792 338.986 359.476 337.32 359.476C335.654 359.476 334.842 360.792 334.842 362.444C334.842 364.082 335.654 365.398 337.32 365.398ZM349.454 358.692C350.812 358.692 351.554 359.504 351.554 360.988V366H350.644V361.184C350.644 360.288 350.434 359.49 349.258 359.49C347.998 359.49 347.256 360.456 347.256 361.492V366H346.346V361.184C346.346 360.288 346.136 359.49 344.946 359.49C343.7 359.49 342.944 360.456 342.944 361.492V366H342.034V358.86H342.944V359.868H342.972C343.35 359.294 344.022 358.692 345.142 358.692C346.15 358.692 346.794 359.154 347.06 360.008H347.088C347.55 359.294 348.32 358.692 349.454 358.692ZM360.999 363.368V358.86H361.909V366H360.999V364.992H360.971C360.565 365.58 359.795 366.168 358.521 366.168C357.247 366.168 356.183 365.454 356.183 363.872V358.86H357.093V363.676C357.093 364.586 357.513 365.37 358.745 365.37C360.103 365.37 360.999 364.418 360.999 363.368ZM366.227 366.182C364.225 366.182 363.133 365.09 363.091 363.662H364.043C364.099 364.642 364.743 365.384 366.241 365.384C367.599 365.384 368.061 364.754 368.061 364.054C368.061 363.004 366.997 362.892 366.003 362.654C364.687 362.318 363.357 361.996 363.357 360.61C363.357 359.448 364.281 358.692 365.891 358.692C367.753 358.692 368.621 359.686 368.747 360.862H367.795C367.669 360.232 367.291 359.49 365.905 359.49C364.883 359.49 364.309 359.882 364.309 360.554C364.309 361.45 365.275 361.576 366.353 361.842C367.697 362.164 369.027 362.542 369.027 364.026C369.027 365.328 367.991 366.182 366.227 366.182ZM376.442 362.108C376.442 362.304 376.442 362.5 376.428 362.612H370.772C370.786 364.054 371.556 365.412 373.236 365.412C374.706 365.412 375.28 364.404 375.42 363.816H376.344C375.994 365.118 375.014 366.196 373.222 366.196C371.038 366.196 369.82 364.6 369.82 362.43C369.82 360.148 371.164 358.678 373.222 358.678C375.28 358.678 376.442 360.12 376.442 362.108ZM370.772 361.814H375.476C375.476 360.54 374.65 359.462 373.18 359.462C371.794 359.462 370.842 360.484 370.772 361.814ZM380.686 358.692C380.938 358.692 381.134 358.706 381.302 358.734V359.63C381.162 359.602 381.008 359.588 380.868 359.588C379.58 359.588 378.628 360.624 378.628 362.01V366H377.718V358.86H378.628V360.316H378.656C379.02 359.378 379.678 358.692 380.686 358.692ZM388.393 358.692C389.667 358.692 390.731 359.406 390.731 360.988V366H389.821V361.184C389.821 360.274 389.401 359.49 388.169 359.49C386.811 359.49 385.915 360.442 385.915 361.492V366H385.005V358.86H385.915V359.882H385.943C386.349 359.294 387.119 358.692 388.393 358.692ZM398.605 362.108C398.605 362.304 398.605 362.5 398.591 362.612H392.935C392.949 364.054 393.719 365.412 395.399 365.412C396.869 365.412 397.443 364.404 397.583 363.816H398.507C398.157 365.118 397.177 366.196 395.385 366.196C393.201 366.196 391.983 364.6 391.983 362.43C391.983 360.148 393.327 358.678 395.385 358.678C397.443 358.678 398.605 360.12 398.605 362.108ZM392.935 361.814H397.639C397.639 360.54 396.813 359.462 395.343 359.462C393.957 359.462 393.005 360.484 392.935 361.814ZM406.124 362.108C406.124 362.304 406.124 362.5 406.11 362.612H400.454C400.468 364.054 401.238 365.412 402.918 365.412C404.388 365.412 404.962 364.404 405.102 363.816H406.026C405.676 365.118 404.696 366.196 402.904 366.196C400.72 366.196 399.502 364.6 399.502 362.43C399.502 360.148 400.846 358.678 402.904 358.678C404.962 358.678 406.124 360.12 406.124 362.108ZM400.454 361.814H405.158C405.158 360.54 404.332 359.462 402.862 359.462C401.476 359.462 400.524 360.484 400.454 361.814ZM412.594 360.064V355.99H413.504V366H412.594V364.838H412.566C412.16 365.538 411.404 366.182 410.158 366.182C408.422 366.182 407.022 364.782 407.022 362.43C407.022 360.092 408.422 358.692 410.158 358.692C411.404 358.692 412.146 359.308 412.566 360.064H412.594ZM410.27 365.384C411.642 365.384 412.594 364.236 412.594 362.43C412.594 360.638 411.642 359.49 410.27 359.49C408.786 359.49 407.974 360.834 407.974 362.43C407.974 364.04 408.786 365.384 410.27 365.384ZM417.825 366.182C415.823 366.182 414.731 365.09 414.689 363.662H415.641C415.697 364.642 416.341 365.384 417.839 365.384C419.197 365.384 419.659 364.754 419.659 364.054C419.659 363.004 418.595 362.892 417.601 362.654C416.285 362.318 414.955 361.996 414.955 360.61C414.955 359.448 415.879 358.692 417.489 358.692C419.351 358.692 420.219 359.686 420.345 360.862H419.393C419.267 360.232 418.889 359.49 417.503 359.49C416.481 359.49 415.907 359.882 415.907 360.554C415.907 361.45 416.873 361.576 417.951 361.842C419.295 362.164 420.625 362.542 420.625 364.026C420.625 365.328 419.589 366.182 417.825 366.182ZM327.732 386.182C326.304 386.182 325.394 385.384 325.394 384.194C325.394 382.654 326.486 382.164 328.334 381.842C329.51 381.632 330.266 381.548 330.266 380.694C330.266 379.966 329.79 379.476 328.642 379.476C327.256 379.476 326.766 379.966 326.696 381.016H325.73C325.8 379.756 326.598 378.678 328.67 378.678C329.986 378.678 331.148 379.238 331.148 380.946V384.516C331.148 385.09 331.232 385.356 331.554 385.356C331.61 385.356 331.666 385.356 331.75 385.342V386C331.596 386.028 331.442 386.056 331.274 386.056C330.672 386.056 330.322 385.818 330.266 384.922H330.238C329.748 385.734 328.894 386.182 327.732 386.182ZM327.844 385.384C329.3 385.384 330.266 384.614 330.266 383.326V381.996C330.056 382.29 329.3 382.458 328.446 382.598C327.06 382.85 326.346 383.2 326.346 384.11C326.346 384.936 326.808 385.384 327.844 385.384ZM336.351 378.692C337.625 378.692 338.689 379.406 338.689 380.988V386H337.779V381.184C337.779 380.274 337.359 379.49 336.127 379.49C334.769 379.49 333.873 380.442 333.873 381.492V386H332.963V378.86H333.873V379.882H333.901C334.307 379.294 335.077 378.692 336.351 378.692ZM345.513 380.064V375.99H346.423V386H345.513V384.838H345.485C345.079 385.538 344.323 386.182 343.077 386.182C341.341 386.182 339.941 384.782 339.941 382.43C339.941 380.092 341.341 378.692 343.077 378.692C344.323 378.692 345.065 379.308 345.485 380.064H345.513ZM343.189 385.384C344.561 385.384 345.513 384.236 345.513 382.43C345.513 380.638 344.561 379.49 343.189 379.49C341.705 379.49 340.893 380.834 340.893 382.43C340.893 384.04 341.705 385.384 343.189 385.384ZM352.21 377.432H351.034V376.256H352.21V377.432ZM352.084 386H351.174V378.86H352.084V386ZM357.146 378.692C358.42 378.692 359.484 379.406 359.484 380.988V386H358.574V381.184C358.574 380.274 358.154 379.49 356.922 379.49C355.564 379.49 354.668 380.442 354.668 381.492V386H353.758V378.86H354.668V379.882H354.696C355.102 379.294 355.872 378.692 357.146 378.692ZM363.745 386.182C361.743 386.182 360.651 385.09 360.609 383.662H361.561C361.617 384.642 362.261 385.384 363.759 385.384C365.117 385.384 365.579 384.754 365.579 384.054C365.579 383.004 364.515 382.892 363.521 382.654C362.205 382.318 360.875 381.996 360.875 380.61C360.875 379.448 361.799 378.692 363.409 378.692C365.271 378.692 366.139 379.686 366.265 380.862H365.313C365.187 380.232 364.809 379.49 363.423 379.49C362.401 379.49 361.827 379.882 361.827 380.554C361.827 381.45 362.793 381.576 363.871 381.842C365.215 382.164 366.545 382.542 366.545 384.026C366.545 385.328 365.509 386.182 363.745 386.182ZM368.753 377.432H367.577V376.256H368.753V377.432ZM368.627 386H367.717V378.86H368.627V386ZM375.523 379.98V378.86H376.433V385.552C376.433 387.582 375.173 388.562 373.213 388.562C371.281 388.562 370.259 387.624 370.147 386.378H371.099C371.239 387.148 371.841 387.764 373.227 387.764C374.669 387.764 375.523 387.134 375.523 385.678V384.348H375.495C375.075 385.09 374.291 385.664 373.087 385.664C371.379 385.664 369.951 384.544 369.951 382.164C369.951 379.812 371.379 378.692 373.087 378.692C374.291 378.692 375.075 379.266 375.495 379.98H375.523ZM373.213 384.866C374.529 384.866 375.523 383.998 375.523 382.164C375.523 380.358 374.529 379.49 373.213 379.49C371.743 379.49 370.903 380.554 370.903 382.164C370.903 383.802 371.743 384.866 373.213 384.866ZM381.482 378.692C382.756 378.692 383.82 379.406 383.82 380.988V386H382.91V381.184C382.91 380.274 382.49 379.49 381.258 379.49C379.9 379.49 379.004 380.442 379.004 381.492V386H378.094V375.99H379.004V379.882H379.032C379.438 379.294 380.208 378.692 381.482 378.692ZM388.125 378.86V379.658H386.683V384.166C386.683 385.048 386.879 385.258 387.579 385.258C387.803 385.258 387.915 385.244 388.125 385.23V386C387.845 386.042 387.677 386.056 387.453 386.056C386.417 386.056 385.773 385.706 385.773 384.152V379.658H384.723V378.86H385.773V376.48H386.683V378.86H388.125ZM391.937 386.182C389.935 386.182 388.843 385.09 388.801 383.662H389.753C389.809 384.642 390.453 385.384 391.951 385.384C393.309 385.384 393.771 384.754 393.771 384.054C393.771 383.004 392.707 382.892 391.713 382.654C390.397 382.318 389.067 381.996 389.067 380.61C389.067 379.448 389.991 378.692 391.601 378.692C393.463 378.692 394.331 379.686 394.457 380.862H393.505C393.379 380.232 393.001 379.49 391.615 379.49C390.593 379.49 390.019 379.882 390.019 380.554C390.019 381.45 390.985 381.576 392.063 381.842C393.407 382.164 394.737 382.542 394.737 384.026C394.737 385.328 393.701 386.182 391.937 386.182Z" fill="#6F7074"/>
<path d="M232 214.125H231.125V215.875H232V215V214.125ZM264 215L255.25 209.948V220.052L264 215ZM232 215V215.875H256.125V215V214.125H232V215Z" fill="#393B3F"/>
<path d="M56 215C56 166.399 95.3989 127 144 127V127C192.601 127 232 166.399 232 215V215C232 263.601 192.601 303 144 303V303C95.3989 303 56 263.601 56 215V215Z" fill="#27292E"/>
<path d="M103.134 221H101.966V209.56H106.366C108.478 209.56 110.062 210.456 110.062 212.856C110.062 215.256 108.478 216.168 106.366 216.168H103.134V221ZM103.134 215.144H106.478C108.03 215.144 108.846 214.424 108.846 212.856C108.846 211.304 108.03 210.584 106.478 210.584H103.134V215.144ZM114.822 221H113.654V209.56H118.134C120.566 209.56 121.894 210.696 121.894 212.792C121.894 214.312 121.014 215.352 119.766 215.672V215.704C122.39 216.232 121.477 220.712 122.102 220.904V221H120.854C120.326 220.52 121.366 216.248 118.31 216.248H114.822V221ZM114.822 215.224H117.846C119.67 215.224 120.726 214.408 120.726 212.808C120.726 211.352 119.894 210.584 117.926 210.584H114.822V215.224ZM130.816 221.208C127.504 221.208 125.312 218.712 125.312 215.272C125.312 211.832 127.504 209.352 130.816 209.352C134.112 209.352 136.304 211.832 136.304 215.272C136.304 218.712 134.112 221.208 130.816 221.208ZM130.816 220.184C133.632 220.184 135.088 217.976 135.088 215.272C135.088 212.568 133.632 210.376 130.816 210.376C127.984 210.376 126.528 212.568 126.528 215.272C126.528 217.976 127.984 220.184 130.816 220.184ZM145.018 221H140.154V209.56H144.714C146.97 209.56 148.33 210.648 148.33 212.44C148.33 213.8 147.546 214.504 146.522 214.856V214.888C147.802 215.128 148.794 216.072 148.794 217.72C148.794 219.88 147.29 221 145.018 221ZM141.322 214.472H144.938C146.522 214.472 147.114 213.688 147.114 212.552C147.114 211.384 146.41 210.584 144.938 210.584H141.322V214.472ZM141.322 219.976H145.066C146.874 219.976 147.578 219.048 147.578 217.72C147.578 216.376 146.714 215.496 145.354 215.496H141.322V219.976ZM159.966 221H152.622V209.56H153.79V219.976H159.966V221ZM171.34 221H163.404V209.56H171.164V210.584H164.572V214.52H170.46V215.544H164.572V219.976H171.34V221ZM176.212 221H175.044V209.56H176.66L180.516 219.432H180.548L184.42 209.56H186.036V221H184.868V211.208H184.836L181.06 221H180.004L176.244 211.208H176.212V221Z" fill="white"/>
<path d="M105.371 346H104.349V335.99H108.269C110.397 335.99 111.559 336.984 111.559 338.818C111.559 340.148 110.789 341.058 109.697 341.338V341.366C111.993 341.828 111.195 345.748 111.741 345.916V346H110.649C110.187 345.58 111.097 341.842 108.423 341.842H105.371V346ZM105.371 340.946H108.017C109.613 340.946 110.537 340.232 110.537 338.832C110.537 337.558 109.809 336.886 108.087 336.886H105.371V340.946ZM119.215 342.108C119.215 342.304 119.215 342.5 119.201 342.612H113.545C113.559 344.054 114.329 345.412 116.009 345.412C117.479 345.412 118.053 344.404 118.193 343.816H119.117C118.767 345.118 117.787 346.196 115.995 346.196C113.811 346.196 112.593 344.6 112.593 342.43C112.593 340.148 113.937 338.678 115.995 338.678C118.053 338.678 119.215 340.12 119.215 342.108ZM113.545 341.814H118.249C118.249 340.54 117.423 339.462 115.953 339.462C114.567 339.462 113.615 340.484 113.545 341.814ZM123.122 346.182C121.12 346.182 120.028 345.09 119.986 343.662H120.938C120.994 344.642 121.638 345.384 123.136 345.384C124.494 345.384 124.956 344.754 124.956 344.054C124.956 343.004 123.892 342.892 122.898 342.654C121.582 342.318 120.252 341.996 120.252 340.61C120.252 339.448 121.176 338.692 122.786 338.692C124.648 338.692 125.516 339.686 125.642 340.862H124.69C124.564 340.232 124.186 339.49 122.8 339.49C121.778 339.49 121.204 339.882 121.204 340.554C121.204 341.45 122.17 341.576 123.248 341.842C124.592 342.164 125.922 342.542 125.922 344.026C125.922 345.328 124.886 346.182 123.122 346.182ZM133.338 342.108C133.338 342.304 133.338 342.5 133.324 342.612H127.668C127.682 344.054 128.452 345.412 130.132 345.412C131.602 345.412 132.176 344.404 132.316 343.816H133.24C132.89 345.118 131.91 346.196 130.118 346.196C127.934 346.196 126.716 344.6 126.716 342.43C126.716 340.148 128.06 338.678 130.118 338.678C132.176 338.678 133.338 340.12 133.338 342.108ZM127.668 341.814H132.372C132.372 340.54 131.546 339.462 130.076 339.462C128.69 339.462 127.738 340.484 127.668 341.814ZM136.573 346.182C135.145 346.182 134.235 345.384 134.235 344.194C134.235 342.654 135.327 342.164 137.175 341.842C138.351 341.632 139.107 341.548 139.107 340.694C139.107 339.966 138.631 339.476 137.483 339.476C136.097 339.476 135.607 339.966 135.537 341.016H134.571C134.641 339.756 135.439 338.678 137.511 338.678C138.827 338.678 139.989 339.238 139.989 340.946V344.516C139.989 345.09 140.073 345.356 140.395 345.356C140.451 345.356 140.507 345.356 140.591 345.342V346C140.437 346.028 140.283 346.056 140.115 346.056C139.513 346.056 139.163 345.818 139.107 344.922H139.079C138.589 345.734 137.735 346.182 136.573 346.182ZM136.685 345.384C138.141 345.384 139.107 344.614 139.107 343.326V341.996C138.897 342.29 138.141 342.458 137.287 342.598C135.901 342.85 135.187 343.2 135.187 344.11C135.187 344.936 135.649 345.384 136.685 345.384ZM144.773 338.692C145.025 338.692 145.221 338.706 145.389 338.734V339.63C145.249 339.602 145.095 339.588 144.955 339.588C143.667 339.588 142.715 340.624 142.715 342.01V346H141.805V338.86H142.715V340.316H142.743C143.107 339.378 143.765 338.692 144.773 338.692ZM148.985 346.182C146.941 346.182 145.569 344.67 145.569 342.43C145.569 340.204 146.941 338.692 148.985 338.692C150.721 338.692 151.897 339.854 152.051 341.366H151.099C151.043 340.568 150.469 339.49 148.985 339.49C147.235 339.49 146.521 340.974 146.521 342.43C146.521 343.9 147.235 345.398 148.985 345.398C150.483 345.398 151.043 344.32 151.099 343.452H152.051C151.953 344.992 150.721 346.182 148.985 346.182ZM156.664 338.692C157.938 338.692 159.002 339.406 159.002 340.988V346H158.092V341.184C158.092 340.274 157.672 339.49 156.44 339.49C155.082 339.49 154.186 340.442 154.186 341.492V346H153.276V335.99H154.186V339.882H154.214C154.62 339.294 155.39 338.692 156.664 338.692ZM166.438 338.86V339.658H164.996V344.166C164.996 345.048 165.192 345.258 165.892 345.258C166.116 345.258 166.228 345.244 166.438 345.23V346C166.158 346.042 165.99 346.056 165.766 346.056C164.73 346.056 164.086 345.706 164.086 344.152V339.658H163.036V338.86H164.086V336.48H164.996V338.86H166.438ZM171.005 338.692C172.279 338.692 173.343 339.406 173.343 340.988V346H172.433V341.184C172.433 340.274 172.013 339.49 170.781 339.49C169.423 339.49 168.527 340.442 168.527 341.492V346H167.617V335.99H168.527V339.882H168.555C168.961 339.294 169.731 338.692 171.005 338.692ZM181.217 342.108C181.217 342.304 181.217 342.5 181.203 342.612H175.547C175.561 344.054 176.331 345.412 178.011 345.412C179.481 345.412 180.055 344.404 180.195 343.816H181.119C180.769 345.118 179.789 346.196 177.997 346.196C175.813 346.196 174.595 344.6 174.595 342.43C174.595 340.148 175.939 338.678 177.997 338.678C180.055 338.678 181.217 340.12 181.217 342.108ZM175.547 341.814H180.251C180.251 340.54 179.425 339.462 177.955 339.462C176.569 339.462 175.617 340.484 175.547 341.814ZM101.013 366.182C99.5849 366.182 98.6749 365.384 98.6749 364.194C98.6749 362.654 99.7669 362.164 101.615 361.842C102.791 361.632 103.547 361.548 103.547 360.694C103.547 359.966 103.071 359.476 101.923 359.476C100.537 359.476 100.047 359.966 99.9769 361.016H99.0109C99.0809 359.756 99.8789 358.678 101.951 358.678C103.267 358.678 104.429 359.238 104.429 360.946V364.516C104.429 365.09 104.513 365.356 104.835 365.356C104.891 365.356 104.947 365.356 105.031 365.342V366C104.877 366.028 104.723 366.056 104.555 366.056C103.953 366.056 103.603 365.818 103.547 364.922H103.519C103.029 365.734 102.175 366.182 101.013 366.182ZM101.125 365.384C102.581 365.384 103.547 364.614 103.547 363.326V361.996C103.337 362.29 102.581 362.458 101.727 362.598C100.341 362.85 99.6269 363.2 99.6269 364.11C99.6269 364.936 100.089 365.384 101.125 365.384ZM110.977 363.368V358.86H111.887V366H110.977V364.992H110.949C110.543 365.58 109.773 366.168 108.499 366.168C107.225 366.168 106.161 365.454 106.161 363.872V358.86H107.071V363.676C107.071 364.586 107.491 365.37 108.723 365.37C110.081 365.37 110.977 364.418 110.977 363.368ZM118.766 360.064V355.99H119.676V366H118.766V364.838H118.738C118.332 365.538 117.576 366.182 116.33 366.182C114.594 366.182 113.194 364.782 113.194 362.43C113.194 360.092 114.594 358.692 116.33 358.692C117.576 358.692 118.318 359.308 118.738 360.064H118.766ZM116.442 365.384C117.814 365.384 118.766 364.236 118.766 362.43C118.766 360.638 117.814 359.49 116.442 359.49C114.958 359.49 114.146 360.834 114.146 362.43C114.146 364.04 114.958 365.384 116.442 365.384ZM122.401 357.432H121.225V356.256H122.401V357.432ZM122.275 366H121.365V358.86H122.275V366ZM130.193 362.108C130.193 362.304 130.193 362.5 130.179 362.612H124.523C124.537 364.054 125.307 365.412 126.987 365.412C128.457 365.412 129.031 364.404 129.171 363.816H130.095C129.745 365.118 128.765 366.196 126.973 366.196C124.789 366.196 123.571 364.6 123.571 362.43C123.571 360.148 124.915 358.678 126.973 358.678C129.031 358.678 130.193 360.12 130.193 362.108ZM124.523 361.814H129.227C129.227 360.54 128.401 359.462 126.931 359.462C125.545 359.462 124.593 360.484 124.523 361.814ZM134.857 358.692C136.131 358.692 137.195 359.406 137.195 360.988V366H136.285V361.184C136.285 360.274 135.865 359.49 134.633 359.49C133.275 359.49 132.379 360.442 132.379 361.492V366H131.469V358.86H132.379V359.882H132.407C132.813 359.294 133.583 358.692 134.857 358.692ZM141.848 366.182C139.804 366.182 138.432 364.67 138.432 362.43C138.432 360.204 139.804 358.692 141.848 358.692C143.584 358.692 144.76 359.854 144.914 361.366H143.962C143.906 360.568 143.332 359.49 141.848 359.49C140.098 359.49 139.384 360.974 139.384 362.43C139.384 363.9 140.098 365.398 141.848 365.398C143.346 365.398 143.906 364.32 143.962 363.452H144.914C144.816 364.992 143.584 366.182 141.848 366.182ZM152.383 362.108C152.383 362.304 152.383 362.5 152.369 362.612H146.713C146.727 364.054 147.497 365.412 149.177 365.412C150.647 365.412 151.221 364.404 151.361 363.816H152.285C151.935 365.118 150.955 366.196 149.163 366.196C146.979 366.196 145.761 364.6 145.761 362.43C145.761 360.148 147.105 358.678 149.163 358.678C151.221 358.678 152.383 360.12 152.383 362.108ZM146.713 361.814H151.417C151.417 360.54 150.591 359.462 149.121 359.462C147.735 359.462 146.783 360.484 146.713 361.814ZM159.079 366H158.071L155.803 358.86H156.811L158.589 364.964H158.617L160.283 358.86H161.305L162.971 364.964H162.999L164.791 358.86H165.771L163.489 366H162.467L160.787 359.966H160.759L159.079 366ZM172.863 362.108C172.863 362.304 172.863 362.5 172.849 362.612H167.193C167.207 364.054 167.977 365.412 169.657 365.412C171.127 365.412 171.701 364.404 171.841 363.816H172.765C172.415 365.118 171.435 366.196 169.643 366.196C167.459 366.196 166.241 364.6 166.241 362.43C166.241 360.148 167.585 358.678 169.643 358.678C171.701 358.678 172.863 360.12 172.863 362.108ZM167.193 361.814H171.897C171.897 360.54 171.071 359.462 169.601 359.462C168.215 359.462 167.263 360.484 167.193 361.814ZM174.264 359.308H173.55L173.438 355.99H174.376L174.264 359.308ZM178.857 358.692C179.109 358.692 179.305 358.706 179.473 358.734V359.63C179.333 359.602 179.179 359.588 179.039 359.588C177.751 359.588 176.799 360.624 176.799 362.01V366H175.889V358.86H176.799V360.316H176.827C177.191 359.378 177.849 358.692 178.857 358.692ZM186.289 362.108C186.289 362.304 186.289 362.5 186.275 362.612H180.619C180.633 364.054 181.403 365.412 183.083 365.412C184.553 365.412 185.127 364.404 185.267 363.816H186.191C185.841 365.118 184.861 366.196 183.069 366.196C180.885 366.196 179.667 364.6 179.667 362.43C179.667 360.148 181.011 358.678 183.069 358.678C185.127 358.678 186.289 360.12 186.289 362.108ZM180.619 361.814H185.323C185.323 360.54 184.497 359.462 183.027 359.462C181.641 359.462 180.689 360.484 180.619 361.814ZM115.838 378.678C117.588 378.678 118.988 380.078 118.988 382.43C118.988 384.768 117.588 386.168 115.838 386.168C114.592 386.168 113.85 385.552 113.43 384.782H113.402V386H112.492V375.99H113.402V380.008H113.43C113.85 379.322 114.592 378.678 115.838 378.678ZM115.74 385.37C117.224 385.37 118.036 384.026 118.036 382.43C118.036 380.82 117.224 379.462 115.74 379.462C114.368 379.462 113.402 380.624 113.402 382.43C113.402 384.222 114.368 385.37 115.74 385.37ZM125.045 383.368V378.86H125.955V386H125.045V384.992H125.017C124.611 385.58 123.841 386.168 122.567 386.168C121.293 386.168 120.229 385.454 120.229 383.872V378.86H121.139V383.676C121.139 384.586 121.559 385.37 122.791 385.37C124.149 385.37 125.045 384.418 125.045 383.368ZM128.677 377.432H127.501V376.256H128.677V377.432ZM128.551 386H127.641V378.86H128.551V386ZM131.135 386H130.225V375.99H131.135V386ZM138.003 380.064V375.99H138.913V386H138.003V384.838H137.975C137.569 385.538 136.813 386.182 135.567 386.182C133.831 386.182 132.431 384.782 132.431 382.43C132.431 380.092 133.831 378.692 135.567 378.692C136.813 378.692 137.555 379.308 137.975 380.064H138.003ZM135.679 385.384C137.051 385.384 138.003 384.236 138.003 382.43C138.003 380.638 137.051 379.49 135.679 379.49C134.195 379.49 133.383 380.834 133.383 382.43C133.383 384.04 134.195 385.384 135.679 385.384ZM141.638 377.432H140.462V376.256H141.638V377.432ZM141.512 386H140.602V378.86H141.512V386ZM146.574 378.692C147.848 378.692 148.912 379.406 148.912 380.988V386H148.002V381.184C148.002 380.274 147.582 379.49 146.35 379.49C144.992 379.49 144.096 380.442 144.096 381.492V386H143.186V378.86H144.096V379.882H144.124C144.53 379.294 145.3 378.692 146.574 378.692ZM155.763 379.98V378.86H156.673V385.552C156.673 387.582 155.413 388.562 153.453 388.562C151.521 388.562 150.499 387.624 150.387 386.378H151.339C151.479 387.148 152.081 387.764 153.467 387.764C154.909 387.764 155.763 387.134 155.763 385.678V384.348H155.735C155.315 385.09 154.531 385.664 153.327 385.664C151.619 385.664 150.191 384.544 150.191 382.164C150.191 379.812 151.619 378.692 153.327 378.692C154.531 378.692 155.315 379.266 155.735 379.98H155.763ZM153.453 384.866C154.769 384.866 155.763 383.998 155.763 382.164C155.763 380.358 154.769 379.49 153.453 379.49C151.983 379.49 151.143 380.554 151.143 382.164C151.143 383.802 151.983 384.866 153.453 384.866ZM163.595 376.704C162.909 376.704 162.741 376.914 162.741 377.796V378.86H164.155V379.658H162.741V386H161.831V379.658H160.823V378.86H161.831V377.81C161.831 376.256 162.447 375.906 163.469 375.906C163.665 375.906 163.833 375.92 164.155 375.962V376.732C163.903 376.718 163.791 376.704 163.595 376.704ZM167.921 386.196C165.779 386.196 164.491 384.656 164.491 382.444C164.491 380.218 165.779 378.678 167.921 378.678C170.063 378.678 171.351 380.218 171.351 382.444C171.351 384.656 170.063 386.196 167.921 386.196ZM167.921 385.398C169.587 385.398 170.399 384.082 170.399 382.444C170.399 380.792 169.587 379.476 167.921 379.476C166.255 379.476 165.443 380.792 165.443 382.444C165.443 384.082 166.255 385.398 167.921 385.398ZM175.603 378.692C175.855 378.692 176.051 378.706 176.219 378.734V379.63C176.079 379.602 175.925 379.588 175.785 379.588C174.497 379.588 173.545 380.624 173.545 382.01V386H172.635V378.86H173.545V380.316H173.573C173.937 379.378 174.595 378.692 175.603 378.692Z" fill="#6F7074"/>
<defs>
<clipPath id="clip0_2496_706">
<rect width="122" height="26" fill="white" transform="translate(198.5 474)"/>
</clipPath>
<clipPath id="clip1_2496_706">
<rect width="82" height="26" fill="white" transform="translate(650.5 474)"/>
</clipPath>
<clipPath id="clip2_2496_706">
<rect width="85" height="26" fill="white" transform="translate(966.333 474)"/>
</clipPath>
</defs>
</svg>
