<svg width="1152" height="494" viewBox="0 0 1152 494" fill="none" xmlns="http://www.w3.org/2000/svg">
<mask id="path-1-inside-1_2496_706" fill="white">
<path d="M45 425H470V437H45V425Z"/>
</mask>
<path d="M45 437H43.5V438.5H45V437ZM470 437V435.5H45V437V438.5H470V437ZM45 437H46.5V425H45H43.5V437H45Z" fill="#393B3F" mask="url(#path-1-inside-1_2496_706)"/>
<g clip-path="url(#clip0_2496_706)">
<path d="M202.242 463.224C199.346 463.224 198.178 461.576 198.642 459.192L200.13 451.56H201.57L200.082 459.192C199.698 461.16 200.498 461.944 202.402 461.944C204.386 461.944 205.602 461.048 205.97 459.192L207.458 451.56H208.898L207.41 459.192C206.962 461.496 205.426 463.224 202.242 463.224ZM212.41 463H210.97L213.194 451.56H214.922L218.81 460.952H218.874L220.698 451.56H222.138L219.914 463H218.186L214.298 453.608H214.234L212.41 463ZM228.618 463H224.314L226.538 451.56H230.458C233.242 451.56 234.842 452.872 234.842 455.912C234.842 459.8 232.218 463 228.618 463ZM226.01 461.72H228.826C231.498 461.72 233.386 459.112 233.386 455.944C233.386 454.088 232.746 452.84 230.202 452.84H227.722L226.01 461.72ZM245.551 463H237.439L239.663 451.56H247.583L247.327 452.84H240.847L240.159 456.44H245.871L245.615 457.72H239.903L239.135 461.72H245.807L245.551 463ZM250.692 463H249.252L251.476 451.56H255.908C258.18 451.56 259.332 452.536 259.332 454.216C259.332 455.912 258.212 457.352 256.612 457.704V457.752C259.06 458.248 257.268 462.712 257.844 462.904L257.828 463H256.276C255.876 462.52 257.764 458.376 254.868 458.376H251.588L250.692 463ZM251.844 457.096H254.932C256.708 457.096 257.86 455.944 257.86 454.408C257.86 453.352 257.252 452.84 255.524 452.84H252.66L251.844 457.096ZM266.075 463.224C263.227 463.224 261.339 461.704 261.531 459.208H262.939C262.923 461 264.091 461.944 266.107 461.944C267.819 461.944 269.083 461.336 269.083 459.768C269.083 458.616 268.331 458.28 266.139 457.544C263.947 456.808 262.891 456.152 262.891 454.536C262.891 452.392 264.811 451.336 267.163 451.336C269.675 451.336 271.259 452.456 271.035 454.904H269.627C269.707 453.368 268.923 452.616 267.035 452.616C265.643 452.616 264.331 453.016 264.331 454.376C264.331 455.48 265.019 455.768 266.923 456.424C269.179 457.208 270.539 457.72 270.539 459.672C270.539 461.992 268.699 463.224 266.075 463.224ZM277.305 463H275.865L277.833 452.84H274.025L274.281 451.56H283.337L283.081 452.84H279.273L277.305 463ZM283.434 463H281.914L288.362 451.56H289.978L292.01 463H290.49L290.042 460.136H285.002L283.434 463ZM288.922 452.888L285.722 458.856H289.818L288.954 452.888H288.922ZM296.77 463H295.33L297.554 451.56H299.282L303.17 460.952H303.234L305.058 451.56H306.498L304.274 463H302.546L298.658 453.608H298.594L296.77 463ZM312.977 463H308.673L310.897 451.56H314.817C317.601 451.56 319.201 452.872 319.201 455.912C319.201 459.8 316.577 463 312.977 463ZM310.369 461.72H313.185C315.857 461.72 317.745 459.112 317.745 455.944C317.745 454.088 317.105 452.84 314.561 452.84H312.081L310.369 461.72Z" fill="#393B3F"/>
</g>
<mask id="path-4-inside-2_2496_706" fill="white">
<path d="M470 425H909V437H470V425Z"/>
</mask>
<path d="M909 437V438.5H910.5V437H909ZM470 437H468.5V438.5H470V437ZM909 425H907.5V437H909H910.5V425H909ZM909 437V435.5H470V437V438.5H909V437ZM470 437H471.5V425H470H468.5V437H470Z" fill="#393B3F" mask="url(#path-4-inside-2_2496_706)"/>
<g clip-path="url(#clip1_2496_706)">
<path d="M658.301 463H650.189L652.413 451.56H660.333L660.077 452.84H653.597L652.909 456.44H658.621L658.365 457.72H652.653L651.885 461.72H658.557L658.301 463ZM662.514 463H660.77L665.81 457.112L663.266 451.56H664.866L666.786 456.104H666.802L670.53 451.56H672.162L667.362 457.128L670.098 463H668.498L666.402 458.184H666.386L662.514 463ZM674.738 463H673.298L675.522 451.56H679.922C681.81 451.56 683.218 452.2 683.218 454.264C683.218 456.52 681.49 458.216 678.866 458.216H675.666L674.738 463ZM675.922 456.936H679.106C680.754 456.936 681.762 455.816 681.762 454.36C681.762 453.288 681.298 452.84 679.762 452.84H676.706L675.922 456.936ZM692.567 463H685.127L687.351 451.56H688.791L686.823 461.72H692.823L692.567 463ZM700.057 463.224C697.145 463.224 695.417 461.336 695.417 458.584C695.417 454.696 698.361 451.336 702.217 451.336C705.129 451.336 706.857 453.224 706.857 455.976C706.857 459.864 703.913 463.224 700.057 463.224ZM700.169 461.944C703.289 461.944 705.401 459.128 705.401 455.976C705.401 454.088 704.457 452.616 702.105 452.616C698.985 452.616 696.873 455.432 696.873 458.584C696.873 460.472 697.817 461.944 700.169 461.944ZM710.879 463H709.439L711.663 451.56H716.095C718.367 451.56 719.519 452.536 719.519 454.216C719.519 455.912 718.399 457.352 716.799 457.704V457.752C719.247 458.248 717.455 462.712 718.031 462.904L718.015 463H716.463C716.063 462.52 717.951 458.376 715.055 458.376H711.775L710.879 463ZM712.031 457.096H715.119C716.895 457.096 718.047 455.944 718.047 454.408C718.047 453.352 717.439 452.84 715.711 452.84H712.847L712.031 457.096ZM729.91 463H721.798L724.022 451.56H731.942L731.686 452.84H725.206L724.518 456.44H730.23L729.974 457.72H724.262L723.494 461.72H730.166L729.91 463Z" fill="#393B3F"/>
</g>
<mask id="path-7-inside-3_2496_706" fill="white">
<path d="M909 425H1106V437H909V425Z"/>
</mask>
<path d="M1106 437V438.5H1107.5V437H1106ZM1106 425H1104.5V437H1106H1107.5V425H1106ZM1106 437V435.5H909V437V438.5H1106V437Z" fill="#393B3F" mask="url(#path-7-inside-3_2496_706)"/>
<g clip-path="url(#clip2_2496_706)">
<path d="M970.341 463H968.773L966.901 451.56H968.469L969.797 461.528H969.813L975.029 451.56H976.565L970.341 463ZM977.15 463H975.63L982.078 451.56H983.694L985.726 463H984.206L983.758 460.136H978.718L977.15 463ZM982.638 452.888L979.438 458.856H983.534L982.67 452.888H982.638ZM996.486 463H989.046L991.27 451.56H992.71L990.742 461.72H996.742L996.486 463ZM1001.35 463H999.905L1002.13 451.56H1003.57L1001.35 463ZM1010.05 463H1005.75L1007.97 451.56H1011.89C1014.68 451.56 1016.28 452.872 1016.28 455.912C1016.28 459.8 1013.65 463 1010.05 463ZM1007.45 461.72H1010.26C1012.93 461.72 1014.82 459.112 1014.82 455.944C1014.82 454.088 1014.18 452.84 1011.64 452.84H1009.16L1007.45 461.72ZM1019.06 463H1017.54L1023.98 451.56H1025.6L1027.63 463H1026.11L1025.66 460.136H1020.62L1019.06 463ZM1024.54 452.888L1021.34 458.856H1025.44L1024.58 452.888H1024.54ZM1033.68 463H1032.24L1034.21 452.84H1030.4L1030.65 451.56H1039.71L1039.45 452.84H1035.65L1033.68 463ZM1049.02 463H1040.91L1043.13 451.56H1051.05L1050.79 452.84H1044.31L1043.63 456.44H1049.34L1049.08 457.72H1043.37L1042.6 461.72H1049.27L1049.02 463Z" fill="#393B3F"/>
</g>
<path d="M1008.12 97V97.875H1009.88V97H1009H1008.12ZM1009 37H1009.88C1009.88 36.5168 1009.48 36.125 1009 36.125V37ZM362 37V36.125C361.517 36.125 361.125 36.5168 361.125 37H362ZM362 82L367.052 73.25H356.948L362 82ZM1009 97H1009.88V37H1009H1008.12V97H1009ZM1009 37V36.125H362V37V37.875H1009V37ZM362 37H361.125V74.125H362H362.875V37H362Z" fill="#393B3F"/>
<path d="M919 185C919 136.399 958.399 97 1007 97C1055.6 97 1095 136.399 1095 185C1095 233.601 1055.6 273 1007 273C958.399 273 919 233.601 919 185Z" fill="#27292E"/>
<path d="M962.157 191H960.989V179.56H968.637V180.584H962.157V184.632H967.501V185.656H962.157V191ZM980.004 191H972.068V179.56H979.828V180.584H973.236V184.52H979.124V185.544H973.236V189.976H980.004V191ZM991.644 191H983.708V179.56H991.468V180.584H984.876V184.52H990.764V185.544H984.876V189.976H991.644V191ZM999.445 191H995.349V179.56H999.493C1002.69 179.56 1004.47 181.768 1004.47 185.304C1004.47 188.84 1002.64 191 999.445 191ZM996.517 189.976H999.445C1002.31 189.976 1003.25 187.832 1003.25 185.304C1003.25 182.76 1002.36 180.584 999.477 180.584H996.517V189.976ZM1013.2 191H1008.33V179.56H1012.89C1015.15 179.56 1016.51 180.648 1016.51 182.44C1016.51 183.8 1015.73 184.504 1014.7 184.856V184.888C1015.98 185.128 1016.97 186.072 1016.97 187.72C1016.97 189.88 1015.47 191 1013.2 191ZM1009.5 184.472H1013.12C1014.7 184.472 1015.29 183.688 1015.29 182.552C1015.29 181.384 1014.59 180.584 1013.12 180.584H1009.5V184.472ZM1009.5 189.976H1013.25C1015.05 189.976 1015.76 189.048 1015.76 187.72C1015.76 186.376 1014.89 185.496 1013.53 185.496H1009.5V189.976ZM1020.59 191H1019.39L1023.66 179.56H1024.97L1029.27 191H1028.03L1026.87 187.832H1021.74L1020.59 191ZM1024.3 180.664L1022.12 186.792H1026.51L1024.33 180.664H1024.3ZM1036.9 191.208C1033.79 191.208 1031.65 188.76 1031.65 185.288C1031.65 181.832 1033.78 179.352 1036.91 179.352C1039.58 179.352 1041.33 181.064 1041.62 183.208H1040.4C1040.18 181.928 1039.23 180.376 1036.9 180.376C1034.13 180.376 1032.86 182.728 1032.86 185.288C1032.86 187.848 1034.14 190.184 1036.9 190.184C1039.31 190.184 1040.32 188.52 1040.45 186.936H1041.66C1041.39 189.432 1039.62 191.208 1036.9 191.208ZM1054.42 191H1053.06L1048.74 185.096L1046.55 187.384V191H1045.38V179.56H1046.55V186.024L1052.72 179.56H1054.05L1049.49 184.312L1054.42 191Z" fill="white"/>
<path d="M989.833 316H983.407V305.99H984.429V315.104H989.833V316ZM992.676 316.182C991.248 316.182 990.338 315.384 990.338 314.194C990.338 312.654 991.43 312.164 993.278 311.842C994.454 311.632 995.21 311.548 995.21 310.694C995.21 309.966 994.734 309.476 993.586 309.476C992.2 309.476 991.71 309.966 991.64 311.016H990.674C990.744 309.756 991.542 308.678 993.614 308.678C994.93 308.678 996.092 309.238 996.092 310.946V314.516C996.092 315.09 996.176 315.356 996.498 315.356C996.554 315.356 996.61 315.356 996.694 315.342V316C996.54 316.028 996.386 316.056 996.218 316.056C995.616 316.056 995.266 315.818 995.21 314.922H995.182C994.692 315.734 993.838 316.182 992.676 316.182ZM992.788 315.384C994.244 315.384 995.21 314.614 995.21 313.326V311.996C995 312.29 994.244 312.458 993.39 312.598C992.004 312.85 991.29 313.2 991.29 314.11C991.29 314.936 991.752 315.384 992.788 315.384ZM1002.64 313.368V308.86H1003.55V316H1002.64V314.992H1002.61C1002.21 315.58 1001.44 316.168 1000.16 316.168C998.888 316.168 997.824 315.454 997.824 313.872V308.86H998.734V313.676C998.734 314.586 999.154 315.37 1000.39 315.37C1001.74 315.37 1002.64 314.418 1002.64 313.368ZM1008.62 308.692C1009.9 308.692 1010.96 309.406 1010.96 310.988V316H1010.05V311.184C1010.05 310.274 1009.63 309.49 1008.4 309.49C1007.04 309.49 1006.15 310.442 1006.15 311.492V316H1005.24V308.86H1006.15V309.882H1006.17C1006.58 309.294 1007.35 308.692 1008.62 308.692ZM1015.61 316.182C1013.57 316.182 1012.2 314.67 1012.2 312.43C1012.2 310.204 1013.57 308.692 1015.61 308.692C1017.35 308.692 1018.53 309.854 1018.68 311.366H1017.73C1017.67 310.568 1017.1 309.49 1015.61 309.49C1013.86 309.49 1013.15 310.974 1013.15 312.43C1013.15 313.9 1013.86 315.398 1015.61 315.398C1017.11 315.398 1017.67 314.32 1017.73 313.452H1018.68C1018.58 314.992 1017.35 316.182 1015.61 316.182ZM1023.29 308.692C1024.57 308.692 1025.63 309.406 1025.63 310.988V316H1024.72V311.184C1024.72 310.274 1024.3 309.49 1023.07 309.49C1021.71 309.49 1020.82 310.442 1020.82 311.492V316H1019.91V305.99H1020.82V309.882H1020.84C1021.25 309.294 1022.02 308.692 1023.29 308.692ZM1027.11 317.694V317.092C1027.55 316.924 1027.69 316.672 1027.68 316H1027.11V314.824H1028.28V316C1028.28 316.798 1028.06 317.4 1027.11 317.694ZM956.587 336.182C954.543 336.182 953.171 334.67 953.171 332.43C953.171 330.204 954.543 328.692 956.587 328.692C958.323 328.692 959.499 329.854 959.653 331.366H958.701C958.645 330.568 958.071 329.49 956.587 329.49C954.837 329.49 954.123 330.974 954.123 332.43C954.123 333.9 954.837 335.398 956.587 335.398C958.085 335.398 958.645 334.32 958.701 333.452H959.653C959.555 334.992 958.323 336.182 956.587 336.182ZM962.837 336.182C961.409 336.182 960.499 335.384 960.499 334.194C960.499 332.654 961.591 332.164 963.439 331.842C964.615 331.632 965.371 331.548 965.371 330.694C965.371 329.966 964.895 329.476 963.747 329.476C962.361 329.476 961.871 329.966 961.801 331.016H960.835C960.905 329.756 961.703 328.678 963.775 328.678C965.091 328.678 966.253 329.238 966.253 330.946V334.516C966.253 335.09 966.337 335.356 966.659 335.356C966.715 335.356 966.771 335.356 966.855 335.342V336C966.701 336.028 966.547 336.056 966.379 336.056C965.777 336.056 965.427 335.818 965.371 334.922H965.343C964.853 335.734 963.999 336.182 962.837 336.182ZM962.949 335.384C964.405 335.384 965.371 334.614 965.371 333.326V331.996C965.161 332.29 964.405 332.458 963.551 332.598C962.165 332.85 961.451 333.2 961.451 334.11C961.451 334.936 961.913 335.384 962.949 335.384ZM971.415 328.678C973.165 328.678 974.565 330.078 974.565 332.43C974.565 334.768 973.165 336.168 971.415 336.168C970.169 336.168 969.427 335.552 969.007 334.796H968.979V338.478H968.069V328.86H968.979V330.008H969.007C969.427 329.322 970.169 328.678 971.415 328.678ZM971.317 335.37C972.801 335.37 973.613 334.026 973.613 332.43C973.613 330.82 972.801 329.476 971.317 329.476C969.945 329.476 968.979 330.624 968.979 332.43C968.979 334.222 969.945 335.37 971.317 335.37ZM978.482 328.86V329.658H977.04V334.166C977.04 335.048 977.236 335.258 977.936 335.258C978.16 335.258 978.272 335.244 978.482 335.23V336C978.202 336.042 978.034 336.056 977.81 336.056C976.774 336.056 976.13 335.706 976.13 334.152V329.658H975.08V328.86H976.13V326.48H977.04V328.86H978.482ZM984.422 333.368V328.86H985.332V336H984.422V334.992H984.394C983.988 335.58 983.218 336.168 981.944 336.168C980.67 336.168 979.606 335.454 979.606 333.872V328.86H980.516V333.676C980.516 334.586 980.936 335.37 982.168 335.37C983.526 335.37 984.422 334.418 984.422 333.368ZM989.986 328.692C990.238 328.692 990.434 328.706 990.602 328.734V329.63C990.462 329.602 990.308 329.588 990.168 329.588C988.88 329.588 987.928 330.624 987.928 332.01V336H987.018V328.86H987.928V330.316H987.956C988.32 329.378 988.978 328.692 989.986 328.692ZM997.418 332.108C997.418 332.304 997.418 332.5 997.404 332.612H991.748C991.762 334.054 992.532 335.412 994.212 335.412C995.682 335.412 996.256 334.404 996.396 333.816H997.32C996.97 335.118 995.99 336.196 994.198 336.196C992.014 336.196 990.796 334.6 990.796 332.43C990.796 330.148 992.14 328.678 994.198 328.678C996.256 328.678 997.418 330.12 997.418 332.108ZM991.748 331.814H996.452C996.452 330.54 995.626 329.462 994.156 329.462C992.77 329.462 991.818 330.484 991.748 331.814ZM1003.95 326.704C1003.27 326.704 1003.1 326.914 1003.1 327.796V328.86H1004.51V329.658H1003.1V336H1002.19V329.658H1001.18V328.86H1002.19V327.81C1002.19 326.256 1002.81 325.906 1003.83 325.906C1004.02 325.906 1004.19 325.92 1004.51 325.962V326.732C1004.26 326.718 1004.15 326.704 1003.95 326.704ZM1011.49 332.108C1011.49 332.304 1011.49 332.5 1011.47 332.612H1005.82C1005.83 334.054 1006.6 335.412 1008.28 335.412C1009.75 335.412 1010.32 334.404 1010.46 333.816H1011.39C1011.04 335.118 1010.06 336.196 1008.27 336.196C1006.08 336.196 1004.86 334.6 1004.86 332.43C1004.86 330.148 1006.21 328.678 1008.27 328.678C1010.32 328.678 1011.49 330.12 1011.49 332.108ZM1005.82 331.814H1010.52C1010.52 330.54 1009.69 329.462 1008.22 329.462C1006.84 329.462 1005.89 330.484 1005.82 331.814ZM1019.01 332.108C1019.01 332.304 1019.01 332.5 1018.99 332.612H1013.34C1013.35 334.054 1014.12 335.412 1015.8 335.412C1017.27 335.412 1017.84 334.404 1017.98 333.816H1018.91C1018.56 335.118 1017.58 336.196 1015.79 336.196C1013.6 336.196 1012.38 334.6 1012.38 332.43C1012.38 330.148 1013.73 328.678 1015.79 328.678C1017.84 328.678 1019.01 330.12 1019.01 332.108ZM1013.34 331.814H1018.04C1018.04 330.54 1017.21 329.462 1015.74 329.462C1014.36 329.462 1013.41 330.484 1013.34 331.814ZM1025.48 330.064V325.99H1026.39V336H1025.48V334.838H1025.45C1025.04 335.538 1024.29 336.182 1023.04 336.182C1021.3 336.182 1019.9 334.782 1019.9 332.43C1019.9 330.092 1021.3 328.692 1023.04 328.692C1024.29 328.692 1025.03 329.308 1025.45 330.064H1025.48ZM1023.15 335.384C1024.52 335.384 1025.48 334.236 1025.48 332.43C1025.48 330.638 1024.52 329.49 1023.15 329.49C1021.67 329.49 1020.86 330.834 1020.86 332.43C1020.86 334.04 1021.67 335.384 1023.15 335.384ZM1031.42 328.678C1033.17 328.678 1034.57 330.078 1034.57 332.43C1034.57 334.768 1033.17 336.168 1031.42 336.168C1030.17 336.168 1029.43 335.552 1029.01 334.782H1028.98V336H1028.07V325.99H1028.98V330.008H1029.01C1029.43 329.322 1030.17 328.678 1031.42 328.678ZM1031.32 335.37C1032.81 335.37 1033.62 334.026 1033.62 332.43C1033.62 330.82 1032.81 329.462 1031.32 329.462C1029.95 329.462 1028.98 330.624 1028.98 332.43C1028.98 334.222 1029.95 335.37 1031.32 335.37ZM1037.83 336.182C1036.4 336.182 1035.49 335.384 1035.49 334.194C1035.49 332.654 1036.58 332.164 1038.43 331.842C1039.61 331.632 1040.36 331.548 1040.36 330.694C1040.36 329.966 1039.89 329.476 1038.74 329.476C1037.35 329.476 1036.86 329.966 1036.79 331.016H1035.83C1035.9 329.756 1036.69 328.678 1038.77 328.678C1040.08 328.678 1041.24 329.238 1041.24 330.946V334.516C1041.24 335.09 1041.33 335.356 1041.65 335.356C1041.71 335.356 1041.76 335.356 1041.85 335.342V336C1041.69 336.028 1041.54 336.056 1041.37 336.056C1040.77 336.056 1040.42 335.818 1040.36 334.922H1040.33C1039.84 335.734 1038.99 336.182 1037.83 336.182ZM1037.94 335.384C1039.4 335.384 1040.36 334.614 1040.36 333.326V331.996C1040.15 332.29 1039.4 332.458 1038.54 332.598C1037.16 332.85 1036.44 333.2 1036.44 334.11C1036.44 334.936 1036.9 335.384 1037.94 335.384ZM1046.01 336.182C1043.97 336.182 1042.6 334.67 1042.6 332.43C1042.6 330.204 1043.97 328.692 1046.01 328.692C1047.75 328.692 1048.93 329.854 1049.08 331.366H1048.13C1048.07 330.568 1047.5 329.49 1046.01 329.49C1044.26 329.49 1043.55 330.974 1043.55 332.43C1043.55 333.9 1044.26 335.398 1046.01 335.398C1047.51 335.398 1048.07 334.32 1048.13 333.452H1049.08C1048.98 334.992 1047.75 336.182 1046.01 336.182ZM1056.23 336H1055.15L1052.45 332.052L1051.21 333.2V336H1050.3V325.99H1051.21V332.22L1054.76 328.86H1055.88L1053.06 331.478L1056.23 336ZM1056.73 337.694V337.092C1057.18 336.924 1057.32 336.672 1057.3 336H1056.73V334.824H1057.9V336C1057.9 336.798 1057.68 337.4 1056.73 337.694ZM974.284 356H973.206L970.504 352.052L969.272 353.2V356H968.362V345.99H969.272V352.22L972.814 348.86H973.934L971.12 351.478L974.284 356ZM980.827 352.108C980.827 352.304 980.827 352.5 980.813 352.612H975.157C975.171 354.054 975.941 355.412 977.621 355.412C979.091 355.412 979.665 354.404 979.805 353.816H980.729C980.379 355.118 979.399 356.196 977.607 356.196C975.423 356.196 974.205 354.6 974.205 352.43C974.205 350.148 975.549 348.678 977.607 348.678C979.665 348.678 980.827 350.12 980.827 352.108ZM975.157 351.814H979.861C979.861 350.54 979.035 349.462 977.565 349.462C976.179 349.462 975.227 350.484 975.157 351.814ZM988.347 352.108C988.347 352.304 988.347 352.5 988.333 352.612H982.677C982.691 354.054 983.461 355.412 985.141 355.412C986.611 355.412 987.185 354.404 987.325 353.816H988.249C987.899 355.118 986.919 356.196 985.127 356.196C982.943 356.196 981.725 354.6 981.725 352.43C981.725 350.148 983.069 348.678 985.127 348.678C987.185 348.678 988.347 350.12 988.347 352.108ZM982.677 351.814H987.381C987.381 350.54 986.555 349.462 985.085 349.462C983.699 349.462 982.747 350.484 982.677 351.814ZM992.968 348.678C994.718 348.678 996.118 350.078 996.118 352.43C996.118 354.768 994.718 356.168 992.968 356.168C991.722 356.168 990.98 355.552 990.56 354.796H990.532V358.478H989.622V348.86H990.532V350.008H990.56C990.98 349.322 991.722 348.678 992.968 348.678ZM992.87 355.37C994.354 355.37 995.166 354.026 995.166 352.43C995.166 350.82 994.354 349.476 992.87 349.476C991.498 349.476 990.532 350.624 990.532 352.43C990.532 354.222 991.498 355.37 992.87 355.37ZM1001.51 347.432H1000.34V346.256H1001.51V347.432ZM1001.39 356H1000.48V348.86H1001.39V356ZM1005.81 348.86V349.658H1004.36V354.166C1004.36 355.048 1004.56 355.258 1005.26 355.258C1005.48 355.258 1005.6 355.244 1005.81 355.23V356C1005.53 356.042 1005.36 356.056 1005.13 356.056C1004.1 356.056 1003.45 355.706 1003.45 354.152V349.658H1002.4V348.86H1003.45V346.48H1004.36V348.86H1005.81ZM1013.07 352.108C1013.07 352.304 1013.07 352.5 1013.05 352.612H1007.4C1007.41 354.054 1008.18 355.412 1009.86 355.412C1011.33 355.412 1011.9 354.404 1012.04 353.816H1012.97C1012.62 355.118 1011.64 356.196 1009.85 356.196C1007.66 356.196 1006.44 354.6 1006.44 352.43C1006.44 350.148 1007.79 348.678 1009.85 348.678C1011.9 348.678 1013.07 350.12 1013.07 352.108ZM1007.4 351.814H1012.1C1012.1 350.54 1011.27 349.462 1009.8 349.462C1008.42 349.462 1007.47 350.484 1007.4 351.814ZM1017.31 348.692C1017.56 348.692 1017.76 348.706 1017.92 348.734V349.63C1017.78 349.602 1017.63 349.588 1017.49 349.588C1016.2 349.588 1015.25 350.624 1015.25 352.01V356H1014.34V348.86H1015.25V350.316H1015.28C1015.64 349.378 1016.3 348.692 1017.31 348.692ZM1020.55 356.182C1019.12 356.182 1018.21 355.384 1018.21 354.194C1018.21 352.654 1019.31 352.164 1021.15 351.842C1022.33 351.632 1023.09 351.548 1023.09 350.694C1023.09 349.966 1022.61 349.476 1021.46 349.476C1020.08 349.476 1019.59 349.966 1019.52 351.016H1018.55C1018.62 349.756 1019.42 348.678 1021.49 348.678C1022.81 348.678 1023.97 349.238 1023.97 350.946V354.516C1023.97 355.09 1024.05 355.356 1024.37 355.356C1024.43 355.356 1024.49 355.356 1024.57 355.342V356C1024.42 356.028 1024.26 356.056 1024.09 356.056C1023.49 356.056 1023.14 355.818 1023.09 354.922H1023.06C1022.57 355.734 1021.71 356.182 1020.55 356.182ZM1020.66 355.384C1022.12 355.384 1023.09 354.614 1023.09 353.326V351.996C1022.88 352.29 1022.12 352.458 1021.27 352.598C1019.88 352.85 1019.17 353.2 1019.17 354.11C1019.17 354.936 1019.63 355.384 1020.66 355.384ZM1028.41 348.86V349.658H1026.96V354.166C1026.96 355.048 1027.16 355.258 1027.86 355.258C1028.08 355.258 1028.2 355.244 1028.41 355.23V356C1028.13 356.042 1027.96 356.056 1027.73 356.056C1026.7 356.056 1026.05 355.706 1026.05 354.152V349.658H1025V348.86H1026.05V346.48H1026.96V348.86H1028.41ZM1030.62 347.432H1029.45V346.256H1030.62V347.432ZM1030.5 356H1029.59V348.86H1030.5V356ZM1035.56 348.692C1036.83 348.692 1037.9 349.406 1037.9 350.988V356H1036.99V351.184C1036.99 350.274 1036.57 349.49 1035.33 349.49C1033.98 349.49 1033.08 350.442 1033.08 351.492V356H1032.17V348.86H1033.08V349.882H1033.11C1033.51 349.294 1034.28 348.692 1035.56 348.692ZM1044.75 349.98V348.86H1045.66V355.552C1045.66 357.582 1044.4 358.562 1042.44 358.562C1040.5 358.562 1039.48 357.624 1039.37 356.378H1040.32C1040.46 357.148 1041.06 357.764 1042.45 357.764C1043.89 357.764 1044.75 357.134 1044.75 355.678V354.348H1044.72C1044.3 355.09 1043.51 355.664 1042.31 355.664C1040.6 355.664 1039.17 354.544 1039.17 352.164C1039.17 349.812 1040.6 348.692 1042.31 348.692C1043.51 348.692 1044.3 349.266 1044.72 349.98H1044.75ZM1042.44 354.866C1043.75 354.866 1044.75 353.998 1044.75 352.164C1044.75 350.358 1043.75 349.49 1042.44 349.49C1040.97 349.49 1040.13 350.554 1040.13 352.164C1040.13 353.802 1040.97 354.866 1042.44 354.866Z" fill="#6F7074"/>
<path d="M879 184.125H878.125V185.875H879V185V184.125ZM911 185L902.25 179.948V190.052L911 185ZM879 185V185.875H903.125V185V184.125H879V185Z" fill="#393B3F"/>
<path d="M703 185C703 136.399 742.399 97 791 97C839.601 97 879 136.399 879 185C879 233.601 839.601 273 791 273C742.399 273 703 233.601 703 185Z" fill="#27292E"/>
<path d="M762.82 191H758.724V179.56H762.868C766.068 179.56 767.844 181.768 767.844 185.304C767.844 188.84 766.02 191 762.82 191ZM759.892 189.976H762.82C765.684 189.976 766.628 187.832 766.628 185.304C766.628 182.76 765.732 180.584 762.852 180.584H759.892V189.976ZM779.644 191H771.708V179.56H779.468V180.584H772.876V184.52H778.764V185.544H772.876V189.976H779.644V191ZM787.461 191.208C784.709 191.208 782.725 189.784 782.565 187.208H783.781C783.941 188.984 785.029 190.184 787.413 190.184C789.525 190.184 790.245 189.176 790.245 187.912C790.261 186.216 789.077 185.928 786.725 185.4C784.853 184.968 783.045 184.392 783.045 182.296C783.045 180.472 784.501 179.352 786.853 179.352C789.333 179.352 790.901 180.616 791.077 182.856H789.861C789.669 181.272 788.789 180.376 786.853 180.376C785.173 180.376 784.261 181.064 784.261 182.248C784.261 183.784 785.621 184.104 787.301 184.472C789.653 184.984 791.461 185.56 791.461 187.88C791.461 189.736 790.181 191.208 787.461 191.208ZM796.376 191H795.208V179.56H796.376V191ZM805.41 191.208C802.05 191.208 800.242 188.696 800.242 185.288C800.242 181.896 802.306 179.352 805.554 179.352C808.29 179.352 809.858 180.792 810.258 182.952H809.058C808.722 181.288 807.394 180.376 805.554 180.376C802.69 180.376 801.458 182.904 801.458 185.288C801.458 187.688 802.45 190.184 805.41 190.184C807.634 190.184 809.282 188.568 809.282 186.168H805.49V185.128H810.45V191H809.65L809.298 188.968H809.266C808.546 190.312 807.362 191.208 805.41 191.208ZM815.626 191H814.458V179.56H815.882L822.074 189.352H822.106V179.56H823.274V191H821.85L815.658 181.208H815.626V191Z" fill="white"/>
<path d="M748.138 316H747.13V306.886H743.728V305.99H751.554V306.886H748.138V316ZM755.707 313.368V308.86H756.617V316H755.707V314.992H755.679C755.273 315.58 754.503 316.168 753.229 316.168C751.955 316.168 750.891 315.454 750.891 313.872V308.86H751.801V313.676C751.801 314.586 752.221 315.37 753.453 315.37C754.811 315.37 755.707 314.418 755.707 313.368ZM761.271 308.692C761.523 308.692 761.719 308.706 761.887 308.734V309.63C761.747 309.602 761.593 309.588 761.453 309.588C760.165 309.588 759.213 310.624 759.213 312.01V316H758.303V308.86H759.213V310.316H759.241C759.605 309.378 760.263 308.692 761.271 308.692ZM766.244 308.692C767.518 308.692 768.582 309.406 768.582 310.988V316H767.672V311.184C767.672 310.274 767.252 309.49 766.02 309.49C764.662 309.49 763.766 310.442 763.766 311.492V316H762.856V308.86H763.766V309.882H763.794C764.2 309.294 764.97 308.692 766.244 308.692ZM776.62 308.678C778.37 308.678 779.77 310.078 779.77 312.43C779.77 314.768 778.37 316.168 776.62 316.168C775.374 316.168 774.632 315.552 774.212 314.796H774.184V318.478H773.274V308.86H774.184V310.008H774.212C774.632 309.322 775.374 308.678 776.62 308.678ZM776.522 315.37C778.006 315.37 778.818 314.026 778.818 312.43C778.818 310.82 778.006 309.476 776.522 309.476C775.15 309.476 774.184 310.624 774.184 312.43C774.184 314.222 775.15 315.37 776.522 315.37ZM784.035 308.692C784.287 308.692 784.483 308.706 784.651 308.734V309.63C784.511 309.602 784.357 309.588 784.217 309.588C782.929 309.588 781.977 310.624 781.977 312.01V316H781.067V308.86H781.977V310.316H782.005C782.369 309.378 783.027 308.692 784.035 308.692ZM788.261 316.196C786.119 316.196 784.831 314.656 784.831 312.444C784.831 310.218 786.119 308.678 788.261 308.678C790.403 308.678 791.691 310.218 791.691 312.444C791.691 314.656 790.403 316.196 788.261 316.196ZM788.261 315.398C789.927 315.398 790.739 314.082 790.739 312.444C790.739 310.792 789.927 309.476 788.261 309.476C786.595 309.476 785.783 310.792 785.783 312.444C785.783 314.082 786.595 315.398 788.261 315.398ZM796.321 308.678C798.071 308.678 799.471 310.078 799.471 312.43C799.471 314.768 798.071 316.168 796.321 316.168C795.075 316.168 794.333 315.552 793.913 314.796H793.885V318.478H792.975V308.86H793.885V310.008H793.913C794.333 309.322 795.075 308.678 796.321 308.678ZM796.223 315.37C797.707 315.37 798.519 314.026 798.519 312.43C798.519 310.82 797.707 309.476 796.223 309.476C794.851 309.476 793.885 310.624 793.885 312.43C793.885 314.222 794.851 315.37 796.223 315.37ZM803.806 316.196C801.664 316.196 800.376 314.656 800.376 312.444C800.376 310.218 801.664 308.678 803.806 308.678C805.948 308.678 807.236 310.218 807.236 312.444C807.236 314.656 805.948 316.196 803.806 316.196ZM803.806 315.398C805.472 315.398 806.284 314.082 806.284 312.444C806.284 310.792 805.472 309.476 803.806 309.476C802.14 309.476 801.328 310.792 801.328 312.444C801.328 314.082 802.14 315.398 803.806 315.398ZM811.152 316.182C809.15 316.182 808.058 315.09 808.016 313.662H808.968C809.024 314.642 809.668 315.384 811.166 315.384C812.524 315.384 812.986 314.754 812.986 314.054C812.986 313.004 811.922 312.892 810.928 312.654C809.612 312.318 808.282 311.996 808.282 310.61C808.282 309.448 809.206 308.692 810.816 308.692C812.678 308.692 813.546 309.686 813.672 310.862H812.72C812.594 310.232 812.216 309.49 810.83 309.49C809.808 309.49 809.234 309.882 809.234 310.554C809.234 311.45 810.2 311.576 811.278 311.842C812.622 312.164 813.952 312.542 813.952 314.026C813.952 315.328 812.916 316.182 811.152 316.182ZM816.159 307.432H814.983V306.256H816.159V307.432ZM816.033 316H815.123V308.86H816.033V316ZM820.451 308.86V309.658H819.009V314.166C819.009 315.048 819.205 315.258 819.905 315.258C820.129 315.258 820.241 315.244 820.451 315.23V316C820.171 316.042 820.003 316.056 819.779 316.056C818.743 316.056 818.099 315.706 818.099 314.152V309.658H817.049V308.86H818.099V306.48H819.009V308.86H820.451ZM822.667 307.432H821.491V306.256H822.667V307.432ZM822.541 316H821.631V308.86H822.541V316ZM827.253 316.196C825.111 316.196 823.823 314.656 823.823 312.444C823.823 310.218 825.111 308.678 827.253 308.678C829.395 308.678 830.683 310.218 830.683 312.444C830.683 314.656 829.395 316.196 827.253 316.196ZM827.253 315.398C828.919 315.398 829.731 314.082 829.731 312.444C829.731 310.792 828.919 309.476 827.253 309.476C825.587 309.476 824.775 310.792 824.775 312.444C824.775 314.082 825.587 315.398 827.253 315.398ZM835.355 308.692C836.629 308.692 837.693 309.406 837.693 310.988V316H836.783V311.184C836.783 310.274 836.363 309.49 835.131 309.49C833.773 309.49 832.877 310.442 832.877 311.492V316H831.967V308.86H832.877V309.882H832.905C833.311 309.294 834.081 308.692 835.355 308.692ZM734.237 327.432H733.061V326.256H734.237V327.432ZM734.111 336H733.201V328.86H734.111V336ZM739.173 328.692C740.447 328.692 741.511 329.406 741.511 330.988V336H740.601V331.184C740.601 330.274 740.181 329.49 738.949 329.49C737.591 329.49 736.695 330.442 736.695 331.492V336H735.785V328.86H736.695V329.882H736.723C737.129 329.294 737.899 328.692 739.173 328.692ZM745.816 328.86V329.658H744.374V334.166C744.374 335.048 744.57 335.258 745.27 335.258C745.494 335.258 745.606 335.244 745.816 335.23V336C745.536 336.042 745.368 336.056 745.144 336.056C744.108 336.056 743.464 335.706 743.464 334.152V329.658H742.414V328.86H743.464V326.48H744.374V328.86H745.816ZM749.87 336.196C747.728 336.196 746.44 334.656 746.44 332.444C746.44 330.218 747.728 328.678 749.87 328.678C752.012 328.678 753.3 330.218 753.3 332.444C753.3 334.656 752.012 336.196 749.87 336.196ZM749.87 335.398C751.536 335.398 752.348 334.082 752.348 332.444C752.348 330.792 751.536 329.476 749.87 329.476C748.204 329.476 747.392 330.792 747.392 332.444C747.392 334.082 748.204 335.398 749.87 335.398ZM760.279 336.182C758.277 336.182 757.185 335.09 757.143 333.662H758.095C758.151 334.642 758.795 335.384 760.293 335.384C761.651 335.384 762.113 334.754 762.113 334.054C762.113 333.004 761.049 332.892 760.055 332.654C758.739 332.318 757.409 331.996 757.409 330.61C757.409 329.448 758.333 328.692 759.943 328.692C761.805 328.692 762.673 329.686 762.799 330.862H761.847C761.721 330.232 761.343 329.49 759.957 329.49C758.935 329.49 758.361 329.882 758.361 330.554C758.361 331.45 759.327 331.576 760.405 331.842C761.749 332.164 763.079 332.542 763.079 334.026C763.079 335.328 762.043 336.182 760.279 336.182ZM767.274 336.182C765.23 336.182 763.858 334.67 763.858 332.43C763.858 330.204 765.23 328.692 767.274 328.692C769.01 328.692 770.186 329.854 770.34 331.366H769.388C769.332 330.568 768.758 329.49 767.274 329.49C765.524 329.49 764.81 330.974 764.81 332.43C764.81 333.9 765.524 335.398 767.274 335.398C768.772 335.398 769.332 334.32 769.388 333.452H770.34C770.242 334.992 769.01 336.182 767.274 336.182ZM773.525 336.182C772.097 336.182 771.187 335.384 771.187 334.194C771.187 332.654 772.279 332.164 774.127 331.842C775.303 331.632 776.059 331.548 776.059 330.694C776.059 329.966 775.583 329.476 774.435 329.476C773.049 329.476 772.559 329.966 772.489 331.016H771.523C771.593 329.756 772.391 328.678 774.463 328.678C775.779 328.678 776.941 329.238 776.941 330.946V334.516C776.941 335.09 777.025 335.356 777.347 335.356C777.403 335.356 777.459 335.356 777.543 335.342V336C777.389 336.028 777.235 336.056 777.067 336.056C776.465 336.056 776.115 335.818 776.059 334.922H776.031C775.541 335.734 774.687 336.182 773.525 336.182ZM773.637 335.384C775.093 335.384 776.059 334.614 776.059 333.326V331.996C775.849 332.29 775.093 332.458 774.239 332.598C772.853 332.85 772.139 333.2 772.139 334.11C772.139 334.936 772.601 335.384 773.637 335.384ZM779.666 336H778.756V325.99H779.666V336ZM783.3 336.182C781.872 336.182 780.962 335.384 780.962 334.194C780.962 332.654 782.054 332.164 783.902 331.842C785.078 331.632 785.834 331.548 785.834 330.694C785.834 329.966 785.358 329.476 784.21 329.476C782.824 329.476 782.334 329.966 782.264 331.016H781.298C781.368 329.756 782.166 328.678 784.238 328.678C785.554 328.678 786.716 329.238 786.716 330.946V334.516C786.716 335.09 786.8 335.356 787.122 335.356C787.178 335.356 787.234 335.356 787.318 335.342V336C787.164 336.028 787.01 336.056 786.842 336.056C786.24 336.056 785.89 335.818 785.834 334.922H785.806C785.316 335.734 784.462 336.182 783.3 336.182ZM783.412 335.384C784.868 335.384 785.834 334.614 785.834 333.326V331.996C785.624 332.29 784.868 332.458 784.014 332.598C782.628 332.85 781.914 333.2 781.914 334.11C781.914 334.936 782.376 335.384 783.412 335.384ZM791.877 328.678C793.627 328.678 795.027 330.078 795.027 332.43C795.027 334.768 793.627 336.168 791.877 336.168C790.631 336.168 789.889 335.552 789.469 334.782H789.441V336H788.531V325.99H789.441V330.008H789.469C789.889 329.322 790.631 328.678 791.877 328.678ZM791.779 335.37C793.263 335.37 794.075 334.026 794.075 332.43C794.075 330.82 793.263 329.462 791.779 329.462C790.407 329.462 789.441 330.624 789.441 332.43C789.441 334.222 790.407 335.37 791.779 335.37ZM797.234 336H796.324V325.99H797.234V336ZM805.152 332.108C805.152 332.304 805.152 332.5 805.138 332.612H799.482C799.496 334.054 800.266 335.412 801.946 335.412C803.416 335.412 803.99 334.404 804.13 333.816H805.054C804.704 335.118 803.724 336.196 801.932 336.196C799.748 336.196 798.53 334.6 798.53 332.43C798.53 330.148 799.874 328.678 801.932 328.678C803.99 328.678 805.152 330.12 805.152 332.108ZM799.482 331.814H804.186C804.186 330.54 803.36 329.462 801.89 329.462C800.504 329.462 799.552 330.484 799.482 331.814ZM806.041 337.694V337.092C806.489 336.924 806.629 336.672 806.615 336H806.041V334.824H807.217V336C807.217 336.798 806.993 337.4 806.041 337.694ZM816.192 333.368V328.86H817.102V336H816.192V334.992H816.164C815.758 335.58 814.988 336.168 813.714 336.168C812.44 336.168 811.376 335.454 811.376 333.872V328.86H812.286V333.676C812.286 334.586 812.706 335.37 813.938 335.37C815.296 335.37 816.192 334.418 816.192 333.368ZM821.419 336.182C819.417 336.182 818.325 335.09 818.283 333.662H819.235C819.291 334.642 819.935 335.384 821.433 335.384C822.791 335.384 823.253 334.754 823.253 334.054C823.253 333.004 822.189 332.892 821.195 332.654C819.879 332.318 818.549 331.996 818.549 330.61C818.549 329.448 819.473 328.692 821.083 328.692C822.945 328.692 823.813 329.686 823.939 330.862H822.987C822.861 330.232 822.483 329.49 821.097 329.49C820.075 329.49 819.501 329.882 819.501 330.554C819.501 331.45 820.467 331.576 821.545 331.842C822.889 332.164 824.219 332.542 824.219 334.026C824.219 335.328 823.183 336.182 821.419 336.182ZM827.351 336.182C825.923 336.182 825.013 335.384 825.013 334.194C825.013 332.654 826.105 332.164 827.953 331.842C829.129 331.632 829.885 331.548 829.885 330.694C829.885 329.966 829.409 329.476 828.261 329.476C826.875 329.476 826.385 329.966 826.315 331.016H825.349C825.419 329.756 826.217 328.678 828.289 328.678C829.605 328.678 830.767 329.238 830.767 330.946V334.516C830.767 335.09 830.851 335.356 831.173 335.356C831.229 335.356 831.285 335.356 831.369 335.342V336C831.215 336.028 831.061 336.056 830.893 336.056C830.291 336.056 829.941 335.818 829.885 334.922H829.857C829.367 335.734 828.513 336.182 827.351 336.182ZM827.463 335.384C828.919 335.384 829.885 334.614 829.885 333.326V331.996C829.675 332.29 828.919 332.458 828.065 332.598C826.679 332.85 825.965 333.2 825.965 334.11C825.965 334.936 826.427 335.384 827.463 335.384ZM835.928 328.678C837.678 328.678 839.078 330.078 839.078 332.43C839.078 334.768 837.678 336.168 835.928 336.168C834.682 336.168 833.94 335.552 833.52 334.782H833.492V336H832.582V325.99H833.492V330.008H833.52C833.94 329.322 834.682 328.678 835.928 328.678ZM835.83 335.37C837.314 335.37 838.126 334.026 838.126 332.43C838.126 330.82 837.314 329.462 835.83 329.462C834.458 329.462 833.492 330.624 833.492 332.43C833.492 334.222 834.458 335.37 835.83 335.37ZM841.285 336H840.375V325.99H841.285V336ZM849.203 332.108C849.203 332.304 849.203 332.5 849.189 332.612H843.533C843.547 334.054 844.317 335.412 845.997 335.412C847.467 335.412 848.041 334.404 848.181 333.816H849.105C848.755 335.118 847.775 336.196 845.983 336.196C843.799 336.196 842.581 334.6 842.581 332.43C842.581 330.148 843.925 328.678 845.983 328.678C848.041 328.678 849.203 330.12 849.203 332.108ZM843.533 331.814H848.237C848.237 330.54 847.411 329.462 845.941 329.462C844.555 329.462 843.603 330.484 843.533 331.814ZM752.501 353.368V348.86H753.411V356H752.501V354.992H752.473C752.067 355.58 751.297 356.168 750.023 356.168C748.749 356.168 747.685 355.454 747.685 353.872V348.86H748.595V353.676C748.595 354.586 749.015 355.37 750.247 355.37C751.605 355.37 752.501 354.418 752.501 353.368ZM757.729 356.182C755.727 356.182 754.635 355.09 754.593 353.662H755.545C755.601 354.642 756.245 355.384 757.743 355.384C759.101 355.384 759.563 354.754 759.563 354.054C759.563 353.004 758.499 352.892 757.505 352.654C756.189 352.318 754.859 351.996 754.859 350.61C754.859 349.448 755.783 348.692 757.393 348.692C759.255 348.692 760.123 349.686 760.249 350.862H759.297C759.171 350.232 758.793 349.49 757.407 349.49C756.385 349.49 755.811 349.882 755.811 350.554C755.811 351.45 756.777 351.576 757.855 351.842C759.199 352.164 760.529 352.542 760.529 354.026C760.529 355.328 759.493 356.182 757.729 356.182ZM767.944 352.108C767.944 352.304 767.944 352.5 767.93 352.612H762.274C762.288 354.054 763.058 355.412 764.738 355.412C766.208 355.412 766.782 354.404 766.922 353.816H767.846C767.496 355.118 766.516 356.196 764.724 356.196C762.54 356.196 761.322 354.6 761.322 352.43C761.322 350.148 762.666 348.678 764.724 348.678C766.782 348.678 767.944 350.12 767.944 352.108ZM762.274 351.814H766.978C766.978 350.54 766.152 349.462 764.682 349.462C763.296 349.462 762.344 350.484 762.274 351.814ZM772.188 348.692C772.44 348.692 772.636 348.706 772.804 348.734V349.63C772.664 349.602 772.51 349.588 772.37 349.588C771.082 349.588 770.13 350.624 770.13 352.01V356H769.22V348.86H770.13V350.316H770.158C770.522 349.378 771.18 348.692 772.188 348.692ZM778.865 356H777.857L775.589 348.86H776.597L778.375 354.964H778.403L780.069 348.86H781.091L782.757 354.964H782.785L784.577 348.86H785.557L783.275 356H782.253L780.573 349.966H780.545L778.865 356ZM789.443 356.196C787.301 356.196 786.013 354.656 786.013 352.444C786.013 350.218 787.301 348.678 789.443 348.678C791.585 348.678 792.873 350.218 792.873 352.444C792.873 354.656 791.585 356.196 789.443 356.196ZM789.443 355.398C791.109 355.398 791.921 354.082 791.921 352.444C791.921 350.792 791.109 349.476 789.443 349.476C787.777 349.476 786.965 350.792 786.965 352.444C786.965 354.082 787.777 355.398 789.443 355.398ZM797.125 348.692C797.377 348.692 797.573 348.706 797.741 348.734V349.63C797.601 349.602 797.447 349.588 797.307 349.588C796.019 349.588 795.067 350.624 795.067 352.01V356H794.157V348.86H795.067V350.316H795.095C795.459 349.378 796.117 348.692 797.125 348.692ZM804.632 356H803.554L800.852 352.052L799.62 353.2V356H798.71V345.99H799.62V352.22L803.162 348.86H804.282L801.468 351.478L804.632 356ZM805.72 348.86V347.81C805.72 346.256 806.336 345.906 807.358 345.906C807.554 345.906 807.722 345.92 808.044 345.962V346.732C807.792 346.718 807.68 346.704 807.484 346.704C806.798 346.704 806.63 346.914 806.63 347.796V348.86H808.044V349.658H806.63V356H805.72V349.658H804.712V348.86H805.72ZM809.01 356V345.99H809.92V356H809.01ZM814.641 356.196C812.499 356.196 811.211 354.656 811.211 352.444C811.211 350.218 812.499 348.678 814.641 348.678C816.783 348.678 818.071 350.218 818.071 352.444C818.071 354.656 816.783 356.196 814.641 356.196ZM814.641 355.398C816.307 355.398 817.119 354.082 817.119 352.444C817.119 350.792 816.307 349.476 814.641 349.476C812.975 349.476 812.163 350.792 812.163 352.444C812.163 354.082 812.975 355.398 814.641 355.398ZM821.809 356H820.801L818.533 348.86H819.541L821.319 354.964H821.347L823.013 348.86H824.035L825.701 354.964H825.729L827.521 348.86H828.501L826.219 356H825.197L823.517 349.966H823.489L821.809 356ZM831.967 356.182C829.965 356.182 828.873 355.09 828.831 353.662H829.783C829.839 354.642 830.483 355.384 831.981 355.384C833.339 355.384 833.801 354.754 833.801 354.054C833.801 353.004 832.737 352.892 831.743 352.654C830.427 352.318 829.097 351.996 829.097 350.61C829.097 349.448 830.021 348.692 831.631 348.692C833.493 348.692 834.361 349.686 834.487 350.862H833.535C833.409 350.232 833.031 349.49 831.645 349.49C830.623 349.49 830.049 349.882 830.049 350.554C830.049 351.45 831.015 351.576 832.093 351.842C833.437 352.164 834.767 352.542 834.767 354.026C834.767 355.328 833.731 356.182 831.967 356.182Z" fill="#6F7074"/>
<path d="M663 184.125H662.125V185.875H663V185V184.125ZM695 185L686.25 179.948V190.052L695 185ZM663 185V185.875H687.125V185V184.125H663V185Z" fill="#393B3F"/>
<path d="M487 185C487 136.399 526.399 97 575 97C623.601 97 663 136.399 663 185C663 233.601 623.601 273 575 273C526.399 273 487 233.601 487 185Z" fill="#27292E"/>
<path d="M513.072 191H511.904V179.56H519.552V180.584H513.072V184.632H518.416V185.656H513.072V191ZM527.503 191.208C524.191 191.208 521.999 188.712 521.999 185.272C521.999 181.832 524.191 179.352 527.503 179.352C530.799 179.352 532.991 181.832 532.991 185.272C532.991 188.712 530.799 191.208 527.503 191.208ZM527.503 190.184C530.319 190.184 531.775 187.976 531.775 185.272C531.775 182.568 530.319 180.376 527.503 180.376C524.671 180.376 523.215 182.568 523.215 185.272C523.215 187.976 524.671 190.184 527.503 190.184ZM541.065 191.208C538.073 191.208 536.761 189.576 536.761 187.144V179.56H537.929V187.144C537.929 189.192 538.953 190.184 541.065 190.184C543.177 190.184 544.201 189.192 544.201 187.144V179.56H545.369V187.144C545.369 189.576 544.057 191.208 541.065 191.208ZM550.884 191H549.716V179.56H551.14L557.332 189.352H557.364V179.56H558.532V191H557.108L550.916 181.208H550.884V191ZM567.062 191H562.966V179.56H567.11C570.31 179.56 572.086 181.768 572.086 185.304C572.086 188.84 570.262 191 567.062 191ZM564.134 189.976H567.062C569.926 189.976 570.87 187.832 570.87 185.304C570.87 182.76 569.974 180.584 567.094 180.584H564.134V189.976ZM575.688 191H574.488L578.76 179.56H580.072L584.376 191H583.128L581.976 187.832H576.84L575.688 191ZM579.4 180.664L577.224 186.792H581.608L579.432 180.664H579.4ZM590.218 191H589.066V180.584H585.178V179.56H594.122V180.584H590.218V191ZM598.728 191H597.56V179.56H598.728V191ZM608.082 191.208C604.77 191.208 602.578 188.712 602.578 185.272C602.578 181.832 604.77 179.352 608.082 179.352C611.378 179.352 613.57 181.832 613.57 185.272C613.57 188.712 611.378 191.208 608.082 191.208ZM608.082 190.184C610.898 190.184 612.354 187.976 612.354 185.272C612.354 182.568 610.898 180.376 608.082 180.376C605.25 180.376 603.794 182.568 603.794 185.272C603.794 187.976 605.25 190.184 608.082 190.184ZM618.587 191H617.419V179.56H618.843L625.035 189.352H625.067V179.56H626.235V191H624.811L618.619 181.208H618.587V191ZM634.781 191.208C632.029 191.208 630.045 189.784 629.885 187.208H631.101C631.261 188.984 632.349 190.184 634.733 190.184C636.845 190.184 637.565 189.176 637.565 187.912C637.581 186.216 636.397 185.928 634.045 185.4C632.173 184.968 630.365 184.392 630.365 182.296C630.365 180.472 631.821 179.352 634.173 179.352C636.653 179.352 638.221 180.616 638.397 182.856H637.181C636.989 181.272 636.109 180.376 634.173 180.376C632.493 180.376 631.581 181.064 631.581 182.248C631.581 183.784 632.941 184.104 634.621 184.472C636.973 184.984 638.781 185.56 638.781 187.88C638.781 189.736 637.501 191.208 634.781 191.208Z" fill="white"/>
<path d="M523.734 316.182C520.794 316.182 519.212 313.984 519.212 311.002C519.212 308.034 521.018 305.808 523.86 305.808C526.254 305.808 527.626 307.068 527.976 308.958H526.926C526.632 307.502 525.47 306.704 523.86 306.704C521.354 306.704 520.276 308.916 520.276 311.002C520.276 313.102 521.144 315.286 523.734 315.286C525.68 315.286 527.122 313.872 527.122 311.772H523.804V310.862H528.144V316H527.444L527.136 314.222H527.108C526.478 315.398 525.442 316.182 523.734 316.182ZM532.645 308.692C532.897 308.692 533.093 308.706 533.261 308.734V309.63C533.121 309.602 532.967 309.588 532.827 309.588C531.539 309.588 530.587 310.624 530.587 312.01V316H529.677V308.86H530.587V310.316H530.615C530.979 309.378 531.637 308.692 532.645 308.692ZM536.871 316.196C534.729 316.196 533.441 314.656 533.441 312.444C533.441 310.218 534.729 308.678 536.871 308.678C539.013 308.678 540.301 310.218 540.301 312.444C540.301 314.656 539.013 316.196 536.871 316.196ZM536.871 315.398C538.537 315.398 539.349 314.082 539.349 312.444C539.349 310.792 538.537 309.476 536.871 309.476C535.205 309.476 534.393 310.792 534.393 312.444C534.393 314.082 535.205 315.398 536.871 315.398ZM546.345 313.368V308.86H547.255V316H546.345V314.992H546.317C545.911 315.58 545.141 316.168 543.867 316.168C542.593 316.168 541.529 315.454 541.529 313.872V308.86H542.439V313.676C542.439 314.586 542.859 315.37 544.091 315.37C545.449 315.37 546.345 314.418 546.345 313.368ZM552.329 308.692C553.603 308.692 554.667 309.406 554.667 310.988V316H553.757V311.184C553.757 310.274 553.337 309.49 552.105 309.49C550.747 309.49 549.851 310.442 549.851 311.492V316H548.941V308.86H549.851V309.882H549.879C550.285 309.294 551.055 308.692 552.329 308.692ZM561.49 310.064V305.99H562.4V316H561.49V314.838H561.462C561.056 315.538 560.3 316.182 559.054 316.182C557.318 316.182 555.918 314.782 555.918 312.43C555.918 310.092 557.318 308.692 559.054 308.692C560.3 308.692 561.042 309.308 561.462 310.064H561.49ZM559.166 315.384C560.538 315.384 561.49 314.236 561.49 312.43C561.49 310.638 560.538 309.49 559.166 309.49C557.682 309.49 556.87 310.834 556.87 312.43C556.87 314.04 557.682 315.384 559.166 315.384ZM572.346 310.064V305.99H573.256V316H572.346V314.838H572.318C571.912 315.538 571.156 316.182 569.91 316.182C568.174 316.182 566.774 314.782 566.774 312.43C566.774 310.092 568.174 308.692 569.91 308.692C571.156 308.692 571.898 309.308 572.318 310.064H572.346ZM570.022 315.384C571.394 315.384 572.346 314.236 572.346 312.43C572.346 310.638 571.394 309.49 570.022 309.49C568.538 309.49 567.726 310.834 567.726 312.43C567.726 314.04 568.538 315.384 570.022 315.384ZM581.188 312.108C581.188 312.304 581.188 312.5 581.174 312.612H575.518C575.532 314.054 576.302 315.412 577.982 315.412C579.452 315.412 580.026 314.404 580.166 313.816H581.09C580.74 315.118 579.76 316.196 577.968 316.196C575.784 316.196 574.566 314.6 574.566 312.43C574.566 310.148 575.91 308.678 577.968 308.678C580.026 308.678 581.188 310.12 581.188 312.108ZM575.518 311.814H580.222C580.222 310.54 579.396 309.462 577.926 309.462C576.54 309.462 575.588 310.484 575.518 311.814ZM585.096 316.182C583.094 316.182 582.002 315.09 581.96 313.662H582.912C582.968 314.642 583.612 315.384 585.11 315.384C586.468 315.384 586.93 314.754 586.93 314.054C586.93 313.004 585.866 312.892 584.872 312.654C583.556 312.318 582.226 311.996 582.226 310.61C582.226 309.448 583.15 308.692 584.76 308.692C586.622 308.692 587.49 309.686 587.616 310.862H586.664C586.538 310.232 586.16 309.49 584.774 309.49C583.752 309.49 583.178 309.882 583.178 310.554C583.178 311.45 584.144 311.576 585.222 311.842C586.566 312.164 587.896 312.542 587.896 314.026C587.896 315.328 586.86 316.182 585.096 316.182ZM590.104 307.432H588.928V306.256H590.104V307.432ZM589.978 316H589.068V308.86H589.978V316ZM596.874 309.98V308.86H597.784V315.552C597.784 317.582 596.524 318.562 594.564 318.562C592.632 318.562 591.61 317.624 591.498 316.378H592.45C592.59 317.148 593.192 317.764 594.578 317.764C596.02 317.764 596.874 317.134 596.874 315.678V314.348H596.846C596.426 315.09 595.642 315.664 594.438 315.664C592.73 315.664 591.302 314.544 591.302 312.164C591.302 309.812 592.73 308.692 594.438 308.692C595.642 308.692 596.426 309.266 596.846 309.98H596.874ZM594.564 314.866C595.88 314.866 596.874 313.998 596.874 312.164C596.874 310.358 595.88 309.49 594.564 309.49C593.094 309.49 592.254 310.554 592.254 312.164C592.254 313.802 593.094 314.866 594.564 314.866ZM602.832 308.692C604.106 308.692 605.17 309.406 605.17 310.988V316H604.26V311.184C604.26 310.274 603.84 309.49 602.608 309.49C601.25 309.49 600.354 310.442 600.354 311.492V316H599.444V308.86H600.354V309.882H600.382C600.788 309.294 601.558 308.692 602.832 308.692ZM611.822 316.182C610.394 316.182 609.484 315.384 609.484 314.194C609.484 312.654 610.576 312.164 612.424 311.842C613.6 311.632 614.356 311.548 614.356 310.694C614.356 309.966 613.88 309.476 612.732 309.476C611.346 309.476 610.856 309.966 610.786 311.016H609.82C609.89 309.756 610.688 308.678 612.76 308.678C614.076 308.678 615.238 309.238 615.238 310.946V314.516C615.238 315.09 615.322 315.356 615.644 315.356C615.7 315.356 615.756 315.356 615.84 315.342V316C615.686 316.028 615.532 316.056 615.364 316.056C614.762 316.056 614.412 315.818 614.356 314.922H614.328C613.838 315.734 612.984 316.182 611.822 316.182ZM611.934 315.384C613.39 315.384 614.356 314.614 614.356 313.326V311.996C614.146 312.29 613.39 312.458 612.536 312.598C611.15 312.85 610.436 313.2 610.436 314.11C610.436 314.936 610.898 315.384 611.934 315.384ZM620.442 308.692C621.716 308.692 622.78 309.406 622.78 310.988V316H621.87V311.184C621.87 310.274 621.45 309.49 620.218 309.49C618.86 309.49 617.964 310.442 617.964 311.492V316H617.054V308.86H617.964V309.882H617.992C618.398 309.294 619.168 308.692 620.442 308.692ZM629.603 310.064V305.99H630.513V316H629.603V314.838H629.575C629.169 315.538 628.413 316.182 627.167 316.182C625.431 316.182 624.031 314.782 624.031 312.43C624.031 310.092 625.431 308.692 627.167 308.692C628.413 308.692 629.155 309.308 629.575 310.064H629.603ZM627.279 315.384C628.651 315.384 629.603 314.236 629.603 312.43C629.603 310.638 628.651 309.49 627.279 309.49C625.795 309.49 624.983 310.834 624.983 312.43C624.983 314.04 625.795 315.384 627.279 315.384ZM526.241 332.108C526.241 332.304 526.241 332.5 526.227 332.612H520.571C520.585 334.054 521.355 335.412 523.035 335.412C524.505 335.412 525.079 334.404 525.219 333.816H526.143C525.793 335.118 524.813 336.196 523.021 336.196C520.837 336.196 519.619 334.6 519.619 332.43C519.619 330.148 520.963 328.678 523.021 328.678C525.079 328.678 526.241 330.12 526.241 332.108ZM520.571 331.814H525.275C525.275 330.54 524.449 329.462 522.979 329.462C521.593 329.462 520.641 330.484 520.571 331.814ZM530.905 328.692C532.179 328.692 533.243 329.406 533.243 330.988V336H532.333V331.184C532.333 330.274 531.913 329.49 530.681 329.49C529.323 329.49 528.427 330.442 528.427 331.492V336H527.517V328.86H528.427V329.882H528.455C528.861 329.294 529.631 328.692 530.905 328.692ZM540.094 329.98V328.86H541.004V335.552C541.004 337.582 539.744 338.562 537.784 338.562C535.852 338.562 534.83 337.624 534.718 336.378H535.67C535.81 337.148 536.412 337.764 537.798 337.764C539.24 337.764 540.094 337.134 540.094 335.678V334.348H540.066C539.646 335.09 538.862 335.664 537.658 335.664C535.95 335.664 534.522 334.544 534.522 332.164C534.522 329.812 535.95 328.692 537.658 328.692C538.862 328.692 539.646 329.266 540.066 329.98H540.094ZM537.784 334.866C539.1 334.866 540.094 333.998 540.094 332.164C540.094 330.358 539.1 329.49 537.784 329.49C536.314 329.49 535.474 330.554 535.474 332.164C535.474 333.802 536.314 334.866 537.784 334.866ZM543.701 327.432H542.525V326.256H543.701V327.432ZM543.575 336H542.665V328.86H543.575V336ZM548.637 328.692C549.911 328.692 550.975 329.406 550.975 330.988V336H550.065V331.184C550.065 330.274 549.645 329.49 548.413 329.49C547.055 329.49 546.159 330.442 546.159 331.492V336H545.249V328.86H546.159V329.882H546.187C546.593 329.294 547.363 328.692 548.637 328.692ZM558.849 332.108C558.849 332.304 558.849 332.5 558.835 332.612H553.179C553.193 334.054 553.963 335.412 555.643 335.412C557.113 335.412 557.687 334.404 557.827 333.816H558.751C558.401 335.118 557.421 336.196 555.629 336.196C553.445 336.196 552.227 334.6 552.227 332.43C552.227 330.148 553.571 328.678 555.629 328.678C557.687 328.678 558.849 330.12 558.849 332.108ZM553.179 331.814H557.883C557.883 330.54 557.057 329.462 555.587 329.462C554.201 329.462 553.249 330.484 553.179 331.814ZM566.368 332.108C566.368 332.304 566.368 332.5 566.354 332.612H560.698C560.712 334.054 561.482 335.412 563.162 335.412C564.632 335.412 565.206 334.404 565.346 333.816H566.27C565.92 335.118 564.94 336.196 563.148 336.196C560.964 336.196 559.746 334.6 559.746 332.43C559.746 330.148 561.09 328.678 563.148 328.678C565.206 328.678 566.368 330.12 566.368 332.108ZM560.698 331.814H565.402C565.402 330.54 564.576 329.462 563.106 329.462C561.72 329.462 560.768 330.484 560.698 331.814ZM570.612 328.692C570.864 328.692 571.06 328.706 571.228 328.734V329.63C571.088 329.602 570.934 329.588 570.794 329.588C569.506 329.588 568.554 330.624 568.554 332.01V336H567.644V328.86H568.554V330.316H568.582C568.946 329.378 569.604 328.692 570.612 328.692ZM573.232 327.432H572.056V326.256H573.232V327.432ZM573.106 336H572.196V328.86H573.106V336ZM578.168 328.692C579.442 328.692 580.506 329.406 580.506 330.988V336H579.596V331.184C579.596 330.274 579.176 329.49 577.944 329.49C576.586 329.49 575.69 330.442 575.69 331.492V336H574.78V328.86H575.69V329.882H575.718C576.124 329.294 576.894 328.692 578.168 328.692ZM587.358 329.98V328.86H588.268V335.552C588.268 337.582 587.008 338.562 585.048 338.562C583.116 338.562 582.094 337.624 581.982 336.378H582.934C583.074 337.148 583.676 337.764 585.062 337.764C586.504 337.764 587.358 337.134 587.358 335.678V334.348H587.33C586.91 335.09 586.126 335.664 584.922 335.664C583.214 335.664 581.786 334.544 581.786 332.164C581.786 329.812 583.214 328.692 584.922 328.692C586.126 328.692 586.91 329.266 587.33 329.98H587.358ZM585.048 334.866C586.364 334.866 587.358 333.998 587.358 332.164C587.358 330.358 586.364 329.49 585.048 329.49C583.578 329.49 582.738 330.554 582.738 332.164C582.738 333.802 583.578 334.866 585.048 334.866ZM594.027 327.432H592.851V326.256H594.027V327.432ZM593.901 336H592.991V328.86H593.901V336ZM598.963 328.692C600.237 328.692 601.301 329.406 601.301 330.988V336H600.391V331.184C600.391 330.274 599.971 329.49 598.739 329.49C597.381 329.49 596.485 330.442 596.485 331.492V336H595.575V328.86H596.485V329.882H596.513C596.919 329.294 597.689 328.692 598.963 328.692ZM609.031 336.196C606.889 336.196 605.601 334.656 605.601 332.444C605.601 330.218 606.889 328.678 609.031 328.678C611.173 328.678 612.461 330.218 612.461 332.444C612.461 334.656 611.173 336.196 609.031 336.196ZM609.031 335.398C610.697 335.398 611.509 334.082 611.509 332.444C611.509 330.792 610.697 329.476 609.031 329.476C607.365 329.476 606.553 330.792 606.553 332.444C606.553 334.082 607.365 335.398 609.031 335.398ZM617.133 328.692C618.407 328.692 619.471 329.406 619.471 330.988V336H618.561V331.184C618.561 330.274 618.141 329.49 616.909 329.49C615.551 329.49 614.655 330.442 614.655 331.492V336H613.745V328.86H614.655V329.882H614.683C615.089 329.294 615.859 328.692 617.133 328.692ZM627.345 332.108C627.345 332.304 627.345 332.5 627.331 332.612H621.675C621.689 334.054 622.459 335.412 624.139 335.412C625.609 335.412 626.183 334.404 626.323 333.816H627.247C626.897 335.118 625.917 336.196 624.125 336.196C621.941 336.196 620.723 334.6 620.723 332.43C620.723 330.148 622.067 328.678 624.125 328.678C626.183 328.678 627.345 330.12 627.345 332.108ZM621.675 331.814H626.379C626.379 330.54 625.553 329.462 624.083 329.462C622.697 329.462 621.745 330.484 621.675 331.814ZM536 356.182C533.998 356.182 532.906 355.09 532.864 353.662H533.816C533.872 354.642 534.516 355.384 536.014 355.384C537.372 355.384 537.834 354.754 537.834 354.054C537.834 353.004 536.77 352.892 535.776 352.654C534.46 352.318 533.13 351.996 533.13 350.61C533.13 349.448 534.054 348.692 535.664 348.692C537.526 348.692 538.394 349.686 538.52 350.862H537.568C537.442 350.232 537.064 349.49 535.678 349.49C534.656 349.49 534.082 349.882 534.082 350.554C534.082 351.45 535.048 351.576 536.126 351.842C537.47 352.164 538.8 352.542 538.8 354.026C538.8 355.328 537.764 356.182 536 356.182ZM543.01 356.196C540.868 356.196 539.58 354.656 539.58 352.444C539.58 350.218 540.868 348.678 543.01 348.678C545.152 348.678 546.44 350.218 546.44 352.444C546.44 354.656 545.152 356.196 543.01 356.196ZM543.01 355.398C544.676 355.398 545.488 354.082 545.488 352.444C545.488 350.792 544.676 349.476 543.01 349.476C541.344 349.476 540.532 350.792 540.532 352.444C540.532 354.082 541.344 355.398 543.01 355.398ZM552.484 353.368V348.86H553.394V356H552.484V354.992H552.456C552.05 355.58 551.28 356.168 550.006 356.168C548.732 356.168 547.668 355.454 547.668 353.872V348.86H548.578V353.676C548.578 354.586 548.998 355.37 550.23 355.37C551.588 355.37 552.484 354.418 552.484 353.368ZM558.047 348.692C558.299 348.692 558.495 348.706 558.663 348.734V349.63C558.523 349.602 558.369 349.588 558.229 349.588C556.941 349.588 555.989 350.624 555.989 352.01V356H555.079V348.86H555.989V350.316H556.017C556.381 349.378 557.039 348.692 558.047 348.692ZM562.26 356.182C560.216 356.182 558.844 354.67 558.844 352.43C558.844 350.204 560.216 348.692 562.26 348.692C563.996 348.692 565.172 349.854 565.326 351.366H564.374C564.318 350.568 563.744 349.49 562.26 349.49C560.51 349.49 559.796 350.974 559.796 352.43C559.796 353.9 560.51 355.398 562.26 355.398C563.758 355.398 564.318 354.32 564.374 353.452H565.326C565.228 354.992 563.996 356.182 562.26 356.182ZM572.794 352.108C572.794 352.304 572.794 352.5 572.78 352.612H567.124C567.138 354.054 567.908 355.412 569.588 355.412C571.058 355.412 571.632 354.404 571.772 353.816H572.696C572.346 355.118 571.366 356.196 569.574 356.196C567.39 356.196 566.172 354.6 566.172 352.43C566.172 350.148 567.516 348.678 569.574 348.678C571.632 348.678 572.794 350.12 572.794 352.108ZM567.124 351.814H571.828C571.828 350.54 571.002 349.462 569.532 349.462C568.146 349.462 567.194 350.484 567.124 351.814ZM580.17 356.196C578.028 356.196 576.74 354.656 576.74 352.444C576.74 350.218 578.028 348.678 580.17 348.678C582.312 348.678 583.6 350.218 583.6 352.444C583.6 354.656 582.312 356.196 580.17 356.196ZM580.17 355.398C581.836 355.398 582.648 354.082 582.648 352.444C582.648 350.792 581.836 349.476 580.17 349.476C578.504 349.476 577.692 350.792 577.692 352.444C577.692 354.082 578.504 355.398 580.17 355.398ZM586.918 346.704C586.232 346.704 586.064 346.914 586.064 347.796V348.86H587.478V349.658H586.064V356H585.154V349.658H584.146V348.86H585.154V347.81C585.154 346.256 585.77 345.906 586.792 345.906C586.988 345.906 587.156 345.92 587.478 345.962V346.732C587.226 346.718 587.114 346.704 586.918 346.704ZM593.944 348.86V349.658H592.502V354.166C592.502 355.048 592.698 355.258 593.398 355.258C593.622 355.258 593.734 355.244 593.944 355.23V356C593.664 356.042 593.496 356.056 593.272 356.056C592.236 356.056 591.592 355.706 591.592 354.152V349.658H590.542V348.86H591.592V346.48H592.502V348.86H593.944ZM598.092 348.692C598.344 348.692 598.54 348.706 598.708 348.734V349.63C598.568 349.602 598.414 349.588 598.274 349.588C596.986 349.588 596.034 350.624 596.034 352.01V356H595.124V348.86H596.034V350.316H596.062C596.426 349.378 597.084 348.692 598.092 348.692ZM604.437 353.368V348.86H605.347V356H604.437V354.992H604.409C604.003 355.58 603.233 356.168 601.959 356.168C600.685 356.168 599.621 355.454 599.621 353.872V348.86H600.531V353.676C600.531 354.586 600.951 355.37 602.183 355.37C603.541 355.37 604.437 354.418 604.437 353.368ZM609.776 348.86V349.658H608.334V354.166C608.334 355.048 608.53 355.258 609.23 355.258C609.454 355.258 609.566 355.244 609.776 355.23V356C609.496 356.042 609.328 356.056 609.104 356.056C608.068 356.056 607.424 355.706 607.424 354.152V349.658H606.374V348.86H607.424V346.48H608.334V348.86H609.776ZM614.344 348.692C615.618 348.692 616.682 349.406 616.682 350.988V356H615.772V351.184C615.772 350.274 615.352 349.49 614.12 349.49C612.762 349.49 611.866 350.442 611.866 351.492V356H610.956V345.99H611.866V349.882H611.894C612.3 349.294 613.07 348.692 614.344 348.692Z" fill="#6F7074"/>
<path d="M447 184.125H446.125V185.875H447V185V184.125ZM479 185L470.25 179.948V190.052L479 185ZM447 185V185.875H471.125V185V184.125H447V185Z" fill="#393B3F"/>
<path d="M271 185C271 136.399 310.399 97 359 97C407.601 97 447 136.399 447 185C447 233.601 407.601 273 359 273C310.399 273 271 233.601 271 185Z" fill="#27292E"/>
<path d="M299.361 191H298.193V179.56H302.593C304.705 179.56 306.289 180.456 306.289 182.856C306.289 185.256 304.705 186.168 302.593 186.168H299.361V191ZM299.361 185.144H302.705C304.257 185.144 305.073 184.424 305.073 182.856C305.073 181.304 304.257 180.584 302.705 180.584H299.361V185.144ZM311.048 191H309.88V179.56H314.36C316.792 179.56 318.12 180.696 318.12 182.792C318.12 184.312 317.24 185.352 315.992 185.672V185.704C318.616 186.232 317.704 190.712 318.328 190.904V191H317.08C316.552 190.52 317.592 186.248 314.536 186.248H311.048V191ZM311.048 185.224H314.072C315.896 185.224 316.952 184.408 316.952 182.808C316.952 181.352 316.12 180.584 314.152 180.584H311.048V185.224ZM327.042 191.208C323.73 191.208 321.538 188.712 321.538 185.272C321.538 181.832 323.73 179.352 327.042 179.352C330.338 179.352 332.53 181.832 332.53 185.272C332.53 188.712 330.338 191.208 327.042 191.208ZM327.042 190.184C329.858 190.184 331.314 187.976 331.314 185.272C331.314 182.568 329.858 180.376 327.042 180.376C324.21 180.376 322.754 182.568 322.754 185.272C322.754 187.976 324.21 190.184 327.042 190.184ZM337.548 191H336.38V179.56H340.78C342.892 179.56 344.476 180.456 344.476 182.856C344.476 185.256 342.892 186.168 340.78 186.168H337.548V191ZM337.548 185.144H340.892C342.444 185.144 343.26 184.424 343.26 182.856C343.26 181.304 342.444 180.584 340.892 180.584H337.548V185.144ZM352.933 191.208C349.621 191.208 347.429 188.712 347.429 185.272C347.429 181.832 349.621 179.352 352.933 179.352C356.229 179.352 358.421 181.832 358.421 185.272C358.421 188.712 356.229 191.208 352.933 191.208ZM352.933 190.184C355.749 190.184 357.205 187.976 357.205 185.272C357.205 182.568 355.749 180.376 352.933 180.376C350.101 180.376 348.645 182.568 348.645 185.272C348.645 187.976 350.101 190.184 352.933 190.184ZM366.383 191.208C363.631 191.208 361.647 189.784 361.487 187.208H362.703C362.863 188.984 363.951 190.184 366.335 190.184C368.447 190.184 369.167 189.176 369.167 187.912C369.183 186.216 367.999 185.928 365.647 185.4C363.775 184.968 361.967 184.392 361.967 182.296C361.967 180.472 363.423 179.352 365.775 179.352C368.255 179.352 369.823 180.616 369.999 182.856H368.783C368.591 181.272 367.711 180.376 365.775 180.376C364.095 180.376 363.183 181.064 363.183 182.248C363.183 183.784 364.543 184.104 366.223 184.472C368.575 184.984 370.383 185.56 370.383 187.88C370.383 189.736 369.103 191.208 366.383 191.208ZM375.298 191H374.13V179.56H375.298V191ZM383.788 191H382.636V180.584H378.748V179.56H387.692V180.584H383.788V191ZM392.298 191H391.13V179.56H392.298V191ZM401.652 191.208C398.34 191.208 396.148 188.712 396.148 185.272C396.148 181.832 398.34 179.352 401.652 179.352C404.948 179.352 407.14 181.832 407.14 185.272C407.14 188.712 404.948 191.208 401.652 191.208ZM401.652 190.184C404.468 190.184 405.924 187.976 405.924 185.272C405.924 182.568 404.468 180.376 401.652 180.376C398.82 180.376 397.364 182.568 397.364 185.272C397.364 187.976 398.82 190.184 401.652 190.184ZM412.157 191H410.989V179.56H412.413L418.605 189.352H418.637V179.56H419.805V191H418.381L412.189 181.208H412.157V191Z" fill="white"/>
<path d="M309.282 316H305.698V305.99H309.324C312.124 305.99 313.678 307.922 313.678 311.016C313.678 314.11 312.082 316 309.282 316ZM306.72 315.104H309.282C311.788 315.104 312.614 313.228 312.614 311.016C312.614 308.79 311.83 306.886 309.31 306.886H306.72V315.104ZM321.329 312.108C321.329 312.304 321.329 312.5 321.315 312.612H315.659C315.673 314.054 316.443 315.412 318.123 315.412C319.593 315.412 320.167 314.404 320.307 313.816H321.231C320.881 315.118 319.901 316.196 318.109 316.196C315.925 316.196 314.707 314.6 314.707 312.43C314.707 310.148 316.051 308.678 318.109 308.678C320.167 308.678 321.329 310.12 321.329 312.108ZM315.659 311.814H320.363C320.363 310.54 319.537 309.462 318.067 309.462C316.681 309.462 315.729 310.484 315.659 311.814ZM325.381 316H324.345L321.727 308.86H322.735L324.877 315.076H324.891L327.019 308.86H327.999L325.381 316ZM335.015 312.108C335.015 312.304 335.015 312.5 335.001 312.612H329.345C329.359 314.054 330.129 315.412 331.809 315.412C333.279 315.412 333.853 314.404 333.993 313.816H334.917C334.567 315.118 333.587 316.196 331.795 316.196C329.611 316.196 328.393 314.6 328.393 312.43C328.393 310.148 329.737 308.678 331.795 308.678C333.853 308.678 335.015 310.12 335.015 312.108ZM329.345 311.814H334.049C334.049 310.54 333.223 309.462 331.753 309.462C330.367 309.462 329.415 310.484 329.345 311.814ZM337.2 316H336.29V305.99H337.2V316ZM341.912 316.196C339.77 316.196 338.482 314.656 338.482 312.444C338.482 310.218 339.77 308.678 341.912 308.678C344.054 308.678 345.342 310.218 345.342 312.444C345.342 314.656 344.054 316.196 341.912 316.196ZM341.912 315.398C343.578 315.398 344.39 314.082 344.39 312.444C344.39 310.792 343.578 309.476 341.912 309.476C340.246 309.476 339.434 310.792 339.434 312.444C339.434 314.082 340.246 315.398 341.912 315.398ZM349.972 308.678C351.722 308.678 353.122 310.078 353.122 312.43C353.122 314.768 351.722 316.168 349.972 316.168C348.726 316.168 347.984 315.552 347.564 314.796H347.536V318.478H346.626V308.86H347.536V310.008H347.564C347.984 309.322 348.726 308.678 349.972 308.678ZM349.874 315.37C351.358 315.37 352.17 314.026 352.17 312.43C352.17 310.82 351.358 309.476 349.874 309.476C348.502 309.476 347.536 310.624 347.536 312.43C347.536 314.222 348.502 315.37 349.874 315.37ZM359.442 316.182C358.014 316.182 357.104 315.384 357.104 314.194C357.104 312.654 358.196 312.164 360.044 311.842C361.22 311.632 361.976 311.548 361.976 310.694C361.976 309.966 361.5 309.476 360.352 309.476C358.966 309.476 358.476 309.966 358.406 311.016H357.44C357.51 309.756 358.308 308.678 360.38 308.678C361.696 308.678 362.858 309.238 362.858 310.946V314.516C362.858 315.09 362.942 315.356 363.264 315.356C363.32 315.356 363.376 315.356 363.46 315.342V316C363.306 316.028 363.152 316.056 362.984 316.056C362.382 316.056 362.032 315.818 361.976 314.922H361.948C361.458 315.734 360.604 316.182 359.442 316.182ZM359.554 315.384C361.01 315.384 361.976 314.614 361.976 313.326V311.996C361.766 312.29 361.01 312.458 360.156 312.598C358.77 312.85 358.056 313.2 358.056 314.11C358.056 314.936 358.518 315.384 359.554 315.384ZM371.082 308.678C372.832 308.678 374.232 310.078 374.232 312.43C374.232 314.768 372.832 316.168 371.082 316.168C369.836 316.168 369.094 315.552 368.674 314.796H368.646V318.478H367.736V308.86H368.646V310.008H368.674C369.094 309.322 369.836 308.678 371.082 308.678ZM370.984 315.37C372.468 315.37 373.28 314.026 373.28 312.43C373.28 310.82 372.468 309.476 370.984 309.476C369.612 309.476 368.646 310.624 368.646 312.43C368.646 314.222 369.612 315.37 370.984 315.37ZM378.566 316.196C376.424 316.196 375.136 314.656 375.136 312.444C375.136 310.218 376.424 308.678 378.566 308.678C380.708 308.678 381.996 310.218 381.996 312.444C381.996 314.656 380.708 316.196 378.566 316.196ZM378.566 315.398C380.232 315.398 381.044 314.082 381.044 312.444C381.044 310.792 380.232 309.476 378.566 309.476C376.9 309.476 376.088 310.792 376.088 312.444C376.088 314.082 376.9 315.398 378.566 315.398ZM384.316 307.432H383.14V306.256H384.316V307.432ZM384.19 316H383.28V308.86H384.19V316ZM389.252 308.692C390.526 308.692 391.59 309.406 391.59 310.988V316H390.68V311.184C390.68 310.274 390.26 309.49 389.028 309.49C387.67 309.49 386.774 310.442 386.774 311.492V316H385.864V308.86H386.774V309.882H386.802C387.208 309.294 387.978 308.692 389.252 308.692ZM395.896 308.86V309.658H394.454V314.166C394.454 315.048 394.65 315.258 395.35 315.258C395.574 315.258 395.686 315.244 395.896 315.23V316C395.616 316.042 395.448 316.056 395.224 316.056C394.188 316.056 393.544 315.706 393.544 314.152V309.658H392.494V308.86H393.544V306.48H394.454V308.86H395.896ZM403.176 316.196C401.034 316.196 399.746 314.656 399.746 312.444C399.746 310.218 401.034 308.678 403.176 308.678C405.318 308.678 406.606 310.218 406.606 312.444C406.606 314.656 405.318 316.196 403.176 316.196ZM403.176 315.398C404.842 315.398 405.654 314.082 405.654 312.444C405.654 310.792 404.842 309.476 403.176 309.476C401.51 309.476 400.698 310.792 400.698 312.444C400.698 314.082 401.51 315.398 403.176 315.398ZM409.924 306.704C409.238 306.704 409.07 306.914 409.07 307.796V308.86H410.484V309.658H409.07V316H408.16V309.658H407.152V308.86H408.16V307.81C408.16 306.256 408.776 305.906 409.798 305.906C409.994 305.906 410.162 305.92 410.484 305.962V306.732C410.232 306.718 410.12 306.704 409.924 306.704ZM298.775 336H297.739L295.121 328.86H296.129L298.271 335.076H298.285L300.413 328.86H301.393L298.775 336ZM303.406 327.432H302.23V326.256H303.406V327.432ZM303.28 336H302.37V328.86H303.28V336ZM311.198 332.108C311.198 332.304 311.198 332.5 311.184 332.612H305.528C305.542 334.054 306.312 335.412 307.992 335.412C309.462 335.412 310.036 334.404 310.176 333.816H311.1C310.75 335.118 309.77 336.196 307.978 336.196C305.794 336.196 304.576 334.6 304.576 332.43C304.576 330.148 305.92 328.678 307.978 328.678C310.036 328.678 311.198 330.12 311.198 332.108ZM305.528 331.814H310.232C310.232 330.54 309.406 329.462 307.936 329.462C306.55 329.462 305.598 330.484 305.528 331.814ZM314.955 336H313.947L311.679 328.86H312.687L314.465 334.964H314.493L316.159 328.86H317.181L318.847 334.964H318.875L320.667 328.86H321.647L319.365 336H318.343L316.663 329.966H316.635L314.955 336ZM327.66 326.704C326.974 326.704 326.806 326.914 326.806 327.796V328.86H328.22V329.658H326.806V336H325.896V329.658H324.888V328.86H325.896V327.81C325.896 326.256 326.512 325.906 327.534 325.906C327.73 325.906 327.898 325.92 328.22 325.962V326.732C327.968 326.718 327.856 326.704 327.66 326.704ZM332.094 328.692C332.346 328.692 332.542 328.706 332.71 328.734V329.63C332.57 329.602 332.416 329.588 332.276 329.588C330.988 329.588 330.036 330.624 330.036 332.01V336H329.126V328.86H330.036V330.316H330.064C330.428 329.378 331.086 328.692 332.094 328.692ZM336.32 336.196C334.178 336.196 332.89 334.656 332.89 332.444C332.89 330.218 334.178 328.678 336.32 328.678C338.462 328.678 339.75 330.218 339.75 332.444C339.75 334.656 338.462 336.196 336.32 336.196ZM336.32 335.398C337.986 335.398 338.798 334.082 338.798 332.444C338.798 330.792 337.986 329.476 336.32 329.476C334.654 329.476 333.842 330.792 333.842 332.444C333.842 334.082 334.654 335.398 336.32 335.398ZM348.454 328.692C349.812 328.692 350.554 329.504 350.554 330.988V336H349.644V331.184C349.644 330.288 349.434 329.49 348.258 329.49C346.998 329.49 346.256 330.456 346.256 331.492V336H345.346V331.184C345.346 330.288 345.136 329.49 343.946 329.49C342.7 329.49 341.944 330.456 341.944 331.492V336H341.034V328.86H341.944V329.868H341.972C342.35 329.294 343.022 328.692 344.142 328.692C345.15 328.692 345.794 329.154 346.06 330.008H346.088C346.55 329.294 347.32 328.692 348.454 328.692ZM359.999 333.368V328.86H360.909V336H359.999V334.992H359.971C359.565 335.58 358.795 336.168 357.521 336.168C356.247 336.168 355.183 335.454 355.183 333.872V328.86H356.093V333.676C356.093 334.586 356.513 335.37 357.745 335.37C359.103 335.37 359.999 334.418 359.999 333.368ZM365.227 336.182C363.225 336.182 362.133 335.09 362.091 333.662H363.043C363.099 334.642 363.743 335.384 365.241 335.384C366.599 335.384 367.061 334.754 367.061 334.054C367.061 333.004 365.997 332.892 365.003 332.654C363.687 332.318 362.357 331.996 362.357 330.61C362.357 329.448 363.281 328.692 364.891 328.692C366.753 328.692 367.621 329.686 367.747 330.862H366.795C366.669 330.232 366.291 329.49 364.905 329.49C363.883 329.49 363.309 329.882 363.309 330.554C363.309 331.45 364.275 331.576 365.353 331.842C366.697 332.164 368.027 332.542 368.027 334.026C368.027 335.328 366.991 336.182 365.227 336.182ZM375.442 332.108C375.442 332.304 375.442 332.5 375.428 332.612H369.772C369.786 334.054 370.556 335.412 372.236 335.412C373.706 335.412 374.28 334.404 374.42 333.816H375.344C374.994 335.118 374.014 336.196 372.222 336.196C370.038 336.196 368.82 334.6 368.82 332.43C368.82 330.148 370.164 328.678 372.222 328.678C374.28 328.678 375.442 330.12 375.442 332.108ZM369.772 331.814H374.476C374.476 330.54 373.65 329.462 372.18 329.462C370.794 329.462 369.842 330.484 369.772 331.814ZM379.686 328.692C379.938 328.692 380.134 328.706 380.302 328.734V329.63C380.162 329.602 380.008 329.588 379.868 329.588C378.58 329.588 377.628 330.624 377.628 332.01V336H376.718V328.86H377.628V330.316H377.656C378.02 329.378 378.678 328.692 379.686 328.692ZM387.393 328.692C388.667 328.692 389.731 329.406 389.731 330.988V336H388.821V331.184C388.821 330.274 388.401 329.49 387.169 329.49C385.811 329.49 384.915 330.442 384.915 331.492V336H384.005V328.86H384.915V329.882H384.943C385.349 329.294 386.119 328.692 387.393 328.692ZM397.605 332.108C397.605 332.304 397.605 332.5 397.591 332.612H391.935C391.949 334.054 392.719 335.412 394.399 335.412C395.869 335.412 396.443 334.404 396.583 333.816H397.507C397.157 335.118 396.177 336.196 394.385 336.196C392.201 336.196 390.983 334.6 390.983 332.43C390.983 330.148 392.327 328.678 394.385 328.678C396.443 328.678 397.605 330.12 397.605 332.108ZM391.935 331.814H396.639C396.639 330.54 395.813 329.462 394.343 329.462C392.957 329.462 392.005 330.484 391.935 331.814ZM405.124 332.108C405.124 332.304 405.124 332.5 405.11 332.612H399.454C399.468 334.054 400.238 335.412 401.918 335.412C403.388 335.412 403.962 334.404 404.102 333.816H405.026C404.676 335.118 403.696 336.196 401.904 336.196C399.72 336.196 398.502 334.6 398.502 332.43C398.502 330.148 399.846 328.678 401.904 328.678C403.962 328.678 405.124 330.12 405.124 332.108ZM399.454 331.814H404.158C404.158 330.54 403.332 329.462 401.862 329.462C400.476 329.462 399.524 330.484 399.454 331.814ZM411.594 330.064V325.99H412.504V336H411.594V334.838H411.566C411.16 335.538 410.404 336.182 409.158 336.182C407.422 336.182 406.022 334.782 406.022 332.43C406.022 330.092 407.422 328.692 409.158 328.692C410.404 328.692 411.146 329.308 411.566 330.064H411.594ZM409.27 335.384C410.642 335.384 411.594 334.236 411.594 332.43C411.594 330.638 410.642 329.49 409.27 329.49C407.786 329.49 406.974 330.834 406.974 332.43C406.974 334.04 407.786 335.384 409.27 335.384ZM416.825 336.182C414.823 336.182 413.731 335.09 413.689 333.662H414.641C414.697 334.642 415.341 335.384 416.839 335.384C418.197 335.384 418.659 334.754 418.659 334.054C418.659 333.004 417.595 332.892 416.601 332.654C415.285 332.318 413.955 331.996 413.955 330.61C413.955 329.448 414.879 328.692 416.489 328.692C418.351 328.692 419.219 329.686 419.345 330.862H418.393C418.267 330.232 417.889 329.49 416.503 329.49C415.481 329.49 414.907 329.882 414.907 330.554C414.907 331.45 415.873 331.576 416.951 331.842C418.295 332.164 419.625 332.542 419.625 334.026C419.625 335.328 418.589 336.182 416.825 336.182ZM326.732 356.182C325.304 356.182 324.394 355.384 324.394 354.194C324.394 352.654 325.486 352.164 327.334 351.842C328.51 351.632 329.266 351.548 329.266 350.694C329.266 349.966 328.79 349.476 327.642 349.476C326.256 349.476 325.766 349.966 325.696 351.016H324.73C324.8 349.756 325.598 348.678 327.67 348.678C328.986 348.678 330.148 349.238 330.148 350.946V354.516C330.148 355.09 330.232 355.356 330.554 355.356C330.61 355.356 330.666 355.356 330.75 355.342V356C330.596 356.028 330.442 356.056 330.274 356.056C329.672 356.056 329.322 355.818 329.266 354.922H329.238C328.748 355.734 327.894 356.182 326.732 356.182ZM326.844 355.384C328.3 355.384 329.266 354.614 329.266 353.326V351.996C329.056 352.29 328.3 352.458 327.446 352.598C326.06 352.85 325.346 353.2 325.346 354.11C325.346 354.936 325.808 355.384 326.844 355.384ZM335.351 348.692C336.625 348.692 337.689 349.406 337.689 350.988V356H336.779V351.184C336.779 350.274 336.359 349.49 335.127 349.49C333.769 349.49 332.873 350.442 332.873 351.492V356H331.963V348.86H332.873V349.882H332.901C333.307 349.294 334.077 348.692 335.351 348.692ZM344.513 350.064V345.99H345.423V356H344.513V354.838H344.485C344.079 355.538 343.323 356.182 342.077 356.182C340.341 356.182 338.941 354.782 338.941 352.43C338.941 350.092 340.341 348.692 342.077 348.692C343.323 348.692 344.065 349.308 344.485 350.064H344.513ZM342.189 355.384C343.561 355.384 344.513 354.236 344.513 352.43C344.513 350.638 343.561 349.49 342.189 349.49C340.705 349.49 339.893 350.834 339.893 352.43C339.893 354.04 340.705 355.384 342.189 355.384ZM351.21 347.432H350.034V346.256H351.21V347.432ZM351.084 356H350.174V348.86H351.084V356ZM356.146 348.692C357.42 348.692 358.484 349.406 358.484 350.988V356H357.574V351.184C357.574 350.274 357.154 349.49 355.922 349.49C354.564 349.49 353.668 350.442 353.668 351.492V356H352.758V348.86H353.668V349.882H353.696C354.102 349.294 354.872 348.692 356.146 348.692ZM362.745 356.182C360.743 356.182 359.651 355.09 359.609 353.662H360.561C360.617 354.642 361.261 355.384 362.759 355.384C364.117 355.384 364.579 354.754 364.579 354.054C364.579 353.004 363.515 352.892 362.521 352.654C361.205 352.318 359.875 351.996 359.875 350.61C359.875 349.448 360.799 348.692 362.409 348.692C364.271 348.692 365.139 349.686 365.265 350.862H364.313C364.187 350.232 363.809 349.49 362.423 349.49C361.401 349.49 360.827 349.882 360.827 350.554C360.827 351.45 361.793 351.576 362.871 351.842C364.215 352.164 365.545 352.542 365.545 354.026C365.545 355.328 364.509 356.182 362.745 356.182ZM367.753 347.432H366.577V346.256H367.753V347.432ZM367.627 356H366.717V348.86H367.627V356ZM374.523 349.98V348.86H375.433V355.552C375.433 357.582 374.173 358.562 372.213 358.562C370.281 358.562 369.259 357.624 369.147 356.378H370.099C370.239 357.148 370.841 357.764 372.227 357.764C373.669 357.764 374.523 357.134 374.523 355.678V354.348H374.495C374.075 355.09 373.291 355.664 372.087 355.664C370.379 355.664 368.951 354.544 368.951 352.164C368.951 349.812 370.379 348.692 372.087 348.692C373.291 348.692 374.075 349.266 374.495 349.98H374.523ZM372.213 354.866C373.529 354.866 374.523 353.998 374.523 352.164C374.523 350.358 373.529 349.49 372.213 349.49C370.743 349.49 369.903 350.554 369.903 352.164C369.903 353.802 370.743 354.866 372.213 354.866ZM380.482 348.692C381.756 348.692 382.82 349.406 382.82 350.988V356H381.91V351.184C381.91 350.274 381.49 349.49 380.258 349.49C378.9 349.49 378.004 350.442 378.004 351.492V356H377.094V345.99H378.004V349.882H378.032C378.438 349.294 379.208 348.692 380.482 348.692ZM387.125 348.86V349.658H385.683V354.166C385.683 355.048 385.879 355.258 386.579 355.258C386.803 355.258 386.915 355.244 387.125 355.23V356C386.845 356.042 386.677 356.056 386.453 356.056C385.417 356.056 384.773 355.706 384.773 354.152V349.658H383.723V348.86H384.773V346.48H385.683V348.86H387.125ZM390.937 356.182C388.935 356.182 387.843 355.09 387.801 353.662H388.753C388.809 354.642 389.453 355.384 390.951 355.384C392.309 355.384 392.771 354.754 392.771 354.054C392.771 353.004 391.707 352.892 390.713 352.654C389.397 352.318 388.067 351.996 388.067 350.61C388.067 349.448 388.991 348.692 390.601 348.692C392.463 348.692 393.331 349.686 393.457 350.862H392.505C392.379 350.232 392.001 349.49 390.615 349.49C389.593 349.49 389.019 349.882 389.019 350.554C389.019 351.45 389.985 351.576 391.063 351.842C392.407 352.164 393.737 352.542 393.737 354.026C393.737 355.328 392.701 356.182 390.937 356.182Z" fill="#6F7074"/>
<path d="M231 184.125H230.125V185.875H231V185V184.125ZM263 185L254.25 179.948V190.052L263 185ZM231 185V185.875H255.125V185V184.125H231V185Z" fill="#393B3F"/>
<path d="M55 185C55 136.399 94.3989 97 143 97C191.601 97 231 136.399 231 185C231 233.601 191.601 273 143 273C94.3989 273 55 233.601 55 185Z" fill="#27292E"/>
<path d="M102.134 191H100.966V179.56H105.366C107.478 179.56 109.062 180.456 109.062 182.856C109.062 185.256 107.478 186.168 105.366 186.168H102.134V191ZM102.134 185.144H105.478C107.03 185.144 107.846 184.424 107.846 182.856C107.846 181.304 107.03 180.584 105.478 180.584H102.134V185.144ZM113.822 191H112.654V179.56H117.134C119.566 179.56 120.894 180.696 120.894 182.792C120.894 184.312 120.014 185.352 118.766 185.672V185.704C121.39 186.232 120.477 190.712 121.102 190.904V191H119.854C119.326 190.52 120.366 186.248 117.31 186.248H113.822V191ZM113.822 185.224H116.846C118.67 185.224 119.726 184.408 119.726 182.808C119.726 181.352 118.894 180.584 116.926 180.584H113.822V185.224ZM129.816 191.208C126.504 191.208 124.312 188.712 124.312 185.272C124.312 181.832 126.504 179.352 129.816 179.352C133.112 179.352 135.304 181.832 135.304 185.272C135.304 188.712 133.112 191.208 129.816 191.208ZM129.816 190.184C132.632 190.184 134.088 187.976 134.088 185.272C134.088 182.568 132.632 180.376 129.816 180.376C126.984 180.376 125.528 182.568 125.528 185.272C125.528 187.976 126.984 190.184 129.816 190.184ZM144.018 191H139.154V179.56H143.714C145.97 179.56 147.33 180.648 147.33 182.44C147.33 183.8 146.546 184.504 145.522 184.856V184.888C146.802 185.128 147.794 186.072 147.794 187.72C147.794 189.88 146.29 191 144.018 191ZM140.322 184.472H143.938C145.522 184.472 146.114 183.688 146.114 182.552C146.114 181.384 145.41 180.584 143.938 180.584H140.322V184.472ZM140.322 189.976H144.066C145.874 189.976 146.578 189.048 146.578 187.72C146.578 186.376 145.714 185.496 144.354 185.496H140.322V189.976ZM158.966 191H151.622V179.56H152.79V189.976H158.966V191ZM170.34 191H162.404V179.56H170.164V180.584H163.572V184.52H169.46V185.544H163.572V189.976H170.34V191ZM175.212 191H174.044V179.56H175.66L179.516 189.432H179.548L183.42 179.56H185.036V191H183.868V181.208H183.836L180.06 191H179.004L175.244 181.208H175.212V191Z" fill="white"/>
<path d="M104.371 316H103.349V305.99H107.269C109.397 305.99 110.559 306.984 110.559 308.818C110.559 310.148 109.789 311.058 108.697 311.338V311.366C110.993 311.828 110.195 315.748 110.741 315.916V316H109.649C109.187 315.58 110.097 311.842 107.423 311.842H104.371V316ZM104.371 310.946H107.017C108.613 310.946 109.537 310.232 109.537 308.832C109.537 307.558 108.809 306.886 107.087 306.886H104.371V310.946ZM118.215 312.108C118.215 312.304 118.215 312.5 118.201 312.612H112.545C112.559 314.054 113.329 315.412 115.009 315.412C116.479 315.412 117.053 314.404 117.193 313.816H118.117C117.767 315.118 116.787 316.196 114.995 316.196C112.811 316.196 111.593 314.6 111.593 312.43C111.593 310.148 112.937 308.678 114.995 308.678C117.053 308.678 118.215 310.12 118.215 312.108ZM112.545 311.814H117.249C117.249 310.54 116.423 309.462 114.953 309.462C113.567 309.462 112.615 310.484 112.545 311.814ZM122.122 316.182C120.12 316.182 119.028 315.09 118.986 313.662H119.938C119.994 314.642 120.638 315.384 122.136 315.384C123.494 315.384 123.956 314.754 123.956 314.054C123.956 313.004 122.892 312.892 121.898 312.654C120.582 312.318 119.252 311.996 119.252 310.61C119.252 309.448 120.176 308.692 121.786 308.692C123.648 308.692 124.516 309.686 124.642 310.862H123.69C123.564 310.232 123.186 309.49 121.8 309.49C120.778 309.49 120.204 309.882 120.204 310.554C120.204 311.45 121.17 311.576 122.248 311.842C123.592 312.164 124.922 312.542 124.922 314.026C124.922 315.328 123.886 316.182 122.122 316.182ZM132.338 312.108C132.338 312.304 132.338 312.5 132.324 312.612H126.668C126.682 314.054 127.452 315.412 129.132 315.412C130.602 315.412 131.176 314.404 131.316 313.816H132.24C131.89 315.118 130.91 316.196 129.118 316.196C126.934 316.196 125.716 314.6 125.716 312.43C125.716 310.148 127.06 308.678 129.118 308.678C131.176 308.678 132.338 310.12 132.338 312.108ZM126.668 311.814H131.372C131.372 310.54 130.546 309.462 129.076 309.462C127.69 309.462 126.738 310.484 126.668 311.814ZM135.573 316.182C134.145 316.182 133.235 315.384 133.235 314.194C133.235 312.654 134.327 312.164 136.175 311.842C137.351 311.632 138.107 311.548 138.107 310.694C138.107 309.966 137.631 309.476 136.483 309.476C135.097 309.476 134.607 309.966 134.537 311.016H133.571C133.641 309.756 134.439 308.678 136.511 308.678C137.827 308.678 138.989 309.238 138.989 310.946V314.516C138.989 315.09 139.073 315.356 139.395 315.356C139.451 315.356 139.507 315.356 139.591 315.342V316C139.437 316.028 139.283 316.056 139.115 316.056C138.513 316.056 138.163 315.818 138.107 314.922H138.079C137.589 315.734 136.735 316.182 135.573 316.182ZM135.685 315.384C137.141 315.384 138.107 314.614 138.107 313.326V311.996C137.897 312.29 137.141 312.458 136.287 312.598C134.901 312.85 134.187 313.2 134.187 314.11C134.187 314.936 134.649 315.384 135.685 315.384ZM143.773 308.692C144.025 308.692 144.221 308.706 144.389 308.734V309.63C144.249 309.602 144.095 309.588 143.955 309.588C142.667 309.588 141.715 310.624 141.715 312.01V316H140.805V308.86H141.715V310.316H141.743C142.107 309.378 142.765 308.692 143.773 308.692ZM147.985 316.182C145.941 316.182 144.569 314.67 144.569 312.43C144.569 310.204 145.941 308.692 147.985 308.692C149.721 308.692 150.897 309.854 151.051 311.366H150.099C150.043 310.568 149.469 309.49 147.985 309.49C146.235 309.49 145.521 310.974 145.521 312.43C145.521 313.9 146.235 315.398 147.985 315.398C149.483 315.398 150.043 314.32 150.099 313.452H151.051C150.953 314.992 149.721 316.182 147.985 316.182ZM155.664 308.692C156.938 308.692 158.002 309.406 158.002 310.988V316H157.092V311.184C157.092 310.274 156.672 309.49 155.44 309.49C154.082 309.49 153.186 310.442 153.186 311.492V316H152.276V305.99H153.186V309.882H153.214C153.62 309.294 154.39 308.692 155.664 308.692ZM165.438 308.86V309.658H163.996V314.166C163.996 315.048 164.192 315.258 164.892 315.258C165.116 315.258 165.228 315.244 165.438 315.23V316C165.158 316.042 164.99 316.056 164.766 316.056C163.73 316.056 163.086 315.706 163.086 314.152V309.658H162.036V308.86H163.086V306.48H163.996V308.86H165.438ZM170.005 308.692C171.279 308.692 172.343 309.406 172.343 310.988V316H171.433V311.184C171.433 310.274 171.013 309.49 169.781 309.49C168.423 309.49 167.527 310.442 167.527 311.492V316H166.617V305.99H167.527V309.882H167.555C167.961 309.294 168.731 308.692 170.005 308.692ZM180.217 312.108C180.217 312.304 180.217 312.5 180.203 312.612H174.547C174.561 314.054 175.331 315.412 177.011 315.412C178.481 315.412 179.055 314.404 179.195 313.816H180.119C179.769 315.118 178.789 316.196 176.997 316.196C174.813 316.196 173.595 314.6 173.595 312.43C173.595 310.148 174.939 308.678 176.997 308.678C179.055 308.678 180.217 310.12 180.217 312.108ZM174.547 311.814H179.251C179.251 310.54 178.425 309.462 176.955 309.462C175.569 309.462 174.617 310.484 174.547 311.814ZM100.013 336.182C98.5849 336.182 97.6749 335.384 97.6749 334.194C97.6749 332.654 98.7669 332.164 100.615 331.842C101.791 331.632 102.547 331.548 102.547 330.694C102.547 329.966 102.071 329.476 100.923 329.476C99.5369 329.476 99.0469 329.966 98.9769 331.016H98.0109C98.0809 329.756 98.8789 328.678 100.951 328.678C102.267 328.678 103.429 329.238 103.429 330.946V334.516C103.429 335.09 103.513 335.356 103.835 335.356C103.891 335.356 103.947 335.356 104.031 335.342V336C103.877 336.028 103.723 336.056 103.555 336.056C102.953 336.056 102.603 335.818 102.547 334.922H102.519C102.029 335.734 101.175 336.182 100.013 336.182ZM100.125 335.384C101.581 335.384 102.547 334.614 102.547 333.326V331.996C102.337 332.29 101.581 332.458 100.727 332.598C99.3409 332.85 98.6269 333.2 98.6269 334.11C98.6269 334.936 99.0889 335.384 100.125 335.384ZM109.977 333.368V328.86H110.887V336H109.977V334.992H109.949C109.543 335.58 108.773 336.168 107.499 336.168C106.225 336.168 105.161 335.454 105.161 333.872V328.86H106.071V333.676C106.071 334.586 106.491 335.37 107.723 335.37C109.081 335.37 109.977 334.418 109.977 333.368ZM117.766 330.064V325.99H118.676V336H117.766V334.838H117.738C117.332 335.538 116.576 336.182 115.33 336.182C113.594 336.182 112.194 334.782 112.194 332.43C112.194 330.092 113.594 328.692 115.33 328.692C116.576 328.692 117.318 329.308 117.738 330.064H117.766ZM115.442 335.384C116.814 335.384 117.766 334.236 117.766 332.43C117.766 330.638 116.814 329.49 115.442 329.49C113.958 329.49 113.146 330.834 113.146 332.43C113.146 334.04 113.958 335.384 115.442 335.384ZM121.401 327.432H120.225V326.256H121.401V327.432ZM121.275 336H120.365V328.86H121.275V336ZM129.193 332.108C129.193 332.304 129.193 332.5 129.179 332.612H123.523C123.537 334.054 124.307 335.412 125.987 335.412C127.457 335.412 128.031 334.404 128.171 333.816H129.095C128.745 335.118 127.765 336.196 125.973 336.196C123.789 336.196 122.571 334.6 122.571 332.43C122.571 330.148 123.915 328.678 125.973 328.678C128.031 328.678 129.193 330.12 129.193 332.108ZM123.523 331.814H128.227C128.227 330.54 127.401 329.462 125.931 329.462C124.545 329.462 123.593 330.484 123.523 331.814ZM133.857 328.692C135.131 328.692 136.195 329.406 136.195 330.988V336H135.285V331.184C135.285 330.274 134.865 329.49 133.633 329.49C132.275 329.49 131.379 330.442 131.379 331.492V336H130.469V328.86H131.379V329.882H131.407C131.813 329.294 132.583 328.692 133.857 328.692ZM140.848 336.182C138.804 336.182 137.432 334.67 137.432 332.43C137.432 330.204 138.804 328.692 140.848 328.692C142.584 328.692 143.76 329.854 143.914 331.366H142.962C142.906 330.568 142.332 329.49 140.848 329.49C139.098 329.49 138.384 330.974 138.384 332.43C138.384 333.9 139.098 335.398 140.848 335.398C142.346 335.398 142.906 334.32 142.962 333.452H143.914C143.816 334.992 142.584 336.182 140.848 336.182ZM151.383 332.108C151.383 332.304 151.383 332.5 151.369 332.612H145.713C145.727 334.054 146.497 335.412 148.177 335.412C149.647 335.412 150.221 334.404 150.361 333.816H151.285C150.935 335.118 149.955 336.196 148.163 336.196C145.979 336.196 144.761 334.6 144.761 332.43C144.761 330.148 146.105 328.678 148.163 328.678C150.221 328.678 151.383 330.12 151.383 332.108ZM145.713 331.814H150.417C150.417 330.54 149.591 329.462 148.121 329.462C146.735 329.462 145.783 330.484 145.713 331.814ZM158.079 336H157.071L154.803 328.86H155.811L157.589 334.964H157.617L159.283 328.86H160.305L161.971 334.964H161.999L163.791 328.86H164.771L162.489 336H161.467L159.787 329.966H159.759L158.079 336ZM171.863 332.108C171.863 332.304 171.863 332.5 171.849 332.612H166.193C166.207 334.054 166.977 335.412 168.657 335.412C170.127 335.412 170.701 334.404 170.841 333.816H171.765C171.415 335.118 170.435 336.196 168.643 336.196C166.459 336.196 165.241 334.6 165.241 332.43C165.241 330.148 166.585 328.678 168.643 328.678C170.701 328.678 171.863 330.12 171.863 332.108ZM166.193 331.814H170.897C170.897 330.54 170.071 329.462 168.601 329.462C167.215 329.462 166.263 330.484 166.193 331.814ZM173.264 329.308H172.55L172.438 325.99H173.376L173.264 329.308ZM177.857 328.692C178.109 328.692 178.305 328.706 178.473 328.734V329.63C178.333 329.602 178.179 329.588 178.039 329.588C176.751 329.588 175.799 330.624 175.799 332.01V336H174.889V328.86H175.799V330.316H175.827C176.191 329.378 176.849 328.692 177.857 328.692ZM185.289 332.108C185.289 332.304 185.289 332.5 185.275 332.612H179.619C179.633 334.054 180.403 335.412 182.083 335.412C183.553 335.412 184.127 334.404 184.267 333.816H185.191C184.841 335.118 183.861 336.196 182.069 336.196C179.885 336.196 178.667 334.6 178.667 332.43C178.667 330.148 180.011 328.678 182.069 328.678C184.127 328.678 185.289 330.12 185.289 332.108ZM179.619 331.814H184.323C184.323 330.54 183.497 329.462 182.027 329.462C180.641 329.462 179.689 330.484 179.619 331.814ZM114.838 348.678C116.588 348.678 117.988 350.078 117.988 352.43C117.988 354.768 116.588 356.168 114.838 356.168C113.592 356.168 112.85 355.552 112.43 354.782H112.402V356H111.492V345.99H112.402V350.008H112.43C112.85 349.322 113.592 348.678 114.838 348.678ZM114.74 355.37C116.224 355.37 117.036 354.026 117.036 352.43C117.036 350.82 116.224 349.462 114.74 349.462C113.368 349.462 112.402 350.624 112.402 352.43C112.402 354.222 113.368 355.37 114.74 355.37ZM124.045 353.368V348.86H124.955V356H124.045V354.992H124.017C123.611 355.58 122.841 356.168 121.567 356.168C120.293 356.168 119.229 355.454 119.229 353.872V348.86H120.139V353.676C120.139 354.586 120.559 355.37 121.791 355.37C123.149 355.37 124.045 354.418 124.045 353.368ZM127.677 347.432H126.501V346.256H127.677V347.432ZM127.551 356H126.641V348.86H127.551V356ZM130.135 356H129.225V345.99H130.135V356ZM137.003 350.064V345.99H137.913V356H137.003V354.838H136.975C136.569 355.538 135.813 356.182 134.567 356.182C132.831 356.182 131.431 354.782 131.431 352.43C131.431 350.092 132.831 348.692 134.567 348.692C135.813 348.692 136.555 349.308 136.975 350.064H137.003ZM134.679 355.384C136.051 355.384 137.003 354.236 137.003 352.43C137.003 350.638 136.051 349.49 134.679 349.49C133.195 349.49 132.383 350.834 132.383 352.43C132.383 354.04 133.195 355.384 134.679 355.384ZM140.638 347.432H139.462V346.256H140.638V347.432ZM140.512 356H139.602V348.86H140.512V356ZM145.574 348.692C146.848 348.692 147.912 349.406 147.912 350.988V356H147.002V351.184C147.002 350.274 146.582 349.49 145.35 349.49C143.992 349.49 143.096 350.442 143.096 351.492V356H142.186V348.86H143.096V349.882H143.124C143.53 349.294 144.3 348.692 145.574 348.692ZM154.763 349.98V348.86H155.673V355.552C155.673 357.582 154.413 358.562 152.453 358.562C150.521 358.562 149.499 357.624 149.387 356.378H150.339C150.479 357.148 151.081 357.764 152.467 357.764C153.909 357.764 154.763 357.134 154.763 355.678V354.348H154.735C154.315 355.09 153.531 355.664 152.327 355.664C150.619 355.664 149.191 354.544 149.191 352.164C149.191 349.812 150.619 348.692 152.327 348.692C153.531 348.692 154.315 349.266 154.735 349.98H154.763ZM152.453 354.866C153.769 354.866 154.763 353.998 154.763 352.164C154.763 350.358 153.769 349.49 152.453 349.49C150.983 349.49 150.143 350.554 150.143 352.164C150.143 353.802 150.983 354.866 152.453 354.866ZM162.595 346.704C161.909 346.704 161.741 346.914 161.741 347.796V348.86H163.155V349.658H161.741V356H160.831V349.658H159.823V348.86H160.831V347.81C160.831 346.256 161.447 345.906 162.469 345.906C162.665 345.906 162.833 345.92 163.155 345.962V346.732C162.903 346.718 162.791 346.704 162.595 346.704ZM166.921 356.196C164.779 356.196 163.491 354.656 163.491 352.444C163.491 350.218 164.779 348.678 166.921 348.678C169.063 348.678 170.351 350.218 170.351 352.444C170.351 354.656 169.063 356.196 166.921 356.196ZM166.921 355.398C168.587 355.398 169.399 354.082 169.399 352.444C169.399 350.792 168.587 349.476 166.921 349.476C165.255 349.476 164.443 350.792 164.443 352.444C164.443 354.082 165.255 355.398 166.921 355.398ZM174.603 348.692C174.855 348.692 175.051 348.706 175.219 348.734V349.63C175.079 349.602 174.925 349.588 174.785 349.588C173.497 349.588 172.545 350.624 172.545 352.01V356H171.635V348.86H172.545V350.316H172.573C172.937 349.378 173.595 348.692 174.603 348.692Z" fill="#6F7074"/>
<defs>
<clipPath id="clip0_2496_706">
<rect width="122" height="26" fill="white" transform="translate(197.5 444)"/>
</clipPath>
<clipPath id="clip1_2496_706">
<rect width="82" height="26" fill="white" transform="translate(649.5 444)"/>
</clipPath>
<clipPath id="clip2_2496_706">
<rect width="85" height="26" fill="white" transform="translate(965.333 444)"/>
</clipPath>
</defs>
</svg>
